<?xml version="1.0" encoding="UTF-8"?>

<!DOCTYPE svg PUBLIC '-//W3C//DTD SVG 1.0//EN' 'http://www.w3.org/TR/2001/REC-SVG-20010904/DTD/svg10.dtd'>
<svg style="fill-opacity:1; color-rendering:auto; color-interpolation:auto; stroke:black; text-rendering:auto; stroke-linecap:square; stroke-miterlimit:10; stroke-opacity:1; shape-rendering:auto; fill:black; stroke-dasharray:none; font-weight:normal; stroke-width:1; font-family:&apos;Dialog&apos;; font-style:normal; stroke-linejoin:miter; font-size:12; stroke-dashoffset:0; image-rendering:auto;" xmlns="http://www.w3.org/2000/svg" width="1086" xmlns:xlink="http://www.w3.org/1999/xlink" height="676">
  <!--Generated by the Batik Graphics2D SVG Generator-->
  <defs id="genericDefs" />
  <g>
    <defs id="defs1">
      <clipPath clipPathUnits="userSpaceOnUse" id="clipPath1">
        <path d="M-3 -3 L127 -3 L127 97 L-3 97 L-3 -3 Z" />
      </clipPath>
      <clipPath clipPathUnits="userSpaceOnUse" id="clipPath2">
        <path d="M0 0 L0 80 L120 80 L120 0 Z" />
      </clipPath>
      <clipPath clipPathUnits="userSpaceOnUse" id="clipPath3">
        <path d="M0 0 L120 0 L120 17 L0 17 L0 0 Z" />
      </clipPath>
      <clipPath clipPathUnits="userSpaceOnUse" id="clipPath4">
        <path d="M-3 -3 L97 -3 L97 177 L-3 177 L-3 -3 Z" />
      </clipPath>
      <clipPath clipPathUnits="userSpaceOnUse" id="clipPath5">
        <path d="M0 0 L0 160 L90 160 L90 0 Z" />
      </clipPath>
      <clipPath clipPathUnits="userSpaceOnUse" id="clipPath6">
        <path d="M0 0 L90 0 L90 17 L0 17 L0 0 Z" />
      </clipPath>
      <clipPath clipPathUnits="userSpaceOnUse" id="clipPath7">
        <path d="M-3 -3 L97 -3 L97 127 L-3 127 L-3 -3 Z" />
      </clipPath>
      <clipPath clipPathUnits="userSpaceOnUse" id="clipPath8">
        <path d="M0 0 L0 110 L90 110 L90 0 Z" />
      </clipPath>
      <clipPath clipPathUnits="userSpaceOnUse" id="clipPath9">
        <path d="M-3 -3 L87 -3 L87 97 L-3 97 L-3 -3 Z" />
      </clipPath>
      <clipPath clipPathUnits="userSpaceOnUse" id="clipPath10">
        <path d="M0 0 L0 80 L80 80 L80 0 Z" />
      </clipPath>
      <clipPath clipPathUnits="userSpaceOnUse" id="clipPath11">
        <path d="M0 0 L80 0 L80 17 L0 17 L0 0 Z" />
      </clipPath>
      <clipPath clipPathUnits="userSpaceOnUse" id="clipPath12">
        <path d="M-3 -3 L87 -3 L87 87 L-3 87 L-3 -3 Z" />
      </clipPath>
      <clipPath clipPathUnits="userSpaceOnUse" id="clipPath13">
        <path d="M0 0 L0 70 L80 70 L80 0 Z" />
      </clipPath>
      <clipPath clipPathUnits="userSpaceOnUse" id="clipPath14">
        <path d="M-3 -3 L97 -3 L97 147 L-3 147 L-3 -3 Z" />
      </clipPath>
      <clipPath clipPathUnits="userSpaceOnUse" id="clipPath15">
        <path d="M0 0 L0 130 L90 130 L90 0 Z" />
      </clipPath>
      <clipPath clipPathUnits="userSpaceOnUse" id="clipPath16">
        <path d="M-3 -3 L107 -3 L107 127 L-3 127 L-3 -3 Z" />
      </clipPath>
      <clipPath clipPathUnits="userSpaceOnUse" id="clipPath17">
        <path d="M0 0 L0 110 L100 110 L100 0 Z" />
      </clipPath>
      <clipPath clipPathUnits="userSpaceOnUse" id="clipPath18">
        <path d="M0 0 L100 0 L100 17 L0 17 L0 0 Z" />
      </clipPath>
      <clipPath clipPathUnits="userSpaceOnUse" id="clipPath19">
        <path d="M-3 -3 L97 -3 L97 77 L-3 77 L-3 -3 Z" />
      </clipPath>
      <clipPath clipPathUnits="userSpaceOnUse" id="clipPath20">
        <path d="M0 0 L0 60 L90 60 L90 0 Z" />
      </clipPath>
      <clipPath clipPathUnits="userSpaceOnUse" id="clipPath21">
        <path d="M-3 -3 L87 -3 L87 157 L-3 157 L-3 -3 Z" />
      </clipPath>
      <clipPath clipPathUnits="userSpaceOnUse" id="clipPath22">
        <path d="M0 0 L0 140 L80 140 L80 0 Z" />
      </clipPath>
      <clipPath clipPathUnits="userSpaceOnUse" id="clipPath23">
        <path d="M-3 -3 L117 -3 L117 87 L-3 87 L-3 -3 Z" />
      </clipPath>
      <clipPath clipPathUnits="userSpaceOnUse" id="clipPath24">
        <path d="M0 0 L0 70 L110 70 L110 0 Z" />
      </clipPath>
      <clipPath clipPathUnits="userSpaceOnUse" id="clipPath25">
        <path d="M0 0 L110 0 L110 17 L0 17 L0 0 Z" />
      </clipPath>
      <clipPath clipPathUnits="userSpaceOnUse" id="clipPath26">
        <path d="M-3 -3 L127 -3 L127 137 L-3 137 L-3 -3 Z" />
      </clipPath>
      <clipPath clipPathUnits="userSpaceOnUse" id="clipPath27">
        <path d="M0 0 L0 120 L120 120 L120 0 Z" />
      </clipPath>
      <clipPath clipPathUnits="userSpaceOnUse" id="clipPath28">
        <path d="M-3 -3 L127 -3 L127 77 L-3 77 L-3 -3 Z" />
      </clipPath>
      <clipPath clipPathUnits="userSpaceOnUse" id="clipPath29">
        <path d="M0 0 L0 60 L120 60 L120 0 Z" />
      </clipPath>
      <clipPath clipPathUnits="userSpaceOnUse" id="clipPath30">
        <path d="M-3 -3 L47 -3 L47 27 L-3 27 L-3 -3 Z" />
      </clipPath>
      <clipPath clipPathUnits="userSpaceOnUse" id="clipPath31">
        <path d="M-3 -3 L87 -3 L87 77 L-3 77 L-3 -3 Z" />
      </clipPath>
      <clipPath clipPathUnits="userSpaceOnUse" id="clipPath32">
        <path d="M0 0 L0 60 L80 60 L80 0 Z" />
      </clipPath>
      <clipPath clipPathUnits="userSpaceOnUse" id="clipPath33">
        <path d="M0 0 L219 0 L219 389 L0 389 L0 0 Z" />
      </clipPath>
      <clipPath clipPathUnits="userSpaceOnUse" id="clipPath34">
        <path d="M0 0 L236 0 L236 159 L0 159 L0 0 Z" />
      </clipPath>
      <clipPath clipPathUnits="userSpaceOnUse" id="clipPath35">
        <path d="M0 0 L219 0 L219 199 L0 199 L0 0 Z" />
      </clipPath>
      <clipPath clipPathUnits="userSpaceOnUse" id="clipPath36">
        <path d="M0 0 L479 0 L479 129 L0 129 L0 0 Z" />
      </clipPath>
      <clipPath clipPathUnits="userSpaceOnUse" id="clipPath37">
        <path d="M0 0 L319 0 L319 159 L0 159 L0 0 Z" />
      </clipPath>
      <clipPath clipPathUnits="userSpaceOnUse" id="clipPath38">
        <path d="M0 0 L356 0 L356 129 L0 129 L0 0 Z" />
      </clipPath>
      <clipPath clipPathUnits="userSpaceOnUse" id="clipPath39">
        <path d="M0 0 L229 0 L229 179 L0 179 L0 0 Z" />
      </clipPath>
      <clipPath clipPathUnits="userSpaceOnUse" id="clipPath40">
        <path d="M0 0 L129 0 L129 208 L0 208 L0 0 Z" />
      </clipPath>
      <clipPath clipPathUnits="userSpaceOnUse" id="clipPath41">
        <path d="M0 0 L216 0 L216 129 L0 129 L0 0 Z" />
      </clipPath>
      <clipPath clipPathUnits="userSpaceOnUse" id="clipPath42">
        <path d="M0 0 L256 0 L256 279 L0 279 L0 0 Z" />
      </clipPath>
      <clipPath clipPathUnits="userSpaceOnUse" id="clipPath43">
        <path d="M0 0 L219 0 L219 316 L0 316 L0 0 Z" />
      </clipPath>
      <clipPath clipPathUnits="userSpaceOnUse" id="clipPath44">
        <path d="M0 0 L169 0 L169 199 L0 199 L0 0 Z" />
      </clipPath>
      <clipPath clipPathUnits="userSpaceOnUse" id="clipPath45">
        <path d="M0 0 L129 0 L129 188 L0 188 L0 0 Z" />
      </clipPath>
      <clipPath clipPathUnits="userSpaceOnUse" id="clipPath46">
        <path d="M0 0 L328 0 L328 129 L0 129 L0 0 Z" />
      </clipPath>
      <clipPath clipPathUnits="userSpaceOnUse" id="clipPath47">
        <path d="M0 0 L209 0 L209 169 L0 169 L0 0 Z" />
      </clipPath>
      <clipPath clipPathUnits="userSpaceOnUse" id="clipPath48">
        <path d="M0 0 L198 0 L198 129 L0 129 L0 0 Z" />
      </clipPath>
      <clipPath clipPathUnits="userSpaceOnUse" id="clipPath49">
        <path d="M0 0 L208 0 L208 129 L0 129 L0 0 Z" />
      </clipPath>
      <clipPath clipPathUnits="userSpaceOnUse" id="clipPath50">
        <path d="M0 0 L40 0 L40 20 L0 20 L0 0 Z" />
      </clipPath>
    </defs>
    <g style="fill:white; text-rendering:geometricPrecision; stroke:white;">
      <rect x="0" y="0" width="1086" style="stroke:none;" height="676" />
    </g>
    <g transform="translate(582,232)" style="font-size:11; fill:rgb(122,207,245); text-rendering:geometricPrecision; font-family:sans-serif; stroke:rgb(122,207,245); font-weight:bold;">
      <rect x="0" y="0" width="120" style="clip-path:url(#clipPath1); stroke:none;" height="90" />
    </g>
    <g transform="translate(582,232)" style="font-size:11; stroke-linecap:butt; text-rendering:geometricPrecision; font-family:sans-serif; stroke-linejoin:round; font-weight:bold; stroke-miterlimit:0;">
      <rect x="0" y="0" width="120" style="clip-path:url(#clipPath1); fill:none;" height="90" />
      <line x1="0" x2="120" y1="17" style="clip-path:url(#clipPath1); fill:none;" y2="17" />
    </g>
    <g style="text-rendering:geometricPrecision; font-size:11; font-family:sans-serif;" transform="translate(582,249)">
      <text x="2" y="14" style="clip-path:url(#clipPath2); stroke:none;" xml:space="preserve">-藍芽位置</text>
      <text x="2" y="29" style="clip-path:url(#clipPath2); stroke:none;" xml:space="preserve">-密碼</text>
      <line x1="0" x2="120" y1="34" style="stroke-linecap:butt; clip-path:url(#clipPath2); fill:none; stroke-linejoin:bevel; stroke-miterlimit:0;" y2="34" />
      <text x="2" y="48" style="clip-path:url(#clipPath2); stroke:none;" xml:space="preserve">+登入()</text>
    </g>
    <g transform="translate(582,232)" style="text-rendering:geometricPrecision; font-size:11; font-weight:bold; font-family:sans-serif;">
      <text x="42" y="14" style="clip-path:url(#clipPath3); stroke:none;" xml:space="preserve">使用者</text>
    </g>
    <g transform="translate(452,502)" style="font-size:11; fill:rgb(122,207,245); text-rendering:geometricPrecision; font-family:sans-serif; stroke:rgb(122,207,245); font-weight:bold;">
      <rect x="0" y="0" width="90" style="clip-path:url(#clipPath4); stroke:none;" height="170" />
    </g>
    <g transform="translate(452,502)" style="font-size:11; stroke-linecap:butt; text-rendering:geometricPrecision; font-family:sans-serif; stroke-linejoin:round; font-weight:bold; stroke-miterlimit:0;">
      <rect x="0" y="0" width="90" style="clip-path:url(#clipPath4); fill:none;" height="170" />
      <line x1="0" x2="90" y1="17" style="clip-path:url(#clipPath4); fill:none;" y2="17" />
    </g>
    <g style="text-rendering:geometricPrecision; font-size:11; font-family:sans-serif;" transform="translate(452,519)">
      <text x="2" y="14" style="clip-path:url(#clipPath5); stroke:none;" xml:space="preserve">-藍芽位置</text>
      <text x="2" y="29" style="clip-path:url(#clipPath5); stroke:none;" xml:space="preserve">-名稱</text>
      <text x="2" y="44" style="clip-path:url(#clipPath5); stroke:none;" xml:space="preserve">-信箱</text>
      <text x="2" y="59" style="clip-path:url(#clipPath5); stroke:none;" xml:space="preserve">-電話</text>
      <text x="2" y="74" style="clip-path:url(#clipPath5); stroke:none;" xml:space="preserve">-職稱</text>
      <text x="2" y="89" style="clip-path:url(#clipPath5); stroke:none;" xml:space="preserve">-頭像</text>
      <text x="2" y="104" style="clip-path:url(#clipPath5); stroke:none;" xml:space="preserve">-公司</text>
      <line x1="0" x2="90" y1="109" style="stroke-linecap:butt; clip-path:url(#clipPath5); fill:none; stroke-linejoin:bevel; stroke-miterlimit:0;" y2="109" />
      <text x="2" y="123" style="clip-path:url(#clipPath5); stroke:none;" xml:space="preserve">+取得基本資料()</text>
      <text x="2" y="138" style="clip-path:url(#clipPath5); stroke:none;" xml:space="preserve">+註冊()</text>
    </g>
    <g transform="translate(452,502)" style="text-rendering:geometricPrecision; font-size:11; font-weight:bold; font-family:sans-serif;">
      <text x="21" y="14" style="clip-path:url(#clipPath6); stroke:none;" xml:space="preserve">基本資料</text>
    </g>
    <g transform="translate(432,112)" style="font-size:11; fill:rgb(122,207,245); text-rendering:geometricPrecision; font-family:sans-serif; stroke:rgb(122,207,245); font-weight:bold;">
      <rect x="0" y="0" width="90" style="clip-path:url(#clipPath7); stroke:none;" height="120" />
    </g>
    <g transform="translate(432,112)" style="font-size:11; stroke-linecap:butt; text-rendering:geometricPrecision; font-family:sans-serif; stroke-linejoin:round; font-weight:bold; stroke-miterlimit:0;">
      <rect x="0" y="0" width="90" style="clip-path:url(#clipPath7); fill:none;" height="120" />
      <line x1="0" x2="90" y1="17" style="clip-path:url(#clipPath7); fill:none;" y2="17" />
    </g>
    <g style="text-rendering:geometricPrecision; font-size:11; font-family:sans-serif;" transform="translate(432,129)">
      <text x="2" y="14" style="clip-path:url(#clipPath8); stroke:none;" xml:space="preserve">-使用者藍芽位置</text>
      <text x="2" y="29" style="clip-path:url(#clipPath8); stroke:none;" xml:space="preserve">-朋友藍芽位置</text>
      <text x="2" y="44" style="clip-path:url(#clipPath8); stroke:none;" xml:space="preserve">-群組</text>
      <text x="2" y="59" style="clip-path:url(#clipPath8); stroke:none;" xml:space="preserve">-備註</text>
      <line x1="0" x2="90" y1="64" style="stroke-linecap:butt; clip-path:url(#clipPath8); fill:none; stroke-linejoin:bevel; stroke-miterlimit:0;" y2="64" />
      <text x="2" y="78" style="clip-path:url(#clipPath8); stroke:none;" xml:space="preserve">+取得配對資訊()</text>
      <text x="2" y="93" style="clip-path:url(#clipPath8); stroke:none;" xml:space="preserve">+新增配對資訊()</text>
    </g>
    <g transform="translate(432,112)" style="text-rendering:geometricPrecision; font-size:11; font-weight:bold; font-family:sans-serif;">
      <text x="32" y="14" style="clip-path:url(#clipPath6); stroke:none;" xml:space="preserve">朋友</text>
    </g>
    <g transform="translate(122,122)" style="font-size:11; fill:rgb(122,207,245); text-rendering:geometricPrecision; font-family:sans-serif; stroke:rgb(122,207,245); font-weight:bold;">
      <rect x="0" y="0" width="80" style="clip-path:url(#clipPath9); stroke:none;" height="90" />
    </g>
    <g transform="translate(122,122)" style="font-size:11; stroke-linecap:butt; text-rendering:geometricPrecision; font-family:sans-serif; stroke-linejoin:round; font-weight:bold; stroke-miterlimit:0;">
      <rect x="0" y="0" width="80" style="clip-path:url(#clipPath9); fill:none;" height="90" />
      <line x1="0" x2="80" y1="17" style="clip-path:url(#clipPath9); fill:none;" y2="17" />
    </g>
    <g style="text-rendering:geometricPrecision; font-size:11; font-family:sans-serif;" transform="translate(122,139)">
      <text x="2" y="14" style="clip-path:url(#clipPath10); stroke:none;" xml:space="preserve">-編號</text>
      <text x="2" y="29" style="clip-path:url(#clipPath10); stroke:none;" xml:space="preserve">-名稱</text>
      <text x="2" y="44" style="clip-path:url(#clipPath10); stroke:none;" xml:space="preserve">-上層群組</text>
      <line x1="0" x2="80" y1="49" style="stroke-linecap:butt; clip-path:url(#clipPath10); fill:none; stroke-linejoin:bevel; stroke-miterlimit:0;" y2="49" />
      <text x="2" y="63" style="clip-path:url(#clipPath10); stroke:none;" xml:space="preserve">+取得群組()</text>
    </g>
    <g transform="translate(122,122)" style="text-rendering:geometricPrecision; font-size:11; font-weight:bold; font-family:sans-serif;">
      <text x="27" y="14" style="clip-path:url(#clipPath11); stroke:none;" xml:space="preserve">群組</text>
    </g>
    <g transform="translate(22,552)" style="font-size:11; fill:rgb(122,207,245); text-rendering:geometricPrecision; font-family:sans-serif; stroke:rgb(122,207,245); font-weight:bold;">
      <rect x="0" y="0" width="80" style="clip-path:url(#clipPath12); stroke:none;" height="80" />
    </g>
    <g transform="translate(22,552)" style="font-size:11; stroke-linecap:butt; text-rendering:geometricPrecision; font-family:sans-serif; stroke-linejoin:round; font-weight:bold; stroke-miterlimit:0;">
      <rect x="0" y="0" width="80" style="clip-path:url(#clipPath12); fill:none;" height="80" />
      <line x1="0" x2="80" y1="17" style="clip-path:url(#clipPath12); fill:none;" y2="17" />
    </g>
    <g style="text-rendering:geometricPrecision; font-size:11; font-family:sans-serif;" transform="translate(22,569)">
      <text x="2" y="14" style="clip-path:url(#clipPath13); stroke:none;" xml:space="preserve">-編號</text>
      <text x="2" y="29" style="clip-path:url(#clipPath13); stroke:none;" xml:space="preserve">-名稱</text>
      <line x1="0" x2="80" y1="34" style="stroke-linecap:butt; clip-path:url(#clipPath13); fill:none; stroke-linejoin:bevel; stroke-miterlimit:0;" y2="34" />
      <text x="2" y="48" style="clip-path:url(#clipPath13); stroke:none;" xml:space="preserve">+取得職位()</text>
    </g>
    <g transform="translate(22,552)" style="text-rendering:geometricPrecision; font-size:11; font-weight:bold; font-family:sans-serif;">
      <text x="27" y="14" style="clip-path:url(#clipPath11); stroke:none;" xml:space="preserve">職位</text>
    </g>
    <g transform="translate(552,2)" style="font-size:11; fill:rgb(122,207,245); text-rendering:geometricPrecision; font-family:sans-serif; stroke:rgb(122,207,245); font-weight:bold;">
      <rect x="0" y="0" width="90" style="clip-path:url(#clipPath14); stroke:none;" height="140" />
    </g>
    <g transform="translate(552,2)" style="font-size:11; stroke-linecap:butt; text-rendering:geometricPrecision; font-family:sans-serif; stroke-linejoin:round; font-weight:bold; stroke-miterlimit:0;">
      <rect x="0" y="0" width="90" style="clip-path:url(#clipPath14); fill:none;" height="140" />
      <line x1="0" x2="90" y1="17" style="clip-path:url(#clipPath14); fill:none;" y2="17" />
    </g>
    <g transform="translate(552,19)" style="font-size:11; stroke-linecap:butt; text-rendering:geometricPrecision; font-family:sans-serif; stroke-linejoin:round; stroke-miterlimit:0;">
      <text x="2" y="14" style="clip-path:url(#clipPath15); stroke:none;" xml:space="preserve">-編號</text>
      <text x="2" y="29" style="clip-path:url(#clipPath15); stroke:none;" xml:space="preserve">-朋友編號</text>
      <text x="2" y="44" style="clip-path:url(#clipPath15); stroke:none;" xml:space="preserve">-興趣</text>
      <text x="2" y="59" style="clip-path:url(#clipPath15); stroke:none;" xml:space="preserve">-喜好</text>
      <line x1="0" x2="90" y1="64" style="clip-path:url(#clipPath15); fill:none; stroke-linejoin:bevel;" y2="64" />
      <text x="2" y="78" style="clip-path:url(#clipPath15); stroke:none;" xml:space="preserve">+取得備註資訊()</text>
      <text x="2" y="93" style="clip-path:url(#clipPath15); stroke:none;" xml:space="preserve">+新增備註資訊()</text>
      <text x="2" y="108" style="clip-path:url(#clipPath15); stroke:none;" xml:space="preserve">+修改備註資訊()</text>
    </g>
    <g transform="translate(552,2)" style="font-size:11; stroke-linecap:butt; text-rendering:geometricPrecision; font-family:sans-serif; stroke-linejoin:round; font-weight:bold; stroke-miterlimit:0;">
      <text x="32" y="14" style="clip-path:url(#clipPath6); stroke:none;" xml:space="preserve">備註</text>
    </g>
    <g transform="translate(672,22)" style="font-size:11; fill:rgb(122,207,245); text-rendering:geometricPrecision; font-family:sans-serif; stroke:rgb(122,207,245); font-weight:bold;">
      <rect x="0" y="0" width="100" style="clip-path:url(#clipPath16); stroke:none;" height="120" />
    </g>
    <g transform="translate(672,22)" style="font-size:11; stroke-linecap:butt; text-rendering:geometricPrecision; font-family:sans-serif; stroke-linejoin:round; font-weight:bold; stroke-miterlimit:0;">
      <rect x="0" y="0" width="100" style="clip-path:url(#clipPath16); fill:none;" height="120" />
      <line x1="0" x2="100" y1="17" style="clip-path:url(#clipPath16); fill:none;" y2="17" />
    </g>
    <g style="text-rendering:geometricPrecision; font-size:11; font-family:sans-serif;" transform="translate(672,39)">
      <text x="2" y="14" style="clip-path:url(#clipPath17); stroke:none;" xml:space="preserve">-編號</text>
      <text x="2" y="29" style="clip-path:url(#clipPath17); stroke:none;" xml:space="preserve">-時間</text>
      <text x="2" y="44" style="clip-path:url(#clipPath17); stroke:none;" xml:space="preserve">-地點</text>
      <text x="2" y="59" style="clip-path:url(#clipPath17); stroke:none;" xml:space="preserve">-備註</text>
      <line x1="0" x2="100" y1="64" style="stroke-linecap:butt; clip-path:url(#clipPath17); fill:none; stroke-linejoin:bevel; stroke-miterlimit:0;" y2="64" />
      <text x="2" y="78" style="clip-path:url(#clipPath17); stroke:none;" xml:space="preserve">+新增紀錄()</text>
      <text x="2" y="93" style="clip-path:url(#clipPath17); stroke:none;" xml:space="preserve">+查詢紀錄()</text>
    </g>
    <g transform="translate(672,22)" style="text-rendering:geometricPrecision; font-size:11; font-weight:bold; font-family:sans-serif;">
      <text x="26" y="14" style="clip-path:url(#clipPath18); stroke:none;" xml:space="preserve">遇見紀錄</text>
    </g>
    <g transform="translate(752,162)" style="font-size:11; fill:rgb(122,207,245); text-rendering:geometricPrecision; font-family:sans-serif; stroke:rgb(122,207,245); font-weight:bold;">
      <rect x="0" y="0" width="90" style="clip-path:url(#clipPath19); stroke:none;" height="70" />
    </g>
    <g transform="translate(752,162)" style="font-size:11; stroke-linecap:butt; text-rendering:geometricPrecision; font-family:sans-serif; stroke-linejoin:round; font-weight:bold; stroke-miterlimit:0;">
      <rect x="0" y="0" width="90" style="clip-path:url(#clipPath19); fill:none;" height="70" />
      <line x1="0" x2="90" y1="17" style="clip-path:url(#clipPath19); fill:none;" y2="17" />
    </g>
    <g style="text-rendering:geometricPrecision; font-size:11; font-family:sans-serif;" transform="translate(752,179)">
      <text x="2" y="14" style="clip-path:url(#clipPath20); stroke:none;" xml:space="preserve">-藍芽位置</text>
      <line x1="0" x2="90" y1="19" style="stroke-linecap:butt; clip-path:url(#clipPath20); fill:none; stroke-linejoin:bevel; stroke-miterlimit:0;" y2="19" />
      <text x="2" y="33" style="clip-path:url(#clipPath20); stroke:none;" xml:space="preserve">+取得藍芽位置()</text>
    </g>
    <g transform="translate(752,162)" style="text-rendering:geometricPrecision; font-size:11; font-weight:bold; font-family:sans-serif;">
      <text x="32" y="14" style="clip-path:url(#clipPath6); stroke:none;" xml:space="preserve">手機</text>
    </g>
    <g transform="translate(1002,382)" style="font-size:11; fill:rgb(122,207,245); text-rendering:geometricPrecision; font-family:sans-serif; stroke:rgb(122,207,245); font-weight:bold;">
      <rect x="0" y="0" width="80" style="clip-path:url(#clipPath21); stroke:none;" height="150" />
    </g>
    <g transform="translate(1002,382)" style="font-size:11; stroke-linecap:butt; text-rendering:geometricPrecision; font-family:sans-serif; stroke-linejoin:round; font-weight:bold; stroke-miterlimit:0;">
      <rect x="0" y="0" width="80" style="clip-path:url(#clipPath21); fill:none;" height="150" />
      <line x1="0" x2="80" y1="17" style="clip-path:url(#clipPath21); fill:none;" y2="17" />
    </g>
    <g style="text-rendering:geometricPrecision; font-size:11; font-family:sans-serif;" transform="translate(1002,399)">
      <text x="2" y="14" style="clip-path:url(#clipPath22); stroke:none;" xml:space="preserve">-編號</text>
      <text x="2" y="29" style="clip-path:url(#clipPath22); stroke:none;" xml:space="preserve">-名稱</text>
      <text x="2" y="44" style="clip-path:url(#clipPath22); stroke:none;" xml:space="preserve">-時間</text>
      <text x="2" y="59" style="clip-path:url(#clipPath22); stroke:none;" xml:space="preserve">-地點</text>
      <text x="2" y="74" style="clip-path:url(#clipPath22); stroke:none;" xml:space="preserve">-備註</text>
      <line x1="0" x2="80" y1="79" style="stroke-linecap:butt; clip-path:url(#clipPath22); fill:none; stroke-linejoin:bevel; stroke-miterlimit:0;" y2="79" />
      <text x="2" y="93" style="clip-path:url(#clipPath22); stroke:none;" xml:space="preserve">+新增會議()</text>
      <text x="2" y="108" style="clip-path:url(#clipPath22); stroke:none;" xml:space="preserve">+刪除會議()</text>
      <text x="2" y="123" style="clip-path:url(#clipPath22); stroke:none;" xml:space="preserve">+查詢會議()</text>
    </g>
    <g transform="translate(1002,382)" style="text-rendering:geometricPrecision; font-size:11; font-weight:bold; font-family:sans-serif;">
      <text x="27" y="14" style="clip-path:url(#clipPath11); stroke:none;" xml:space="preserve">會議</text>
    </g>
    <g transform="translate(2,392)" style="font-size:11; fill:rgb(122,207,245); text-rendering:geometricPrecision; font-family:sans-serif; stroke:rgb(122,207,245); font-weight:bold;">
      <rect x="0" y="0" width="110" style="clip-path:url(#clipPath23); stroke:none;" height="80" />
    </g>
    <g transform="translate(2,392)" style="font-size:11; stroke-linecap:butt; text-rendering:geometricPrecision; font-family:sans-serif; stroke-linejoin:round; font-weight:bold; stroke-miterlimit:0;">
      <rect x="0" y="0" width="110" style="clip-path:url(#clipPath23); fill:none;" height="80" />
      <line x1="0" x2="110" y1="17" style="clip-path:url(#clipPath23); fill:none;" y2="17" />
    </g>
    <g style="text-rendering:geometricPrecision; font-size:11; font-family:sans-serif;" transform="translate(2,409)">
      <text x="2" y="14" style="clip-path:url(#clipPath24); stroke:none;" xml:space="preserve">-編號</text>
      <text x="2" y="29" style="clip-path:url(#clipPath24); stroke:none;" xml:space="preserve">-職位編號</text>
      <text x="2" y="44" style="clip-path:url(#clipPath24); stroke:none;" xml:space="preserve">-公司部門編號</text>
    </g>
    <g transform="translate(2,392)" style="text-rendering:geometricPrecision; font-size:11; font-weight:bold; font-family:sans-serif;">
      <text x="13" y="14" style="clip-path:url(#clipPath25); stroke:none;" xml:space="preserve">公司群部門職位</text>
    </g>
    <g transform="translate(792,392)" style="font-size:11; fill:rgb(122,207,245); text-rendering:geometricPrecision; font-family:sans-serif; stroke:rgb(122,207,245); font-weight:bold;">
      <rect x="0" y="0" width="120" style="clip-path:url(#clipPath26); stroke:none;" height="130" />
    </g>
    <g transform="translate(792,392)" style="font-size:11; stroke-linecap:butt; text-rendering:geometricPrecision; font-family:sans-serif; stroke-linejoin:round; font-weight:bold; stroke-miterlimit:0;">
      <rect x="0" y="0" width="120" style="clip-path:url(#clipPath26); fill:none;" height="130" />
      <line x1="0" x2="120" y1="17" style="clip-path:url(#clipPath26); fill:none;" y2="17" />
    </g>
    <g style="text-rendering:geometricPrecision; font-size:11; font-family:sans-serif;" transform="translate(792,409)">
      <text x="2" y="14" style="clip-path:url(#clipPath27); stroke:none;" xml:space="preserve">-編號</text>
      <text x="2" y="29" style="clip-path:url(#clipPath27); stroke:none;" xml:space="preserve">-藍芽位置</text>
      <text x="2" y="44" style="clip-path:url(#clipPath27); stroke:none;" xml:space="preserve">-會議編號</text>
      <line x1="0" x2="120" y1="49" style="stroke-linecap:butt; clip-path:url(#clipPath27); fill:none; stroke-linejoin:bevel; stroke-miterlimit:0;" y2="49" />
      <text x="2" y="63" style="clip-path:url(#clipPath27); stroke:none;" xml:space="preserve">+查詢會議參與者()</text>
      <text x="2" y="78" style="clip-path:url(#clipPath27); stroke:none;" xml:space="preserve">+新增會議參與者()</text>
      <text x="2" y="93" style="clip-path:url(#clipPath27); stroke:none;" xml:space="preserve">+刪除會議參與者()</text>
    </g>
    <g transform="translate(792,392)" style="text-rendering:geometricPrecision; font-size:11; font-weight:bold; font-family:sans-serif;">
      <text x="30" y="14" style="clip-path:url(#clipPath3); stroke:none;" xml:space="preserve">會議參與者</text>
    </g>
    <g transform="translate(322,282)" style="font-size:11; fill:rgb(122,207,245); text-rendering:geometricPrecision; font-family:sans-serif; stroke:rgb(122,207,245); font-weight:bold;">
      <rect x="0" y="0" width="90" style="clip-path:url(#clipPath7); stroke:none;" height="120" />
    </g>
    <g transform="translate(322,282)" style="font-size:11; stroke-linecap:butt; text-rendering:geometricPrecision; font-family:sans-serif; stroke-linejoin:round; font-weight:bold; stroke-miterlimit:0;">
      <rect x="0" y="0" width="90" style="clip-path:url(#clipPath7); fill:none;" height="120" />
      <line x1="0" x2="90" y1="17" style="clip-path:url(#clipPath7); fill:none;" y2="17" />
    </g>
    <g style="text-rendering:geometricPrecision; font-size:11; font-family:sans-serif;" transform="translate(322,299)">
      <text x="2" y="14" style="clip-path:url(#clipPath8); stroke:none;" xml:space="preserve">-編號</text>
      <text x="2" y="29" style="clip-path:url(#clipPath8); stroke:none;" xml:space="preserve">-名稱</text>
      <line x1="0" x2="90" y1="34" style="stroke-linecap:butt; clip-path:url(#clipPath8); fill:none; stroke-linejoin:bevel; stroke-miterlimit:0;" y2="34" />
      <text x="2" y="48" style="clip-path:url(#clipPath8); stroke:none;" xml:space="preserve">+查詢公司()</text>
      <text x="2" y="63" style="clip-path:url(#clipPath8); stroke:none;" xml:space="preserve">+新增公司()</text>
      <text x="2" y="78" style="clip-path:url(#clipPath8); stroke:none;" xml:space="preserve">+刪除公司()</text>
      <text x="2" y="93" style="clip-path:url(#clipPath8); stroke:none;" xml:space="preserve">+修改公司名稱()</text>
    </g>
    <g transform="translate(322,282)" style="text-rendering:geometricPrecision; font-size:11; font-weight:bold; font-family:sans-serif;">
      <text x="32" y="14" style="clip-path:url(#clipPath6); stroke:none;" xml:space="preserve">公司</text>
    </g>
    <g transform="translate(2,262)" style="font-size:11; fill:rgb(122,207,245); text-rendering:geometricPrecision; font-family:sans-serif; stroke:rgb(122,207,245); font-weight:bold;">
      <rect x="0" y="0" width="120" style="clip-path:url(#clipPath28); stroke:none;" height="70" />
    </g>
    <g transform="translate(2,262)" style="font-size:11; stroke-linecap:butt; text-rendering:geometricPrecision; font-family:sans-serif; stroke-linejoin:round; font-weight:bold; stroke-miterlimit:0;">
      <rect x="0" y="0" width="120" style="clip-path:url(#clipPath28); fill:none;" height="70" />
      <line x1="0" x2="120" y1="17" style="clip-path:url(#clipPath28); fill:none;" y2="17" />
    </g>
    <g style="text-rendering:geometricPrecision; font-size:11; font-family:sans-serif;" transform="translate(2,279)">
      <text x="2" y="14" style="clip-path:url(#clipPath29); stroke:none;" xml:space="preserve">-編號</text>
      <text x="2" y="29" style="clip-path:url(#clipPath29); stroke:none;" xml:space="preserve">-公司編號</text>
      <text x="2" y="44" style="clip-path:url(#clipPath29); stroke:none;" xml:space="preserve">-群組編號</text>
    </g>
    <g transform="translate(2,262)" style="text-rendering:geometricPrecision; font-size:11; font-weight:bold; font-family:sans-serif;">
      <text x="36" y="14" style="clip-path:url(#clipPath3); stroke:none;" xml:space="preserve">公司部門</text>
    </g>
    <g transform="translate(272,132)" style="font-size:11; fill:rgb(122,207,245); text-rendering:geometricPrecision; font-family:sans-serif; stroke:rgb(122,207,245); font-weight:bold;">
      <rect x="0" y="0" width="80" style="clip-path:url(#clipPath31); stroke:none;" height="70" />
    </g>
    <g transform="translate(272,132)" style="font-size:11; stroke-linecap:butt; text-rendering:geometricPrecision; font-family:sans-serif; stroke-linejoin:round; font-weight:bold; stroke-miterlimit:0;">
      <rect x="0" y="0" width="80" style="clip-path:url(#clipPath31); fill:none;" height="70" />
      <line x1="0" x2="80" y1="17" style="clip-path:url(#clipPath31); fill:none;" y2="17" />
    </g>
    <g style="text-rendering:geometricPrecision; font-size:11; font-family:sans-serif;" transform="translate(272,149)">
      <text x="2" y="14" style="clip-path:url(#clipPath32); stroke:none;" xml:space="preserve">-群組編號</text>
      <text x="2" y="29" style="clip-path:url(#clipPath32); stroke:none;" xml:space="preserve">-朋友編號</text>
    </g>
    <g transform="translate(272,132)" style="text-rendering:geometricPrecision; font-size:11; font-weight:bold; font-family:sans-serif;">
      <text x="10" y="14" style="clip-path:url(#clipPath11); stroke:none;" xml:space="preserve">朋友的群組</text>
    </g>
    <g transform="translate(478,258)" style="font-size:11; stroke-linecap:butt; text-rendering:geometricPrecision; font-family:sans-serif; stroke-linejoin:round;">
      <line x1="153" x2="153" y1="63" style="clip-path:url(#clipPath33); fill:none;" y2="323" />
      <line x1="153" x2="63" y1="323" style="clip-path:url(#clipPath33); fill:none;" y2="321" />
    </g>
    <g transform="translate(408,168)" style="font-size:11; stroke-linecap:butt; text-rendering:geometricPrecision; font-family:sans-serif; stroke-linejoin:round;">
      <line x1="171" x2="63" y1="93" style="clip-path:url(#clipPath34); fill:none;" y2="93" />
      <line x1="63" x2="63" y1="93" style="clip-path:url(#clipPath34); fill:none;" y2="63" />
    </g>
    <g transform="translate(10,30)" style="font-size:11; stroke-linecap:butt; text-rendering:geometricPrecision; font-family:sans-serif; stroke-linejoin:round;">
      <line x1="153" x2="153" y1="91" style="clip-path:url(#clipPath35); fill:none;" y2="63" />
      <line x1="153" x2="63" y1="63" style="clip-path:url(#clipPath35); fill:none;" y2="63" />
      <line x1="63" x2="63" y1="63" style="clip-path:url(#clipPath35); fill:none;" y2="133" />
      <line x1="63" x2="111" y1="133" style="clip-path:url(#clipPath35); fill:none;" y2="133" />
    </g>
    <g transform="translate(40,520)" style="font-size:11; stroke-linecap:butt; text-rendering:geometricPrecision; font-family:sans-serif; stroke-linejoin:round;">
      <line x1="63" x2="413" y1="63" style="clip-path:url(#clipPath36); fill:none;" y2="63" />
    </g>
    <g transform="translate(457,77)" style="font-size:11; stroke-linecap:butt; text-rendering:geometricPrecision; font-family:sans-serif; stroke-linejoin:round;">
      <line x1="63" x2="253" y1="93" style="clip-path:url(#clipPath37); fill:none;" y2="93" />
      <line x1="253" x2="253" y1="93" style="clip-path:url(#clipPath37); fill:none;" y2="63" />
    </g>
    <g transform="translate(457,127)" style="font-size:11; stroke-linecap:butt; text-rendering:geometricPrecision; font-family:sans-serif; stroke-linejoin:round;">
      <line x1="63" x2="291" y1="63" style="clip-path:url(#clipPath38); fill:none;" y2="63" />
    </g>
    <g transform="translate(637,167)" style="font-size:11; stroke-linecap:butt; text-rendering:geometricPrecision; font-family:sans-serif; stroke-linejoin:round;">
      <line x1="63" x2="163" y1="113" style="clip-path:url(#clipPath39); fill:none;" y2="113" />
      <line x1="163" x2="163" y1="113" style="clip-path:url(#clipPath39); fill:none;" y2="63" />
    </g>
    <g transform="translate(-10,410)" style="font-size:11; stroke-linecap:butt; text-rendering:geometricPrecision; font-family:sans-serif; stroke-linejoin:round;">
      <line x1="63" x2="63" y1="141" style="clip-path:url(#clipPath40); fill:none;" y2="63" />
    </g>
    <g transform="translate(848,408)" style="font-size:11; stroke-linecap:butt; text-rendering:geometricPrecision; font-family:sans-serif; stroke-linejoin:round;">
      <line x1="151" x2="63" y1="63" style="clip-path:url(#clipPath41); fill:none;" y2="63" />
    </g>
    <g transform="translate(598,258)" style="font-size:11; stroke-linecap:butt; text-rendering:geometricPrecision; font-family:sans-serif; stroke-linejoin:round;">
      <line x1="191" x2="63" y1="213" style="clip-path:url(#clipPath42); fill:none;" y2="213" />
      <line x1="63" x2="63" y1="213" style="clip-path:url(#clipPath42); fill:none;" y2="63" />
    </g>
    <g transform="translate(348,248)" style="font-size:11; stroke-linecap:butt; text-rendering:geometricPrecision; font-family:sans-serif; stroke-linejoin:round;">
      <line x1="153" x2="153" y1="251" style="clip-path:url(#clipPath43); fill:none;" y2="63" />
      <line x1="153" x2="63" y1="63" style="clip-path:url(#clipPath43); fill:none;" y2="63" />
    </g>
    <g transform="translate(60,150)" style="font-size:11; stroke-linecap:butt; text-rendering:geometricPrecision; font-family:sans-serif; stroke-linejoin:round;">
      <line x1="63" x2="103" y1="133" style="clip-path:url(#clipPath44); fill:none;" y2="133" />
      <line x1="103" x2="103" y1="133" style="clip-path:url(#clipPath44); fill:none;" y2="63" />
    </g>
    <g transform="translate(-10,270)" style="font-size:11; stroke-linecap:butt; text-rendering:geometricPrecision; font-family:sans-serif; stroke-linejoin:round;">
      <line x1="63" x2="63" y1="121" style="clip-path:url(#clipPath45); fill:none;" y2="63" />
    </g>
    <g transform="translate(60,250)" style="font-size:11; stroke-linecap:butt; text-rendering:geometricPrecision; font-family:sans-serif; stroke-linejoin:round;">
      <line x1="261" x2="63" y1="63" style="clip-path:url(#clipPath46); fill:none;" y2="63" />
    </g>
    <g transform="translate(408,8)" style="font-size:11; stroke-linecap:butt; text-rendering:geometricPrecision; font-family:sans-serif; stroke-linejoin:round;">
      <line x1="63" x2="63" y1="103" style="clip-path:url(#clipPath47); fill:none;" y2="63" />
      <line x1="63" x2="143" y1="63" style="clip-path:url(#clipPath47); fill:none;" y2="63" />
    </g>
    <g transform="translate(140,110)" style="font-size:11; stroke-linecap:butt; text-rendering:geometricPrecision; font-family:sans-serif; stroke-linejoin:round;">
      <line x1="63" x2="131" y1="63" style="clip-path:url(#clipPath48); fill:none;" y2="63" />
    </g>
    <g transform="translate(290,110)" style="font-size:11; stroke-linecap:butt; text-rendering:geometricPrecision; font-family:sans-serif; stroke-linejoin:round;">
      <line x1="141" x2="63" y1="63" style="clip-path:url(#clipPath49); fill:none;" y2="63" />
    </g>
    <g style="text-rendering:geometricPrecision; font-size:11; font-family:sans-serif;" transform="translate(402,152)">
      <text x="17" y="15" style="clip-path:url(#clipPath50); stroke:none;" xml:space="preserve">1</text>
    </g>
    <g style="text-rendering:geometricPrecision; font-size:11; font-family:sans-serif;" transform="translate(342,152)">
      <text x="11" y="15" style="clip-path:url(#clipPath50); stroke:none;" xml:space="preserve">1..*</text>
    </g>
    <g style="text-rendering:geometricPrecision; font-size:11; font-family:sans-serif;" transform="translate(232,152)">
      <text x="11" y="15" style="clip-path:url(#clipPath50); stroke:none;" xml:space="preserve">0..*</text>
    </g>
    <g style="text-rendering:geometricPrecision; font-size:11; font-family:sans-serif;" transform="translate(192,152)">
      <text x="17" y="15" style="clip-path:url(#clipPath50); stroke:none;" xml:space="preserve">1</text>
    </g>
    <g style="text-rendering:geometricPrecision; font-size:11; font-family:sans-serif;" transform="translate(432,92)">
      <text x="17" y="15" style="clip-path:url(#clipPath50); stroke:none;" xml:space="preserve">1</text>
    </g>
    <g style="text-rendering:geometricPrecision; font-size:11; font-family:sans-serif;" transform="translate(512,72)">
      <text x="11" y="15" style="clip-path:url(#clipPath50); stroke:none;" xml:space="preserve">0..*</text>
    </g>
    <g style="text-rendering:geometricPrecision; font-size:11; font-family:sans-serif;" transform="translate(712,142)">
      <text x="11" y="15" style="clip-path:url(#clipPath50); stroke:none;" xml:space="preserve">0..*</text>
    </g>
    <g style="text-rendering:geometricPrecision; font-size:11; font-family:sans-serif;" transform="translate(522,152)">
      <text x="17" y="15" style="clip-path:url(#clipPath50); stroke:none;" xml:space="preserve">1</text>
    </g>
    <g style="text-rendering:geometricPrecision; font-size:11; font-family:sans-serif;" transform="translate(532,562)">
      <text x="17" y="15" style="clip-path:url(#clipPath50); stroke:none;" xml:space="preserve">1</text>
    </g>
    <g style="text-rendering:geometricPrecision; font-size:11; font-family:sans-serif;" transform="translate(602,322)">
      <text x="17" y="15" style="clip-path:url(#clipPath50); stroke:none;" xml:space="preserve">1</text>
    </g>
    <g style="text-rendering:geometricPrecision; font-size:11; font-family:sans-serif;" transform="translate(52,472)">
      <text x="11" y="15" style="clip-path:url(#clipPath50); stroke:none;" xml:space="preserve">0..*</text>
    </g>
    <g style="text-rendering:geometricPrecision; font-size:11; font-family:sans-serif;" transform="translate(42,532)">
      <text x="17" y="15" style="clip-path:url(#clipPath50); stroke:none;" xml:space="preserve">1</text>
    </g>
    <g style="text-rendering:geometricPrecision; font-size:11; font-family:sans-serif;" transform="translate(82,162)">
      <text x="17" y="15" style="clip-path:url(#clipPath50); stroke:none;" xml:space="preserve">1</text>
    </g>
    <g style="text-rendering:geometricPrecision; font-size:11; font-family:sans-serif;" transform="translate(162,102)">
      <text x="11" y="15" style="clip-path:url(#clipPath50); stroke:none;" xml:space="preserve">0..*</text>
    </g>
    <g style="text-rendering:geometricPrecision; font-size:11; font-family:sans-serif;" transform="translate(152,212)">
      <text x="17" y="15" style="clip-path:url(#clipPath50); stroke:none;" xml:space="preserve">1</text>
    </g>
    <g style="text-rendering:geometricPrecision; font-size:11; font-family:sans-serif;" transform="translate(122,262)">
      <text x="11" y="15" style="clip-path:url(#clipPath50); stroke:none;" xml:space="preserve">0..*</text>
    </g>
    <g style="text-rendering:geometricPrecision; font-size:11; font-family:sans-serif;" transform="translate(652,322)">
      <text x="17" y="15" style="clip-path:url(#clipPath50); stroke:none;" xml:space="preserve">1</text>
    </g>
    <g style="text-rendering:geometricPrecision; font-size:11; font-family:sans-serif;" transform="translate(752,452)">
      <text x="11" y="15" style="clip-path:url(#clipPath50); stroke:none;" xml:space="preserve">0..*</text>
    </g>
    <g style="text-rendering:geometricPrecision; font-size:11; font-family:sans-serif;" transform="translate(792,232)">
      <text x="17" y="15" style="clip-path:url(#clipPath50); stroke:none;" xml:space="preserve">1</text>
    </g>
    <g style="text-rendering:geometricPrecision; font-size:11; font-family:sans-serif;" transform="translate(702,262)">
      <text x="17" y="15" style="clip-path:url(#clipPath50); stroke:none;" xml:space="preserve">1</text>
    </g>
    <g style="text-rendering:geometricPrecision; font-size:11; font-family:sans-serif;" transform="translate(462,232)">
      <text x="11" y="15" style="clip-path:url(#clipPath50); stroke:none;" xml:space="preserve">0..*</text>
    </g>
    <g style="text-rendering:geometricPrecision; font-size:11; font-family:sans-serif;" transform="translate(542,242)">
      <text x="17" y="15" style="clip-path:url(#clipPath50); stroke:none;" xml:space="preserve">1</text>
    </g>
    <g style="text-rendering:geometricPrecision; font-size:11; font-family:sans-serif;" transform="translate(42,332)">
      <text x="17" y="15" style="clip-path:url(#clipPath50); stroke:none;" xml:space="preserve">1</text>
    </g>
    <g style="text-rendering:geometricPrecision; font-size:11; font-family:sans-serif;" transform="translate(42,372)">
      <text x="11" y="15" style="clip-path:url(#clipPath50); stroke:none;" xml:space="preserve">0..*</text>
    </g>
    <g style="text-rendering:geometricPrecision; font-size:11; font-family:sans-serif;" transform="translate(712,192)">
      <text x="17" y="15" style="clip-path:url(#clipPath50); stroke:none;" xml:space="preserve">1</text>
    </g>
    <g style="text-rendering:geometricPrecision; font-size:11; font-family:sans-serif;" transform="translate(522,192)">
      <text x="17" y="15" style="clip-path:url(#clipPath50); stroke:none;" xml:space="preserve">1</text>
    </g>
    <g style="text-rendering:geometricPrecision; font-size:11; font-family:sans-serif;" transform="translate(412,562)">
      <text x="11" y="15" style="clip-path:url(#clipPath50); stroke:none;" xml:space="preserve">0..*</text>
    </g>
    <g style="text-rendering:geometricPrecision; font-size:11; font-family:sans-serif;" transform="translate(112,562)">
      <text x="17" y="15" style="clip-path:url(#clipPath50); stroke:none;" xml:space="preserve">1</text>
    </g>
    <g style="text-rendering:geometricPrecision; font-size:11; font-family:sans-serif;" transform="translate(902,452)">
      <text x="11" y="15" style="clip-path:url(#clipPath50); stroke:none;" xml:space="preserve">0..*</text>
    </g>
    <g style="text-rendering:geometricPrecision; font-size:11; font-family:sans-serif;" transform="translate(962,452)">
      <text x="17" y="15" style="clip-path:url(#clipPath50); stroke:none;" xml:space="preserve">1</text>
    </g>
    <g style="text-rendering:geometricPrecision; font-size:11; font-family:sans-serif;" transform="translate(122,312)">
      <text x="11" y="15" style="clip-path:url(#clipPath50); stroke:none;" xml:space="preserve">0..*</text>
    </g>
    <g style="text-rendering:geometricPrecision; font-size:11; font-family:sans-serif;" transform="translate(282,312)">
      <text x="17" y="15" style="clip-path:url(#clipPath50); stroke:none;" xml:space="preserve">1</text>
    </g>
    <g style="text-rendering:geometricPrecision; font-size:11; font-family:sans-serif;" transform="translate(412,312)">
      <text x="17" y="15" style="clip-path:url(#clipPath50); stroke:none;" xml:space="preserve">1</text>
    </g>
    <g style="text-rendering:geometricPrecision; font-size:11; font-family:sans-serif;" transform="translate(492,482)">
      <text x="11" y="15" style="clip-path:url(#clipPath50); stroke:none;" xml:space="preserve">0..*</text>
    </g>
   
  </g>
</svg>
