<?xml version="1.0" encoding="UTF-8"?>

<!DOCTYPE svg PUBLIC '-//W3C//DTD SVG 1.0//EN' 'http://www.w3.org/TR/2001/REC-SVG-20010904/DTD/svg10.dtd'>
<svg style="fill-opacity:1; color-rendering:auto; color-interpolation:auto; stroke:black; text-rendering:auto; stroke-linecap:square; stroke-miterlimit:10; stroke-opacity:1; shape-rendering:auto; fill:black; stroke-dasharray:none; font-weight:normal; stroke-width:1; font-family:&apos;Dialog&apos;; font-style:normal; stroke-linejoin:miter; font-size:12; stroke-dashoffset:0; image-rendering:auto;" xmlns="http://www.w3.org/2000/svg" width="676" xmlns:xlink="http://www.w3.org/1999/xlink" height="526">
  <!--Generated by the Batik Graphics2D SVG Generator-->
  <defs id="genericDefs" />
  <g>
    <defs id="defs1">
      <clipPath clipPathUnits="userSpaceOnUse" id="clipPath1">
        <path d="M-3 -3 L677 -3 L677 527 L-3 527 L-3 -3 Z" />
      </clipPath>
      <clipPath clipPathUnits="userSpaceOnUse" id="clipPath2">
        <path d="M0 0 L0 510 L7 510 L7 0 Z" />
      </clipPath>
      <clipPath clipPathUnits="userSpaceOnUse" id="clipPath3">
        <path d="M-3 -3 L337 -3 L337 24 L-3 24 L-3 -3 Z" />
      </clipPath>
      <clipPath clipPathUnits="userSpaceOnUse" id="clipPath4">
        <path d="M0 0 L330 0 L330 17 L0 17 L0 0 Z" />
      </clipPath>
      <clipPath clipPathUnits="userSpaceOnUse" id="clipPath5">
        <path d="M-3 -3 L337 -3 L337 509 L-3 509 L-3 -3 Z" />
      </clipPath>
      <clipPath clipPathUnits="userSpaceOnUse" id="clipPath6">
        <path d="M-3 -3 L347 -3 L347 24 L-3 24 L-3 -3 Z" />
      </clipPath>
      <clipPath clipPathUnits="userSpaceOnUse" id="clipPath7">
        <path d="M0 0 L340 0 L340 17 L0 17 L0 0 Z" />
      </clipPath>
      <clipPath clipPathUnits="userSpaceOnUse" id="clipPath8">
        <path d="M-3 -3 L347 -3 L347 509 L-3 509 L-3 -3 Z" />
      </clipPath>
      <clipPath clipPathUnits="userSpaceOnUse" id="clipPath9">
        <path d="M-3 -3 L47 -3 L47 27 L-3 27 L-3 -3 Z" />
      </clipPath>
      <clipPath clipPathUnits="userSpaceOnUse" id="clipPath10">
        <path d="M-3 -3 L137 -3 L137 47 L-3 47 L-3 -3 Z" />
      </clipPath>
      <clipPath clipPathUnits="userSpaceOnUse" id="clipPath11">
        <path d="M0 0 L130 0 L130 40 L0 40 L0 0 Z" />
      </clipPath>
      <clipPath clipPathUnits="userSpaceOnUse" id="clipPath12">
        <path d="M-3 -3 L87 -3 L87 47 L-3 47 L-3 -3 Z" />
      </clipPath>
      <clipPath clipPathUnits="userSpaceOnUse" id="clipPath13">
        <path d="M0 0 L80 0 L80 40 L0 40 L0 0 Z" />
      </clipPath>
      <clipPath clipPathUnits="userSpaceOnUse" id="clipPath14">
        <path d="M-3 -3 L127 -3 L127 47 L-3 47 L-3 -3 Z" />
      </clipPath>
      <clipPath clipPathUnits="userSpaceOnUse" id="clipPath15">
        <path d="M0 0 L120 0 L120 40 L0 40 L0 0 Z" />
      </clipPath>
      <clipPath clipPathUnits="userSpaceOnUse" id="clipPath16">
        <path d="M-3 -3 L28 -3 L28 47 L-3 47 L-3 -3 Z" />
      </clipPath>
      <clipPath clipPathUnits="userSpaceOnUse" id="clipPath17">
        <path d="M-3 -3 L117 -3 L117 47 L-3 47 L-3 -3 Z" />
      </clipPath>
      <clipPath clipPathUnits="userSpaceOnUse" id="clipPath18">
        <path d="M0 0 L110 0 L110 40 L0 40 L0 0 Z" />
      </clipPath>
      <clipPath clipPathUnits="userSpaceOnUse" id="clipPath19">
        <path d="M-3 -3 L27 -3 L27 27 L-3 27 L-3 -3 Z" />
      </clipPath>
      <clipPath clipPathUnits="userSpaceOnUse" id="clipPath20">
        <path d="M-3 -3 L27 -3 L27 47 L-3 47 L-3 -3 Z" />
      </clipPath>
      <clipPath clipPathUnits="userSpaceOnUse" id="clipPath21">
        <path d="M-3 -3 L67 -3 L67 47 L-3 47 L-3 -3 Z" />
      </clipPath>
      <clipPath clipPathUnits="userSpaceOnUse" id="clipPath22">
        <path d="M0 0 L60 0 L60 40 L0 40 L0 0 Z" />
      </clipPath>
      <clipPath clipPathUnits="userSpaceOnUse" id="clipPath23">
        <path d="M-3 -3 L97 -3 L97 47 L-3 47 L-3 -3 Z" />
      </clipPath>
      <clipPath clipPathUnits="userSpaceOnUse" id="clipPath24">
        <path d="M0 0 L90 0 L90 40 L0 40 L0 0 Z" />
      </clipPath>
      <clipPath clipPathUnits="userSpaceOnUse" id="clipPath25">
        <path d="M0 0 L340 0 L340 502 L0 502 L0 0 Z" />
      </clipPath>
      <clipPath clipPathUnits="userSpaceOnUse" id="clipPath26">
        <path d="M0 0 L330 0 L330 502 L0 502 L0 0 Z" />
      </clipPath>
      <clipPath clipPathUnits="userSpaceOnUse" id="clipPath27">
        <path d="M0 0 L125 0 L125 94 L0 94 L0 0 Z" />
      </clipPath>
      <clipPath clipPathUnits="userSpaceOnUse" id="clipPath28">
        <path d="M0 0 L274 0 L274 94 L0 94 L0 0 Z" />
      </clipPath>
      <clipPath clipPathUnits="userSpaceOnUse" id="clipPath29">
        <path d="M0 0 L334 0 L334 154 L0 154 L0 0 Z" />
      </clipPath>
      <clipPath clipPathUnits="userSpaceOnUse" id="clipPath30">
        <path d="M0 0 L94 0 L94 124 L0 124 L0 0 Z" />
      </clipPath>
      <clipPath clipPathUnits="userSpaceOnUse" id="clipPath31">
        <path d="M0 0 L94 0 L94 123 L0 123 L0 0 Z" />
      </clipPath>
      <clipPath clipPathUnits="userSpaceOnUse" id="clipPath32">
        <path d="M0 0 L94 0 L94 115 L0 115 L0 0 Z" />
      </clipPath>
      <clipPath clipPathUnits="userSpaceOnUse" id="clipPath33">
        <path d="M0 0 L94 0 L94 202 L0 202 L0 0 Z" />
      </clipPath>
      <clipPath clipPathUnits="userSpaceOnUse" id="clipPath34">
        <path d="M0 0 L336 0 L336 94 L0 94 L0 0 Z" />
      </clipPath>
      <clipPath clipPathUnits="userSpaceOnUse" id="clipPath35">
        <path d="M0 0 L167 0 L167 94 L0 94 L0 0 Z" />
      </clipPath>
      <clipPath clipPathUnits="userSpaceOnUse" id="clipPath36">
        <path d="M0 0 L404 0 L404 94 L0 94 L0 0 Z" />
      </clipPath>
      <clipPath clipPathUnits="userSpaceOnUse" id="clipPath37">
        <path d="M0 0 L94 0 L94 193 L0 193 L0 0 Z" />
      </clipPath>
      <clipPath clipPathUnits="userSpaceOnUse" id="clipPath38">
        <path d="M0 0 L294 0 L294 94 L0 94 L0 0 Z" />
      </clipPath>
      <clipPath clipPathUnits="userSpaceOnUse" id="clipPath39">
        <path d="M0 0 L94 0 L94 114 L0 114 L0 0 Z" />
      </clipPath>
      <clipPath clipPathUnits="userSpaceOnUse" id="clipPath40">
        <path d="M0 0 L70 0 L70 17 L0 17 L0 0 Z" />
      </clipPath>
      <clipPath clipPathUnits="userSpaceOnUse" id="clipPath41">
        <path d="M0 0 L48 0 L48 17 L0 17 L0 0 Z" />
      </clipPath>
    </defs>
    <g style="fill:white; text-rendering:geometricPrecision; stroke:white;">
      <rect x="0" y="0" width="676" style="stroke:none;" height="526" />
    </g>
    <g transform="translate(2,2)" style="text-rendering:geometricPrecision; stroke-width:2; font-size:11; font-family:sans-serif;">
      <rect x="0" y="0" width="330" style="clip-path:url(#clipPath3); fill:none;" height="17" />
    </g>
    <g style="text-rendering:geometricPrecision; font-size:11; font-family:sans-serif;" transform="translate(2,2)">
      <text x="148" y="14" style="clip-path:url(#clipPath4); stroke:none;" xml:space="preserve">使用者</text>
    </g>
    <g transform="translate(2,19)" style="text-rendering:geometricPrecision; stroke-width:2; font-size:11; font-family:sans-serif;">
      <rect x="0" y="0" width="330" style="clip-path:url(#clipPath5); fill:none;" height="502" />
    </g>
    <g transform="translate(332,2)" style="text-rendering:geometricPrecision; stroke-width:2; font-size:11; font-family:sans-serif;">
      <rect x="0" y="0" width="340" style="clip-path:url(#clipPath6); fill:none;" height="17" />
    </g>
    <g style="text-rendering:geometricPrecision; font-size:11; font-family:sans-serif;" transform="translate(332,2)">
      <text x="153" y="14" style="clip-path:url(#clipPath7); stroke:none;" xml:space="preserve">伺服器</text>
    </g>
    <g transform="translate(332,19)" style="text-rendering:geometricPrecision; stroke-width:2; font-size:11; font-family:sans-serif;">
      <rect x="0" y="0" width="340" style="clip-path:url(#clipPath8); fill:none;" height="502" />
    </g>
    <g style="text-rendering:geometricPrecision; font-size:11; font-family:sans-serif;" transform="translate(32,42)">
      <circle style="clip-path:url(#clipPath9); stroke:none;" r="10" cx="20" cy="10" />
    </g>
    <g transform="translate(92,32)" style="font-size:11; fill:rgb(122,207,245); text-rendering:geometricPrecision; font-family:sans-serif; stroke:rgb(122,207,245);">
      <rect x="1" y="1" width="128" style="clip-path:url(#clipPath10); stroke:none;" rx="15" ry="15" height="38" />
    </g>
    <g transform="translate(92,32)" style="font-size:11; stroke-linecap:butt; text-rendering:geometricPrecision; font-family:sans-serif; stroke-linejoin:round; stroke-miterlimit:0;">
      <rect x="1" y="1" width="128" style="clip-path:url(#clipPath10); fill:none;" rx="15" ry="15" height="38" />
    </g>
    <g style="text-rendering:geometricPrecision; font-size:11; font-family:sans-serif;" transform="translate(92,32)">
      <text x="10" y="25" style="clip-path:url(#clipPath11); stroke:none;" xml:space="preserve">打開個人資料編輯頁面</text>
    </g>
    <g transform="translate(402,32)" style="font-size:11; fill:rgb(122,207,245); text-rendering:geometricPrecision; font-family:sans-serif; stroke:rgb(122,207,245);">
      <rect x="1" y="1" width="78" style="clip-path:url(#clipPath12); stroke:none;" rx="15" ry="15" height="38" />
    </g>
    <g transform="translate(402,32)" style="font-size:11; stroke-linecap:butt; text-rendering:geometricPrecision; font-family:sans-serif; stroke-linejoin:round; stroke-miterlimit:0;">
      <rect x="1" y="1" width="78" style="clip-path:url(#clipPath12); fill:none;" rx="15" ry="15" height="38" />
    </g>
    <g style="text-rendering:geometricPrecision; font-size:11; font-family:sans-serif;" transform="translate(402,32)">
      <text x="7" y="25" style="clip-path:url(#clipPath13); stroke:none;" xml:space="preserve">查詢個人資料</text>
    </g>
    <g transform="translate(92,102)" style="font-size:11; fill:rgb(122,207,245); text-rendering:geometricPrecision; font-family:sans-serif; stroke:rgb(122,207,245);">
      <rect x="1" y="1" width="118" style="clip-path:url(#clipPath14); stroke:none;" rx="15" ry="15" height="38" />
    </g>
    <g transform="translate(92,102)" style="font-size:11; stroke-linecap:butt; text-rendering:geometricPrecision; font-family:sans-serif; stroke-linejoin:round; stroke-miterlimit:0;">
      <rect x="1" y="1" width="118" style="clip-path:url(#clipPath14); fill:none;" rx="15" ry="15" height="38" />
    </g>
    <g style="text-rendering:geometricPrecision; font-size:11; font-family:sans-serif;" transform="translate(92,102)">
      <text x="27" y="25" style="clip-path:url(#clipPath15); stroke:none;" xml:space="preserve">顯示個人資料</text>
    </g>
    <g transform="translate(92,172)" style="font-size:11; fill:rgb(122,207,245); text-rendering:geometricPrecision; font-family:sans-serif; stroke:rgb(122,207,245);">
      <rect x="1" y="1" width="128" style="clip-path:url(#clipPath10); stroke:none;" rx="15" ry="15" height="38" />
    </g>
    <g transform="translate(92,172)" style="font-size:11; stroke-linecap:butt; text-rendering:geometricPrecision; font-family:sans-serif; stroke-linejoin:round; stroke-miterlimit:0;">
      <rect x="1" y="1" width="128" style="clip-path:url(#clipPath10); fill:none;" rx="15" ry="15" height="38" />
    </g>
    <g style="text-rendering:geometricPrecision; font-size:11; font-family:sans-serif;" transform="translate(92,172)">
      <text x="10" y="25" style="clip-path:url(#clipPath11); stroke:none;" xml:space="preserve">修改欲修改之個人資訊</text>
    </g>
    <g transform="translate(142,232)" style="font-size:11; fill:rgb(122,207,245); text-rendering:geometricPrecision; font-family:sans-serif; stroke:rgb(122,207,245);">
      <polygon style="clip-path:url(#clipPath16); stroke:none;" points=" 10 7 18 20 10 32 3 20" />
    </g>
    <g transform="translate(142,232)" style="font-size:11; stroke-linecap:butt; text-rendering:geometricPrecision; font-family:sans-serif; stroke-linejoin:round; stroke-miterlimit:0;">
      <polygon style="fill:none; clip-path:url(#clipPath16);" points=" 10 7 18 20 10 32 3 20" />
    </g>
    <g transform="translate(92,422)" style="font-size:11; fill:rgb(122,207,245); text-rendering:geometricPrecision; font-family:sans-serif; stroke:rgb(122,207,245);">
      <rect x="1" y="1" width="108" style="clip-path:url(#clipPath17); stroke:none;" rx="15" ry="15" height="38" />
    </g>
    <g transform="translate(92,422)" style="font-size:11; stroke-linecap:butt; text-rendering:geometricPrecision; font-family:sans-serif; stroke-linejoin:round; stroke-miterlimit:0;">
      <rect x="1" y="1" width="108" style="clip-path:url(#clipPath17); fill:none;" rx="15" ry="15" height="38" />
    </g>
    <g style="text-rendering:geometricPrecision; font-size:11; font-family:sans-serif;" transform="translate(92,422)">
      <text x="11" y="25" style="clip-path:url(#clipPath18); stroke:none;" xml:space="preserve">返回個人資料頁面</text>
    </g>
    <g style="text-rendering:geometricPrecision; font-size:11; font-family:sans-serif;" transform="translate(142,482)">
      <circle style="clip-path:url(#clipPath19); stroke:none;" r="6.6667" cx="10" cy="10" />
      <circle style="stroke-linecap:butt; clip-path:url(#clipPath19); fill:none; stroke-linejoin:round; stroke-miterlimit:0;" r="10" cx="10" cy="10" />
    </g>
    <g transform="translate(402,232)" style="font-size:11; fill:rgb(122,207,245); text-rendering:geometricPrecision; font-family:sans-serif; stroke:rgb(122,207,245);">
      <rect x="1" y="1" width="78" style="clip-path:url(#clipPath12); stroke:none;" rx="15" ry="15" height="38" />
    </g>
    <g transform="translate(402,232)" style="font-size:11; stroke-linecap:butt; text-rendering:geometricPrecision; font-family:sans-serif; stroke-linejoin:round; stroke-miterlimit:0;">
      <rect x="1" y="1" width="78" style="clip-path:url(#clipPath12); fill:none;" rx="15" ry="15" height="38" />
    </g>
    <g style="text-rendering:geometricPrecision; font-size:11; font-family:sans-serif;" transform="translate(402,232)">
      <text x="7" y="25" style="clip-path:url(#clipPath13); stroke:none;" xml:space="preserve">驗證輸入資訊</text>
    </g>
    <g transform="translate(552,232)" style="font-size:11; fill:rgb(122,207,245); text-rendering:geometricPrecision; font-family:sans-serif; stroke:rgb(122,207,245);">
      <polygon style="clip-path:url(#clipPath20); stroke:none;" points=" 10 7 17 20 10 32 3 20" />
    </g>
    <g transform="translate(552,232)" style="font-size:11; stroke-linecap:butt; text-rendering:geometricPrecision; font-family:sans-serif; stroke-linejoin:round; stroke-miterlimit:0;">
      <polygon style="fill:none; clip-path:url(#clipPath20);" points=" 10 7 17 20 10 32 3 20" />
    </g>
    <g transform="translate(532,172)" style="font-size:11; fill:rgb(122,207,245); text-rendering:geometricPrecision; font-family:sans-serif; stroke:rgb(122,207,245);">
      <rect x="1" y="1" width="58" style="clip-path:url(#clipPath21); stroke:none;" rx="15" ry="15" height="38" />
    </g>
    <g transform="translate(532,172)" style="font-size:11; stroke-linecap:butt; text-rendering:geometricPrecision; font-family:sans-serif; stroke-linejoin:round; stroke-miterlimit:0;">
      <rect x="1" y="1" width="58" style="clip-path:url(#clipPath21); fill:none;" rx="15" ry="15" height="38" />
    </g>
    <g style="text-rendering:geometricPrecision; font-size:11; font-family:sans-serif;" transform="translate(532,172)">
      <text x="8" y="25" style="clip-path:url(#clipPath22); stroke:none;" xml:space="preserve">驗證失敗</text>
    </g>
    <g transform="translate(512,362)" style="font-size:11; fill:rgb(122,207,245); text-rendering:geometricPrecision; font-family:sans-serif; stroke:rgb(122,207,245);">
      <rect x="1" y="1" width="88" style="clip-path:url(#clipPath23); stroke:none;" rx="15" ry="15" height="38" />
    </g>
    <g transform="translate(512,362)" style="font-size:11; stroke-linecap:butt; text-rendering:geometricPrecision; font-family:sans-serif; stroke-linejoin:round; stroke-miterlimit:0;">
      <rect x="1" y="1" width="88" style="clip-path:url(#clipPath23); fill:none;" rx="15" ry="15" height="38" />
    </g>
    <g style="text-rendering:geometricPrecision; font-size:11; font-family:sans-serif;" transform="translate(512,362)">
      <text x="12" y="25" style="clip-path:url(#clipPath24); stroke:none;" xml:space="preserve">修改個人資訊</text>
    </g>
    <g transform="translate(142,362)" style="font-size:11; fill:rgb(122,207,245); text-rendering:geometricPrecision; font-family:sans-serif; stroke:rgb(122,207,245);">
      <polygon style="clip-path:url(#clipPath20); stroke:none;" points=" 10 7 17 20 10 32 3 20" />
    </g>
    <g transform="translate(142,362)" style="font-size:11; stroke-linecap:butt; text-rendering:geometricPrecision; font-family:sans-serif; stroke-linejoin:round; stroke-miterlimit:0;">
      <polygon style="fill:none; clip-path:url(#clipPath20);" points=" 10 7 17 20 10 32 3 20" />
    </g>
    <g transform="translate(232,362)" style="font-size:11; fill:rgb(122,207,245); text-rendering:geometricPrecision; font-family:sans-serif; stroke:rgb(122,207,245);">
      <rect x="1" y="1" width="78" style="clip-path:url(#clipPath12); stroke:none;" rx="15" ry="15" height="38" />
    </g>
    <g transform="translate(232,362)" style="font-size:11; stroke-linecap:butt; text-rendering:geometricPrecision; font-family:sans-serif; stroke-linejoin:round; stroke-miterlimit:0;">
      <rect x="1" y="1" width="78" style="clip-path:url(#clipPath12); fill:none;" rx="15" ry="15" height="38" />
    </g>
    <g style="text-rendering:geometricPrecision; font-size:11; font-family:sans-serif;" transform="translate(232,362)">
      <text x="18" y="25" style="clip-path:url(#clipPath13); stroke:none;" xml:space="preserve">修改成功</text>
    </g>
    <g transform="translate(382,292)" style="font-size:11; fill:rgb(122,207,245); text-rendering:geometricPrecision; font-family:sans-serif; stroke:rgb(122,207,245);">
      <polygon style="clip-path:url(#clipPath10); stroke:none;" points=" 0 0 114 0 129 15 114 15 114 0 129 15 129 39 0 39" />
    </g>
    <g transform="translate(382,292)" style="font-size:11; stroke-linecap:butt; text-rendering:geometricPrecision; font-family:sans-serif; stroke-linejoin:round; stroke-miterlimit:0;">
      <polygon style="fill:none; clip-path:url(#clipPath10);" points=" 0 0 114 0 129 15 114 15 114 0 129 15 129 39 0 39" />
    </g>
    <g style="text-rendering:geometricPrecision; font-size:11; font-family:sans-serif;" transform="translate(382,292)">
      <text x="26" y="17" style="clip-path:url(#clipPath11); stroke:none;" xml:space="preserve">1. 欄位是否填寫</text>
      <text x="15" y="34" style="clip-path:url(#clipPath11); stroke:none;" xml:space="preserve">2. 資訊格式是否正確</text>
    </g>
    <g transform="translate(15,6)" style="font-size:11; stroke-linecap:butt; text-rendering:geometricPrecision; font-family:sans-serif; stroke-linejoin:round;">
      <line x1="46" x2="77" y1="46" style="clip-path:url(#clipPath27); fill:none;" y2="46" />
      <line x1="77" x2="65" y1="46" style="clip-path:url(#clipPath27); fill:none;" y2="40" />
      <line x1="77" x2="65" y1="46" style="clip-path:url(#clipPath27); fill:none;" y2="52" />
    </g>
    <g transform="translate(176,6)" style="font-size:11; stroke-linecap:butt; text-rendering:geometricPrecision; font-family:sans-serif; stroke-linejoin:round;">
      <line x1="45" x2="225" y1="46" style="clip-path:url(#clipPath28); fill:none;" y2="46" />
      <line x1="225" x2="213" y1="46" style="clip-path:url(#clipPath28); fill:none;" y2="40" />
      <line x1="225" x2="213" y1="46" style="clip-path:url(#clipPath28); fill:none;" y2="52" />
    </g>
    <g transform="translate(166,26)" style="font-size:11; stroke-linecap:butt; text-rendering:geometricPrecision; font-family:sans-serif; stroke-linejoin:round;">
      <line x1="286" x2="286" y1="46" style="clip-path:url(#clipPath29); fill:none;" y2="106" />
      <line x1="286" x2="45" y1="106" style="clip-path:url(#clipPath29); fill:none;" y2="106" />
      <line x1="45" x2="57" y1="106" style="clip-path:url(#clipPath29); fill:none;" y2="112" />
      <line x1="45" x2="57" y1="106" style="clip-path:url(#clipPath29); fill:none;" y2="100" />
    </g>
    <g transform="translate(106,96)" style="font-size:11; stroke-linecap:butt; text-rendering:geometricPrecision; font-family:sans-serif; stroke-linejoin:round;">
      <line x1="45" x2="45" y1="46" style="clip-path:url(#clipPath30); fill:none;" y2="76" />
      <line x1="45" x2="51" y1="76" style="clip-path:url(#clipPath30); fill:none;" y2="64" />
      <line x1="45" x2="39" y1="76" style="clip-path:url(#clipPath30); fill:none;" y2="64" />
    </g>
    <g transform="translate(106,166)" style="font-size:11; stroke-linecap:butt; text-rendering:geometricPrecision; font-family:sans-serif; stroke-linejoin:round;">
      <line x1="45" x2="45" y1="46" style="clip-path:url(#clipPath31); fill:none;" y2="74" />
      <line x1="45" x2="51" y1="74" style="clip-path:url(#clipPath31); fill:none;" y2="62" />
      <line x1="45" x2="39" y1="74" style="clip-path:url(#clipPath31); fill:none;" y2="62" />
    </g>
    <g transform="translate(106,416)" style="font-size:11; stroke-linecap:butt; text-rendering:geometricPrecision; font-family:sans-serif; stroke-linejoin:round;">
      <line x1="45" x2="45" y1="45" style="clip-path:url(#clipPath32); fill:none;" y2="66" />
      <line x1="45" x2="51" y1="66" style="clip-path:url(#clipPath32); fill:none;" y2="54" />
      <line x1="45" x2="39" y1="66" style="clip-path:url(#clipPath32); fill:none;" y2="54" />
    </g>
    <g transform="translate(106,218)" style="font-size:11; stroke-linecap:butt; text-rendering:geometricPrecision; font-family:sans-serif; stroke-linejoin:round;">
      <line x1="45" x2="45" y1="45" style="clip-path:url(#clipPath33); fill:none;" y2="153" />
      <line x1="45" x2="51" y1="153" style="clip-path:url(#clipPath33); fill:none;" y2="141" />
      <line x1="45" x2="39" y1="153" style="clip-path:url(#clipPath33); fill:none;" y2="141" />
    </g>
    <g transform="translate(114,206)" style="font-size:11; stroke-linecap:butt; text-rendering:geometricPrecision; font-family:sans-serif; stroke-linejoin:round;">
      <line x1="46" x2="288" y1="46" style="clip-path:url(#clipPath34); fill:none;" y2="46" />
      <line x1="288" x2="276" y1="46" style="clip-path:url(#clipPath34); fill:none;" y2="40" />
      <line x1="288" x2="276" y1="46" style="clip-path:url(#clipPath34); fill:none;" y2="52" />
    </g>
    <g transform="translate(436,206)" style="font-size:11; stroke-linecap:butt; text-rendering:geometricPrecision; font-family:sans-serif; stroke-linejoin:round;">
      <line x1="46" x2="118" y1="46" style="clip-path:url(#clipPath35); fill:none;" y2="46" />
      <line x1="118" x2="106" y1="46" style="clip-path:url(#clipPath35); fill:none;" y2="40" />
      <line x1="118" x2="106" y1="46" style="clip-path:url(#clipPath35); fill:none;" y2="52" />
    </g>
    <g transform="translate(516,166)" style="font-size:11; stroke-linecap:butt; text-rendering:geometricPrecision; font-family:sans-serif; stroke-linejoin:round;">
      <line x1="46" x2="46" y1="74" style="clip-path:url(#clipPath31); fill:none;" y2="46" />
      <line x1="46" x2="40" y1="46" style="clip-path:url(#clipPath31); fill:none;" y2="58" />
      <line x1="46" x2="52" y1="46" style="clip-path:url(#clipPath31); fill:none;" y2="58" />
    </g>
    <g transform="translate(176,146)" style="font-size:11; stroke-linecap:butt; text-rendering:geometricPrecision; font-family:sans-serif; stroke-linejoin:round;">
      <line x1="356" x2="45" y1="46" style="clip-path:url(#clipPath36); fill:none;" y2="46" />
      <line x1="45" x2="57" y1="46" style="clip-path:url(#clipPath36); fill:none;" y2="52" />
      <line x1="45" x2="57" y1="46" style="clip-path:url(#clipPath36); fill:none;" y2="40" />
    </g>
    <g transform="translate(516,218)" style="font-size:11; stroke-linecap:butt; text-rendering:geometricPrecision; font-family:sans-serif; stroke-linejoin:round;">
      <line x1="46" x2="46" y1="45" style="clip-path:url(#clipPath37); fill:none;" y2="144" />
      <line x1="46" x2="52" y1="144" style="clip-path:url(#clipPath37); fill:none;" y2="132" />
      <line x1="46" x2="40" y1="144" style="clip-path:url(#clipPath37); fill:none;" y2="132" />
    </g>
    <g transform="translate(106,347)" style="font-size:11; stroke-linecap:butt; text-rendering:geometricPrecision; font-family:sans-serif; stroke-linejoin:round;">
      <line x1="45" x2="45" y1="45" style="clip-path:url(#clipPath30); fill:none;" y2="75" />
      <line x1="45" x2="51" y1="75" style="clip-path:url(#clipPath30); fill:none;" y2="63" />
      <line x1="45" x2="39" y1="75" style="clip-path:url(#clipPath30); fill:none;" y2="63" />
    </g>
    <g transform="translate(266,336)" style="font-size:11; stroke-linecap:butt; text-rendering:geometricPrecision; font-family:sans-serif; stroke-linejoin:round;">
      <line x1="245" x2="45" y1="45" style="clip-path:url(#clipPath38); fill:none;" y2="45" />
      <line x1="45" x2="57" y1="45" style="clip-path:url(#clipPath38); fill:none;" y2="51" />
      <line x1="45" x2="57" y1="45" style="clip-path:url(#clipPath38); fill:none;" y2="39" />
    </g>
    <g transform="translate(113,336)" style="font-size:11; stroke-linecap:butt; text-rendering:geometricPrecision; font-family:sans-serif; stroke-linejoin:round;">
      <line x1="118" x2="46" y1="45" style="clip-path:url(#clipPath35); fill:none;" y2="45" />
      <line x1="46" x2="58" y1="45" style="clip-path:url(#clipPath35); fill:none;" y2="51" />
      <line x1="46" x2="58" y1="45" style="clip-path:url(#clipPath35); fill:none;" y2="39" />
    </g>
    <g transform="translate(396,226)" style="font-size:11; stroke-linecap:butt; text-rendering:geometricPrecision; font-family:sans-serif; stroke-linejoin:round; stroke-dasharray:4;">
      <line x1="46" x2="46" y1="46" style="clip-path:url(#clipPath39); fill:none;" y2="65" />
    </g>
    <g style="text-rendering:geometricPrecision; font-size:11; font-family:sans-serif;" transform="translate(562,259)">
      <text x="10" y="14" style="clip-path:url(#clipPath40); stroke:none;" xml:space="preserve">[驗證成功]</text>
    </g>
    <g style="text-rendering:geometricPrecision; font-size:11; font-family:sans-serif;" transform="translate(562,222)">
      <text x="10" y="14" style="clip-path:url(#clipPath40); stroke:none;" xml:space="preserve">[驗證失敗]</text>
    </g>
    <g style="text-rendering:geometricPrecision; font-size:11; font-family:sans-serif;" transform="translate(167,232)">
      <text x="10" y="14" style="clip-path:url(#clipPath41); stroke:none;" xml:space="preserve">[確定]</text>
    </g>
    <g style="text-rendering:geometricPrecision; font-size:11; font-family:sans-serif;" transform="translate(102,257)">
      <text x="10" y="14" style="clip-path:url(#clipPath41); stroke:none;" xml:space="preserve">[取消]</text>
    </g>
    
  </g>
</svg>
