<?xml version="1.0" encoding="UTF-8"?>

<!DOCTYPE svg PUBLIC '-//W3C//DTD SVG 1.0//EN' 'http://www.w3.org/TR/2001/REC-SVG-20010904/DTD/svg10.dtd'>
<svg style="fill-opacity:1; color-rendering:auto; color-interpolation:auto; stroke:black; text-rendering:auto; stroke-linecap:square; stroke-miterlimit:10; stroke-opacity:1; shape-rendering:auto; fill:black; stroke-dasharray:none; font-weight:normal; stroke-width:1; font-family:&apos;Dialog&apos;; font-style:normal; stroke-linejoin:miter; font-size:12; stroke-dashoffset:0; image-rendering:auto;" xmlns="http://www.w3.org/2000/svg" width="726" xmlns:xlink="http://www.w3.org/1999/xlink" height="546">
  <!--Generated by the Batik Graphics2D SVG Generator-->
  <defs id="genericDefs" />
  <g>
    <defs id="defs1">
      <clipPath clipPathUnits="userSpaceOnUse" id="clipPath1">
        <path d="M-3 -3 L727 -3 L727 547 L-3 547 L-3 -3 Z" />
      </clipPath>
      <clipPath clipPathUnits="userSpaceOnUse" id="clipPath2">
        <path d="M0 0 L0 530 L7 530 L7 0 Z" />
      </clipPath>
      <clipPath clipPathUnits="userSpaceOnUse" id="clipPath3">
        <path d="M-3 -3 L410 -3 L410 24 L-3 24 L-3 -3 Z" />
      </clipPath>
      <clipPath clipPathUnits="userSpaceOnUse" id="clipPath4">
        <path d="M0 0 L403 0 L403 17 L0 17 L0 0 Z" />
      </clipPath>
      <clipPath clipPathUnits="userSpaceOnUse" id="clipPath5">
        <path d="M-3 -3 L410 -3 L410 529 L-3 529 L-3 -3 Z" />
      </clipPath>
      <clipPath clipPathUnits="userSpaceOnUse" id="clipPath6">
        <path d="M-3 -3 L323 -3 L323 24 L-3 24 L-3 -3 Z" />
      </clipPath>
      <clipPath clipPathUnits="userSpaceOnUse" id="clipPath7">
        <path d="M0 0 L316 0 L316 17 L0 17 L0 0 Z" />
      </clipPath>
      <clipPath clipPathUnits="userSpaceOnUse" id="clipPath8">
        <path d="M-3 -3 L323 -3 L323 529 L-3 529 L-3 -3 Z" />
      </clipPath>
      <clipPath clipPathUnits="userSpaceOnUse" id="clipPath9">
        <path d="M-3 -3 L47 -3 L47 27 L-3 27 L-3 -3 Z" />
      </clipPath>
      <clipPath clipPathUnits="userSpaceOnUse" id="clipPath10">
        <path d="M-3 -3 L97 -3 L97 47 L-3 47 L-3 -3 Z" />
      </clipPath>
      <clipPath clipPathUnits="userSpaceOnUse" id="clipPath11">
        <path d="M0 0 L90 0 L90 40 L0 40 L0 0 Z" />
      </clipPath>
      <clipPath clipPathUnits="userSpaceOnUse" id="clipPath12">
        <path d="M-3 -3 L27 -3 L27 47 L-3 47 L-3 -3 Z" />
      </clipPath>
      <clipPath clipPathUnits="userSpaceOnUse" id="clipPath13">
        <path d="M-3 -3 L107 -3 L107 47 L-3 47 L-3 -3 Z" />
      </clipPath>
      <clipPath clipPathUnits="userSpaceOnUse" id="clipPath14">
        <path d="M0 0 L100 0 L100 40 L0 40 L0 0 Z" />
      </clipPath>
      <clipPath clipPathUnits="userSpaceOnUse" id="clipPath15">
        <path d="M-3 -3 L67 -3 L67 47 L-3 47 L-3 -3 Z" />
      </clipPath>
      <clipPath clipPathUnits="userSpaceOnUse" id="clipPath16">
        <path d="M0 0 L60 0 L60 40 L0 40 L0 0 Z" />
      </clipPath>
      <clipPath clipPathUnits="userSpaceOnUse" id="clipPath17">
        <path d="M-3 -3 L87 -3 L87 47 L-3 47 L-3 -3 Z" />
      </clipPath>
      <clipPath clipPathUnits="userSpaceOnUse" id="clipPath18">
        <path d="M0 0 L80 0 L80 40 L0 40 L0 0 Z" />
      </clipPath>
      <clipPath clipPathUnits="userSpaceOnUse" id="clipPath19">
        <path d="M-3 -3 L27 -3 L27 27 L-3 27 L-3 -3 Z" />
      </clipPath>
      <clipPath clipPathUnits="userSpaceOnUse" id="clipPath20">
        <path d="M0 0 L316 0 L316 522 L0 522 L0 0 Z" />
      </clipPath>
      <clipPath clipPathUnits="userSpaceOnUse" id="clipPath21">
        <path d="M0 0 L403 0 L403 522 L0 522 L0 0 Z" />
      </clipPath>
      <clipPath clipPathUnits="userSpaceOnUse" id="clipPath22">
        <path d="M0 0 L179 0 L179 115 L0 115 L0 0 Z" />
      </clipPath>
      <clipPath clipPathUnits="userSpaceOnUse" id="clipPath23">
        <path d="M0 0 L117 0 L117 147 L0 147 L0 0 Z" />
      </clipPath>
      <clipPath clipPathUnits="userSpaceOnUse" id="clipPath24">
        <path d="M0 0 L115 0 L115 177 L0 177 L0 0 Z" />
      </clipPath>
      <clipPath clipPathUnits="userSpaceOnUse" id="clipPath25">
        <path d="M0 0 L228 0 L228 115 L0 115 L0 0 Z" />
      </clipPath>
      <clipPath clipPathUnits="userSpaceOnUse" id="clipPath26">
        <path d="M0 0 L115 0 L115 167 L0 167 L0 0 Z" />
      </clipPath>
      <clipPath clipPathUnits="userSpaceOnUse" id="clipPath27">
        <path d="M0 0 L115 0 L115 135 L0 135 L0 0 Z" />
      </clipPath>
      <clipPath clipPathUnits="userSpaceOnUse" id="clipPath28">
        <path d="M0 0 L220 0 L220 115 L0 115 L0 0 Z" />
      </clipPath>
      <clipPath clipPathUnits="userSpaceOnUse" id="clipPath29">
        <path d="M0 0 L430 0 L430 164 L0 164 L0 0 Z" />
      </clipPath>
      <clipPath clipPathUnits="userSpaceOnUse" id="clipPath30">
        <path d="M0 0 L169 0 L169 115 L0 115 L0 0 Z" />
      </clipPath>
      <clipPath clipPathUnits="userSpaceOnUse" id="clipPath31">
        <path d="M0 0 L115 0 L115 165 L0 165 L0 0 Z" />
      </clipPath>
      <clipPath clipPathUnits="userSpaceOnUse" id="clipPath32">
        <path d="M0 0 L166 0 L166 236 L0 236 L0 0 Z" />
      </clipPath>
      <clipPath clipPathUnits="userSpaceOnUse" id="clipPath33">
        <path d="M0 0 L420 0 L420 115 L0 115 L0 0 Z" />
      </clipPath>
      <clipPath clipPathUnits="userSpaceOnUse" id="clipPath34">
        <path d="M0 0 L237 0 L237 115 L0 115 L0 0 Z" />
      </clipPath>
      <clipPath clipPathUnits="userSpaceOnUse" id="clipPath35">
        <path d="M0 0 L190 0 L190 115 L0 115 L0 0 Z" />
      </clipPath>
      <clipPath clipPathUnits="userSpaceOnUse" id="clipPath36">
        <path d="M0 0 L115 0 L115 215 L0 215 L0 0 Z" />
      </clipPath>
      <clipPath clipPathUnits="userSpaceOnUse" id="clipPath37">
        <path d="M0 0 L115 0 L115 157 L0 157 L0 0 Z" />
      </clipPath>
      <clipPath clipPathUnits="userSpaceOnUse" id="clipPath38">
        <path d="M0 0 L377 0 L377 264 L0 264 L0 0 Z" />
      </clipPath>
      <clipPath clipPathUnits="userSpaceOnUse" id="clipPath39">
        <path d="M0 0 L48 0 L48 17 L0 17 L0 0 Z" />
      </clipPath>
      <clipPath clipPathUnits="userSpaceOnUse" id="clipPath40">
        <path d="M0 0 L70 0 L70 17 L0 17 L0 0 Z" />
      </clipPath>
      <clipPath clipPathUnits="userSpaceOnUse" id="clipPath41">
        <path d="M0 0 L81 0 L81 17 L0 17 L0 0 Z" />
      </clipPath>
    </defs>
    <g style="fill:white; text-rendering:geometricPrecision; stroke:white;">
      <rect x="0" y="0" width="726" style="stroke:none;" height="546" />
    </g>
    <g transform="translate(2,2)" style="text-rendering:geometricPrecision; stroke-width:2; font-size:11; font-family:sans-serif;">
      <rect x="0" y="0" width="403" style="clip-path:url(#clipPath3); fill:none;" height="17" />
    </g>
    <g style="text-rendering:geometricPrecision; font-size:11; font-family:sans-serif;" transform="translate(2,2)">
      <text x="185" y="14" style="clip-path:url(#clipPath4); stroke:none;" xml:space="preserve">使用者</text>
    </g>
    <g transform="translate(2,19)" style="text-rendering:geometricPrecision; stroke-width:2; font-size:11; font-family:sans-serif;">
      <rect x="0" y="0" width="403" style="clip-path:url(#clipPath5); fill:none;" height="522" />
    </g>
    <g transform="translate(405,2)" style="text-rendering:geometricPrecision; stroke-width:2; font-size:11; font-family:sans-serif;">
      <rect x="0" y="0" width="316" style="clip-path:url(#clipPath6); fill:none;" height="17" />
    </g>
    <g style="text-rendering:geometricPrecision; font-size:11; font-family:sans-serif;" transform="translate(405,2)">
      <text x="141" y="14" style="clip-path:url(#clipPath7); stroke:none;" xml:space="preserve">伺服器</text>
    </g>
    <g transform="translate(405,19)" style="text-rendering:geometricPrecision; stroke-width:2; font-size:11; font-family:sans-serif;">
      <rect x="0" y="0" width="316" style="clip-path:url(#clipPath8); fill:none;" height="522" />
    </g>
    <g style="text-rendering:geometricPrecision; font-size:11; font-family:sans-serif;" transform="translate(32,42)">
      <circle style="clip-path:url(#clipPath9); stroke:none;" r="10" cx="20" cy="10" />
    </g>
    <g transform="translate(124,32)" style="font-size:11; fill:rgb(122,207,245); text-rendering:geometricPrecision; font-family:sans-serif; stroke:rgb(122,207,245);">
      <rect x="1" y="1" width="88" style="clip-path:url(#clipPath10); stroke:none;" rx="15" ry="15" height="38" />
    </g>
    <g transform="translate(124,32)" style="font-size:11; stroke-linecap:butt; text-rendering:geometricPrecision; font-family:sans-serif; stroke-linejoin:round; stroke-miterlimit:0;">
      <rect x="1" y="1" width="88" style="clip-path:url(#clipPath10); fill:none;" rx="15" ry="15" height="38" />
    </g>
    <g style="text-rendering:geometricPrecision; font-size:11; font-family:sans-serif;" transform="translate(124,32)">
      <text x="12" y="25" style="clip-path:url(#clipPath11); stroke:none;" xml:space="preserve">開啟群組頁面</text>
    </g>
    <g transform="translate(154,92)" style="font-size:11; fill:rgb(122,207,245); text-rendering:geometricPrecision; font-family:sans-serif; stroke:rgb(122,207,245);">
      <polygon style="clip-path:url(#clipPath12); stroke:none;" points=" 10 7 17 20 10 32 3 20" />
    </g>
    <g transform="translate(154,92)" style="font-size:11; stroke-linecap:butt; text-rendering:geometricPrecision; font-family:sans-serif; stroke-linejoin:round; stroke-miterlimit:0;">
      <polygon style="fill:none; clip-path:url(#clipPath12);" points=" 10 7 17 20 10 32 3 20" />
    </g>
    <g transform="translate(114,182)" style="font-size:11; fill:rgb(122,207,245); text-rendering:geometricPrecision; font-family:sans-serif; stroke:rgb(122,207,245);">
      <rect x="1" y="1" width="98" style="clip-path:url(#clipPath13); stroke:none;" rx="15" ry="15" height="38" />
    </g>
    <g transform="translate(114,182)" style="font-size:11; stroke-linecap:butt; text-rendering:geometricPrecision; font-family:sans-serif; stroke-linejoin:round; stroke-miterlimit:0;">
      <rect x="1" y="1" width="98" style="clip-path:url(#clipPath13); fill:none;" rx="15" ry="15" height="38" />
    </g>
    <g style="text-rendering:geometricPrecision; font-size:11; font-family:sans-serif;" transform="translate(114,182)">
      <text x="6" y="25" style="clip-path:url(#clipPath14); stroke:none;" xml:space="preserve">開啟群組新增頁面</text>
    </g>
    <g transform="translate(282,92)" style="font-size:11; fill:rgb(122,207,245); text-rendering:geometricPrecision; font-family:sans-serif; stroke:rgb(122,207,245);">
      <rect x="1" y="1" width="58" style="clip-path:url(#clipPath15); stroke:none;" rx="15" ry="15" height="38" />
    </g>
    <g transform="translate(282,92)" style="font-size:11; stroke-linecap:butt; text-rendering:geometricPrecision; font-family:sans-serif; stroke-linejoin:round; stroke-miterlimit:0;">
      <rect x="1" y="1" width="58" style="clip-path:url(#clipPath15); fill:none;" rx="15" ry="15" height="38" />
    </g>
    <g style="text-rendering:geometricPrecision; font-size:11; font-family:sans-serif;" transform="translate(282,92)">
      <text x="8" y="25" style="clip-path:url(#clipPath16); stroke:none;" xml:space="preserve">選擇群組</text>
    </g>
    <g transform="translate(124,272)" style="font-size:11; fill:rgb(122,207,245); text-rendering:geometricPrecision; font-family:sans-serif; stroke:rgb(122,207,245);">
      <rect x="1" y="1" width="78" style="clip-path:url(#clipPath17); stroke:none;" rx="15" ry="15" height="38" />
    </g>
    <g transform="translate(124,272)" style="font-size:11; stroke-linecap:butt; text-rendering:geometricPrecision; font-family:sans-serif; stroke-linejoin:round; stroke-miterlimit:0;">
      <rect x="1" y="1" width="78" style="clip-path:url(#clipPath17); fill:none;" rx="15" ry="15" height="38" />
    </g>
    <g style="text-rendering:geometricPrecision; font-size:11; font-family:sans-serif;" transform="translate(124,272)">
      <text x="7" y="25" style="clip-path:url(#clipPath18); stroke:none;" xml:space="preserve">輸入群組名稱</text>
    </g>
    <g transform="translate(152,322)" style="font-size:11; fill:rgb(122,207,245); text-rendering:geometricPrecision; font-family:sans-serif; stroke:rgb(122,207,245);">
      <polygon style="clip-path:url(#clipPath12); stroke:none;" points=" 10 7 17 20 10 32 3 20" />
    </g>
    <g transform="translate(152,322)" style="font-size:11; stroke-linecap:butt; text-rendering:geometricPrecision; font-family:sans-serif; stroke-linejoin:round; stroke-miterlimit:0;">
      <polygon style="fill:none; clip-path:url(#clipPath12);" points=" 10 7 17 20 10 32 3 20" />
    </g>
    <g transform="translate(272,322)" style="font-size:11; fill:rgb(122,207,245); text-rendering:geometricPrecision; font-family:sans-serif; stroke:rgb(122,207,245);">
      <rect x="1" y="1" width="78" style="clip-path:url(#clipPath17); stroke:none;" rx="15" ry="15" height="38" />
    </g>
    <g transform="translate(272,322)" style="font-size:11; stroke-linecap:butt; text-rendering:geometricPrecision; font-family:sans-serif; stroke-linejoin:round; stroke-miterlimit:0;">
      <rect x="1" y="1" width="78" style="clip-path:url(#clipPath17); fill:none;" rx="15" ry="15" height="38" />
    </g>
    <g style="text-rendering:geometricPrecision; font-size:11; font-family:sans-serif;" transform="translate(272,322)">
      <text x="7" y="25" style="clip-path:url(#clipPath18); stroke:none;" xml:space="preserve">選擇加入成員</text>
    </g>
    <g transform="translate(474,372)" style="font-size:11; fill:rgb(122,207,245); text-rendering:geometricPrecision; font-family:sans-serif; stroke:rgb(122,207,245);">
      <rect x="1" y="1" width="58" style="clip-path:url(#clipPath15); stroke:none;" rx="15" ry="15" height="38" />
    </g>
    <g transform="translate(474,372)" style="font-size:11; stroke-linecap:butt; text-rendering:geometricPrecision; font-family:sans-serif; stroke-linejoin:round; stroke-miterlimit:0;">
      <rect x="1" y="1" width="58" style="clip-path:url(#clipPath15); fill:none;" rx="15" ry="15" height="38" />
    </g>
    <g style="text-rendering:geometricPrecision; font-size:11; font-family:sans-serif;" transform="translate(474,372)">
      <text x="8" y="25" style="clip-path:url(#clipPath16); stroke:none;" xml:space="preserve">新增群組</text>
    </g>
    <g style="text-rendering:geometricPrecision; font-size:11; font-family:sans-serif;" transform="translate(82,332)">
      <circle style="clip-path:url(#clipPath19); stroke:none;" r="6.6667" cx="10" cy="10" />
      <circle style="stroke-linecap:butt; clip-path:url(#clipPath19); fill:none; stroke-linejoin:round; stroke-miterlimit:0;" r="10" cx="10" cy="10" />
    </g>
    <g transform="translate(142,452)" style="font-size:11; fill:rgb(122,207,245); text-rendering:geometricPrecision; font-family:sans-serif; stroke:rgb(122,207,245);">
      <rect x="1" y="1" width="58" style="clip-path:url(#clipPath15); stroke:none;" rx="15" ry="15" height="38" />
    </g>
    <g transform="translate(142,452)" style="font-size:11; stroke-linecap:butt; text-rendering:geometricPrecision; font-family:sans-serif; stroke-linejoin:round; stroke-miterlimit:0;">
      <rect x="1" y="1" width="58" style="clip-path:url(#clipPath15); fill:none;" rx="15" ry="15" height="38" />
    </g>
    <g style="text-rendering:geometricPrecision; font-size:11; font-family:sans-serif;" transform="translate(142,452)">
      <text x="8" y="25" style="clip-path:url(#clipPath16); stroke:none;" xml:space="preserve">新增成功</text>
    </g>
    <g transform="translate(502,452)" style="font-size:11; fill:rgb(122,207,245); text-rendering:geometricPrecision; font-family:sans-serif; stroke:rgb(122,207,245);">
      <polygon style="clip-path:url(#clipPath12); stroke:none;" points=" 10 7 17 20 10 32 3 20" />
    </g>
    <g transform="translate(502,452)" style="font-size:11; stroke-linecap:butt; text-rendering:geometricPrecision; font-family:sans-serif; stroke-linejoin:round; stroke-miterlimit:0;">
      <polygon style="fill:none; clip-path:url(#clipPath12);" points=" 10 7 17 20 10 32 3 20" />
    </g>
    <g transform="translate(472,322)" style="font-size:11; fill:rgb(122,207,245); text-rendering:geometricPrecision; font-family:sans-serif; stroke:rgb(122,207,245);">
      <rect x="1" y="1" width="58" style="clip-path:url(#clipPath15); stroke:none;" rx="15" ry="15" height="38" />
    </g>
    <g transform="translate(472,322)" style="font-size:11; stroke-linecap:butt; text-rendering:geometricPrecision; font-family:sans-serif; stroke-linejoin:round; stroke-miterlimit:0;">
      <rect x="1" y="1" width="58" style="clip-path:url(#clipPath15); fill:none;" rx="15" ry="15" height="38" />
    </g>
    <g style="text-rendering:geometricPrecision; font-size:11; font-family:sans-serif;" transform="translate(472,322)">
      <text x="8" y="25" style="clip-path:url(#clipPath16); stroke:none;" xml:space="preserve">新增群組</text>
    </g>
    <g transform="translate(602,322)" style="font-size:11; fill:rgb(122,207,245); text-rendering:geometricPrecision; font-family:sans-serif; stroke:rgb(122,207,245);">
      <polygon style="clip-path:url(#clipPath12); stroke:none;" points=" 10 7 17 20 10 32 3 20" />
    </g>
    <g transform="translate(602,322)" style="font-size:11; stroke-linecap:butt; text-rendering:geometricPrecision; font-family:sans-serif; stroke-linejoin:round; stroke-miterlimit:0;">
      <polygon style="fill:none; clip-path:url(#clipPath12);" points=" 10 7 17 20 10 32 3 20" />
    </g>
    <g transform="translate(582,452)" style="font-size:11; fill:rgb(122,207,245); text-rendering:geometricPrecision; font-family:sans-serif; stroke:rgb(122,207,245);">
      <rect x="1" y="1" width="58" style="clip-path:url(#clipPath15); stroke:none;" rx="15" ry="15" height="38" />
    </g>
    <g transform="translate(582,452)" style="font-size:11; stroke-linecap:butt; text-rendering:geometricPrecision; font-family:sans-serif; stroke-linejoin:round; stroke-miterlimit:0;">
      <rect x="1" y="1" width="58" style="clip-path:url(#clipPath15); fill:none;" rx="15" ry="15" height="38" />
    </g>
    <g style="text-rendering:geometricPrecision; font-size:11; font-family:sans-serif;" transform="translate(582,452)">
      <text x="8" y="25" style="clip-path:url(#clipPath16); stroke:none;" xml:space="preserve">新增成員</text>
    </g>
    <g transform="translate(272,172)" style="font-size:11; fill:rgb(122,207,245); text-rendering:geometricPrecision; font-family:sans-serif; stroke:rgb(122,207,245);">
      <rect x="1" y="1" width="78" style="clip-path:url(#clipPath17); stroke:none;" rx="15" ry="15" height="38" />
    </g>
    <g transform="translate(272,172)" style="font-size:11; stroke-linecap:butt; text-rendering:geometricPrecision; font-family:sans-serif; stroke-linejoin:round; stroke-miterlimit:0;">
      <rect x="1" y="1" width="78" style="clip-path:url(#clipPath17); fill:none;" rx="15" ry="15" height="38" />
    </g>
    <g style="text-rendering:geometricPrecision; font-size:11; font-family:sans-serif;" transform="translate(272,172)">
      <text x="7" y="25" style="clip-path:url(#clipPath18); stroke:none;" xml:space="preserve">選擇加入成員</text>
    </g>
    <g transform="translate(5,-4)" style="font-size:11; stroke-linecap:butt; text-rendering:geometricPrecision; font-family:sans-serif; stroke-linejoin:round;">
      <line x1="55" x2="120" y1="56" style="clip-path:url(#clipPath22); fill:none;" y2="56" />
      <line x1="120" x2="108" y1="56" style="clip-path:url(#clipPath22); fill:none;" y2="50" />
      <line x1="120" x2="108" y1="56" style="clip-path:url(#clipPath22); fill:none;" y2="62" />
    </g>
    <g transform="translate(106,15)" style="font-size:11; stroke-linecap:butt; text-rendering:geometricPrecision; font-family:sans-serif; stroke-linejoin:round;">
      <line x1="56" x2="58" y1="55" style="clip-path:url(#clipPath23); fill:none;" y2="88" />
      <line x1="58" x2="64" y1="88" style="clip-path:url(#clipPath23); fill:none;" y2="76" />
      <line x1="58" x2="52" y1="88" style="clip-path:url(#clipPath23); fill:none;" y2="76" />
    </g>
    <g transform="translate(108,65)" style="font-size:11; stroke-linecap:butt; text-rendering:geometricPrecision; font-family:sans-serif; stroke-linejoin:round;">
      <line x1="56" x2="56" y1="55" style="clip-path:url(#clipPath24); fill:none;" y2="118" />
      <line x1="56" x2="62" y1="118" style="clip-path:url(#clipPath24); fill:none;" y2="106" />
      <line x1="56" x2="50" y1="118" style="clip-path:url(#clipPath24); fill:none;" y2="106" />
    </g>
    <g transform="translate(114,56)" style="font-size:11; stroke-linecap:butt; text-rendering:geometricPrecision; font-family:sans-serif; stroke-linejoin:round;">
      <line x1="55" x2="169" y1="56" style="clip-path:url(#clipPath25); fill:none;" y2="56" />
      <line x1="169" x2="157" y1="56" style="clip-path:url(#clipPath25); fill:none;" y2="50" />
      <line x1="169" x2="157" y1="56" style="clip-path:url(#clipPath25); fill:none;" y2="62" />
    </g>
    <g transform="translate(106,165)" style="font-size:11; stroke-linecap:butt; text-rendering:geometricPrecision; font-family:sans-serif; stroke-linejoin:round;">
      <line x1="56" x2="56" y1="55" style="clip-path:url(#clipPath26); fill:none;" y2="108" />
      <line x1="56" x2="62" y1="108" style="clip-path:url(#clipPath26); fill:none;" y2="96" />
      <line x1="56" x2="50" y1="108" style="clip-path:url(#clipPath26); fill:none;" y2="96" />
    </g>
    <g transform="translate(106,255)" style="font-size:11; stroke-linecap:butt; text-rendering:geometricPrecision; font-family:sans-serif; stroke-linejoin:round;">
      <line x1="56" x2="56" y1="55" style="clip-path:url(#clipPath27); fill:none;" y2="75" />
      <line x1="56" x2="62" y1="75" style="clip-path:url(#clipPath27); fill:none;" y2="63" />
      <line x1="56" x2="50" y1="75" style="clip-path:url(#clipPath27); fill:none;" y2="63" />
    </g>
    <g transform="translate(112,286)" style="font-size:11; stroke-linecap:butt; text-rendering:geometricPrecision; font-family:sans-serif; stroke-linejoin:round;">
      <line x1="55" x2="161" y1="56" style="clip-path:url(#clipPath28); fill:none;" y2="56" />
      <line x1="161" x2="149" y1="56" style="clip-path:url(#clipPath28); fill:none;" y2="50" />
      <line x1="161" x2="149" y1="56" style="clip-path:url(#clipPath28); fill:none;" y2="62" />
    </g>
    <g transform="translate(106,297)" style="font-size:11; stroke-linecap:butt; text-rendering:geometricPrecision; font-family:sans-serif; stroke-linejoin:round;">
      <line x1="56" x2="56" y1="56" style="clip-path:url(#clipPath29); fill:none;" y2="104" />
      <line x1="56" x2="371" y1="104" style="clip-path:url(#clipPath29); fill:none;" y2="104" />
      <line x1="371" x2="359" y1="104" style="clip-path:url(#clipPath29); fill:none;" y2="98" />
      <line x1="371" x2="359" y1="104" style="clip-path:url(#clipPath29); fill:none;" y2="110" />
    </g>
    <g transform="translate(46,286)" style="font-size:11; stroke-linecap:butt; text-rendering:geometricPrecision; font-family:sans-serif; stroke-linejoin:round;">
      <line x1="110" x2="56" y1="56" style="clip-path:url(#clipPath30); fill:none;" y2="56" />
      <line x1="56" x2="68" y1="56" style="clip-path:url(#clipPath30); fill:none;" y2="62" />
      <line x1="56" x2="68" y1="56" style="clip-path:url(#clipPath30); fill:none;" y2="50" />
    </g>
    <g transform="translate(456,355)" style="font-size:11; stroke-linecap:butt; text-rendering:geometricPrecision; font-family:sans-serif; stroke-linejoin:round;">
      <line x1="56" x2="56" y1="55" style="clip-path:url(#clipPath31); fill:none;" y2="105" />
      <line x1="56" x2="62" y1="105" style="clip-path:url(#clipPath31); fill:none;" y2="93" />
      <line x1="56" x2="50" y1="105" style="clip-path:url(#clipPath31); fill:none;" y2="93" />
    </g>
    <g transform="translate(36,295)" style="font-size:11; stroke-linecap:butt; text-rendering:geometricPrecision; font-family:sans-serif; stroke-linejoin:round;">
      <line x1="107" x2="56" y1="177" style="clip-path:url(#clipPath32); fill:none;" y2="177" />
      <line x1="56" x2="56" y1="177" style="clip-path:url(#clipPath32); fill:none;" y2="55" />
      <line x1="56" x2="50" y1="55" style="clip-path:url(#clipPath32); fill:none;" y2="67" />
      <line x1="56" x2="62" y1="55" style="clip-path:url(#clipPath32); fill:none;" y2="67" />
    </g>
    <g transform="translate(145,416)" style="font-size:11; stroke-linecap:butt; text-rendering:geometricPrecision; font-family:sans-serif; stroke-linejoin:round;">
      <line x1="361" x2="55" y1="56" style="clip-path:url(#clipPath33); fill:none;" y2="56" />
      <line x1="55" x2="67" y1="56" style="clip-path:url(#clipPath33); fill:none;" y2="62" />
      <line x1="55" x2="67" y1="56" style="clip-path:url(#clipPath33); fill:none;" y2="50" />
    </g>
    <g transform="translate(295,286)" style="font-size:11; stroke-linecap:butt; text-rendering:geometricPrecision; font-family:sans-serif; stroke-linejoin:round;">
      <line x1="55" x2="178" y1="56" style="clip-path:url(#clipPath34); fill:none;" y2="56" />
      <line x1="178" x2="166" y1="56" style="clip-path:url(#clipPath34); fill:none;" y2="50" />
      <line x1="178" x2="166" y1="56" style="clip-path:url(#clipPath34); fill:none;" y2="62" />
    </g>
    <g transform="translate(475,286)" style="font-size:11; stroke-linecap:butt; text-rendering:geometricPrecision; font-family:sans-serif; stroke-linejoin:round;">
      <line x1="55" x2="131" y1="56" style="clip-path:url(#clipPath35); fill:none;" y2="56" />
      <line x1="131" x2="119" y1="56" style="clip-path:url(#clipPath35); fill:none;" y2="50" />
      <line x1="131" x2="119" y1="56" style="clip-path:url(#clipPath35); fill:none;" y2="62" />
    </g>
    <g transform="translate(556,297)" style="font-size:11; stroke-linecap:butt; text-rendering:geometricPrecision; font-family:sans-serif; stroke-linejoin:round;">
      <line x1="56" x2="56" y1="56" style="clip-path:url(#clipPath36); fill:none;" y2="156" />
      <line x1="56" x2="62" y1="156" style="clip-path:url(#clipPath36); fill:none;" y2="144" />
      <line x1="56" x2="50" y1="156" style="clip-path:url(#clipPath36); fill:none;" y2="144" />
    </g>
    <g transform="translate(256,75)" style="font-size:11; stroke-linecap:butt; text-rendering:geometricPrecision; font-family:sans-serif; stroke-linejoin:round;">
      <line x1="56" x2="56" y1="55" style="clip-path:url(#clipPath37); fill:none;" y2="98" />
      <line x1="56" x2="62" y1="98" style="clip-path:url(#clipPath37); fill:none;" y2="86" />
      <line x1="56" x2="50" y1="98" style="clip-path:url(#clipPath37); fill:none;" y2="86" />
    </g>
    <g transform="translate(294,126)" style="font-size:11; stroke-linecap:butt; text-rendering:geometricPrecision; font-family:sans-serif; stroke-linejoin:round;">
      <line x1="55" x2="318" y1="56" style="clip-path:url(#clipPath38); fill:none;" y2="56" />
      <line x1="318" x2="318" y1="56" style="clip-path:url(#clipPath38); fill:none;" y2="204" />
      <line x1="318" x2="324" y1="204" style="clip-path:url(#clipPath38); fill:none;" y2="192" />
      <line x1="318" x2="312" y1="204" style="clip-path:url(#clipPath38); fill:none;" y2="192" />
    </g>
    <g transform="translate(463,416)" style="font-size:11; stroke-linecap:butt; text-rendering:geometricPrecision; font-family:sans-serif; stroke-linejoin:round;">
      <line x1="120" x2="55" y1="56" style="clip-path:url(#clipPath22); fill:none;" y2="56" />
      <line x1="55" x2="67" y1="56" style="clip-path:url(#clipPath22); fill:none;" y2="62" />
      <line x1="55" x2="67" y1="56" style="clip-path:url(#clipPath22); fill:none;" y2="50" />
    </g>
    <g style="text-rendering:geometricPrecision; font-size:11; font-family:sans-serif;" transform="translate(109,320)">
      <text x="10" y="14" style="clip-path:url(#clipPath39); stroke:none;" xml:space="preserve">[取消]</text>
    </g>
    <g style="text-rendering:geometricPrecision; font-size:11; font-family:sans-serif;" transform="translate(122,363)">
      <text x="10" y="14" style="clip-path:url(#clipPath39); stroke:none;" xml:space="preserve">[確定]</text>
    </g>
    <g style="text-rendering:geometricPrecision; font-size:11; font-family:sans-serif;" transform="translate(166,322)">
      <text x="10" y="14" style="clip-path:url(#clipPath40); stroke:none;" xml:space="preserve">[新增成員]</text>
    </g>
    <g style="text-rendering:geometricPrecision; font-size:11; font-family:sans-serif;" transform="translate(168,94)">
      <text x="10" y="14" style="clip-path:url(#clipPath41); stroke:none;" xml:space="preserve">[群組已存在]</text>
    </g>
    <g style="text-rendering:geometricPrecision; font-size:11; font-family:sans-serif;" transform="translate(164,138)">
      <text x="10" y="14" style="clip-path:url(#clipPath41); stroke:none;" xml:space="preserve">[群組不存在]</text>
    </g>
    
  </g>
</svg>
