<?xml version="1.0" encoding="UTF-8"?>

<!DOCTYPE svg PUBLIC '-//W3C//DTD SVG 1.0//EN' 'http://www.w3.org/TR/2001/REC-SVG-20010904/DTD/svg10.dtd'>
<svg style="fill-opacity:1; color-rendering:auto; color-interpolation:auto; stroke:black; text-rendering:auto; stroke-linecap:square; stroke-miterlimit:10; stroke-opacity:1; shape-rendering:auto; fill:black; stroke-dasharray:none; font-weight:normal; stroke-width:1; font-family:&apos;Dialog&apos;; font-style:normal; stroke-linejoin:miter; font-size:12; stroke-dashoffset:0; image-rendering:auto;" xmlns="http://www.w3.org/2000/svg" width="886" xmlns:xlink="http://www.w3.org/1999/xlink" height="919">
  <!--Generated by the Batik Graphics2D SVG Generator-->
  <defs id="genericDefs" />
  <g>
    <defs id="defs1">
      <clipPath clipPathUnits="userSpaceOnUse" id="clipPath1">
        <path d="M-3 -3 L67 -3 L67 877 L-3 877 L-3 -3 Z" />
      </clipPath>
      <clipPath clipPathUnits="userSpaceOnUse" id="clipPath2">
        <path d="M-3 -3 L15 -3 L15 758 L-3 758 L-3 -3 Z" />
      </clipPath>
      <clipPath clipPathUnits="userSpaceOnUse" id="clipPath3">
        <path d="M-3 -3 L867 -3 L867 687 L-3 687 L-3 -3 Z" />
      </clipPath>
      <clipPath clipPathUnits="userSpaceOnUse" id="clipPath4">
        <path d="M0 0 L23 0 L23 20 L0 20 L0 0 Z" />
      </clipPath>
      <clipPath clipPathUnits="userSpaceOnUse" id="clipPath5">
        <path d="M-3 -3 L867 -3 L867 157 L-3 157 L-3 -3 Z" />
      </clipPath>
      <clipPath clipPathUnits="userSpaceOnUse" id="clipPath6">
        <path d="M0 0 L70 0 L70 17 L0 17 L0 0 Z" />
      </clipPath>
      <clipPath clipPathUnits="userSpaceOnUse" id="clipPath7">
        <path d="M0 0 L0 4 L860 4 L860 0 Z" />
      </clipPath>
      <clipPath clipPathUnits="userSpaceOnUse" id="clipPath8">
        <path d="M-3 -3 L15 -3 L15 91 L-3 91 L-3 -3 Z" />
      </clipPath>
      <clipPath clipPathUnits="userSpaceOnUse" id="clipPath9">
        <path d="M-3 -3 L15 -3 L15 19 L-3 19 L-3 -3 Z" />
      </clipPath>
      <clipPath clipPathUnits="userSpaceOnUse" id="clipPath10">
        <path d="M-3 -3 L867 -3 L867 517 L-3 517 L-3 -3 Z" />
      </clipPath>
      <clipPath clipPathUnits="userSpaceOnUse" id="clipPath11">
        <path d="M0 0 L81 0 L81 17 L0 17 L0 0 Z" />
      </clipPath>
      <clipPath clipPathUnits="userSpaceOnUse" id="clipPath12">
        <path d="M-3 -3 L777 -3 L777 307 L-3 307 L-3 -3 Z" />
      </clipPath>
      <clipPath clipPathUnits="userSpaceOnUse" id="clipPath13">
        <path d="M-3 -3 L777 -3 L777 137 L-3 137 L-3 -3 Z" />
      </clipPath>
      <clipPath clipPathUnits="userSpaceOnUse" id="clipPath14">
        <path d="M0 0 L92 0 L92 17 L0 17 L0 0 Z" />
      </clipPath>
      <clipPath clipPathUnits="userSpaceOnUse" id="clipPath15">
        <path d="M0 0 L0 4 L770 4 L770 0 Z" />
      </clipPath>
      <clipPath clipPathUnits="userSpaceOnUse" id="clipPath16">
        <path d="M-3 -3 L15 -3 L15 295 L-3 295 L-3 -3 Z" />
      </clipPath>
      <clipPath clipPathUnits="userSpaceOnUse" id="clipPath17">
        <path d="M-3 -3 L777 -3 L777 157 L-3 157 L-3 -3 Z" />
      </clipPath>
      <clipPath clipPathUnits="userSpaceOnUse" id="clipPath18">
        <path d="M0 0 L60 0 L60 17 L0 17 L0 0 Z" />
      </clipPath>
      <clipPath clipPathUnits="userSpaceOnUse" id="clipPath19">
        <path d="M0 0 L53 0 L53 17 L0 17 L0 0 Z" />
      </clipPath>
      <clipPath clipPathUnits="userSpaceOnUse" id="clipPath20">
        <path d="M0 0 L286 0 L286 104 L0 104 L0 0 Z" />
      </clipPath>
      <clipPath clipPathUnits="userSpaceOnUse" id="clipPath21">
        <path d="M0 0 L336 0 L336 104 L0 104 L0 0 Z" />
      </clipPath>
      <clipPath clipPathUnits="userSpaceOnUse" id="clipPath22">
        <path d="M0 0 L130 0 L130 124 L0 124 L0 0 Z" />
      </clipPath>
      <clipPath clipPathUnits="userSpaceOnUse" id="clipPath23">
        <path d="M0 0 L104 0 L104 17 L0 17 L0 0 Z" />
      </clipPath>
      <clipPath clipPathUnits="userSpaceOnUse" id="clipPath24">
        <path d="M0 0 L117 0 L117 17 L0 17 L0 0 Z" />
      </clipPath>
      <clipPath clipPathUnits="userSpaceOnUse" id="clipPath25">
        <path d="M0 0 L95 0 L95 17 L0 17 L0 0 Z" />
      </clipPath>
      <clipPath clipPathUnits="userSpaceOnUse" id="clipPath26">
        <path d="M0 0 L140 0 L140 17 L0 17 L0 0 Z" />
      </clipPath>
      <clipPath clipPathUnits="userSpaceOnUse" id="clipPath27">
        <path d="M0 0 L172 0 L172 17 L0 17 L0 0 Z" />
      </clipPath>
      <clipPath clipPathUnits="userSpaceOnUse" id="clipPath28">
        <path d="M0 0 L217 0 L217 17 L0 17 L0 0 Z" />
      </clipPath>
      <clipPath clipPathUnits="userSpaceOnUse" id="clipPath29">
        <path d="M0 0 L98 0 L98 17 L0 17 L0 0 Z" />
      </clipPath>
      <clipPath clipPathUnits="userSpaceOnUse" id="clipPath30">
        <path d="M0 0 L131 0 L131 17 L0 17 L0 0 Z" />
      </clipPath>
      <clipPath clipPathUnits="userSpaceOnUse" id="clipPath31">
        <path d="M0 0 L76 0 L76 17 L0 17 L0 0 Z" />
      </clipPath>
      <clipPath clipPathUnits="userSpaceOnUse" id="clipPath32">
        <path d="M0 0 L120 0 L120 17 L0 17 L0 0 Z" />
      </clipPath>
      <clipPath clipPathUnits="userSpaceOnUse" id="clipPath33">
        <path d="M0 0 L142 0 L142 17 L0 17 L0 0 Z" />
      </clipPath>
      <clipPath clipPathUnits="userSpaceOnUse" id="clipPath34">
        <path d="M0 0 L161 0 L161 17 L0 17 L0 0 Z" />
      </clipPath>
      <clipPath clipPathUnits="userSpaceOnUse" id="clipPath35">
        <path d="M0 0 L139 0 L139 17 L0 17 L0 0 Z" />
      </clipPath>
      <clipPath clipPathUnits="userSpaceOnUse" id="clipPath36">
        <path d="M0 0 L162 0 L162 17 L0 17 L0 0 Z" />
      </clipPath>
    </defs>
    <g style="fill:white; text-rendering:geometricPrecision; stroke:white;">
      <rect x="0" y="0" width="886" style="stroke:none;" height="919" />
      <rect x="48" y="38" transform="translate(-48,-38)" width="885" style="fill:none; stroke:black;" height="918" />
      <text x="55" y="57" transform="translate(-48,-38)" style="fill:black; stroke:none; font-weight:bold;" xml:space="preserve">sd</text>
      <text x="76" y="57" transform="translate(-48,-38)" style="fill:black; stroke:none;" xml:space="preserve">公司群組管理循序圖</text>
      <line transform="translate(-48,-38)" x1="48" x2="184" y1="64" style="fill:none; stroke:black;" y2="64" />
      <line transform="translate(-48,-38)" x1="190" x2="190" y1="38" style="fill:none; stroke:black;" y2="53" />
      <line transform="translate(-48,-38)" x1="190" x2="184" y1="53" style="fill:none; stroke:black;" y2="64" />
    </g>
    <g transform="translate(152,35)" style="font-size:11; fill:rgb(122,207,245); text-rendering:geometricPrecision; font-family:sans-serif; stroke:rgb(122,207,245);">
      <circle style="clip-path:url(#clipPath1); stroke:none;" r="5" cx="30" cy="5" />
      <rect x="26" y="52" width="8" style="clip-path:url(#clipPath1); stroke:none;" height="817" />
    </g>
    <g transform="translate(152,35)" style="font-size:11; stroke-linecap:butt; text-rendering:geometricPrecision; font-family:sans-serif; stroke-linejoin:round; stroke-miterlimit:0;">
      <circle style="fill:none; clip-path:url(#clipPath1);" r="5" cx="30" cy="5" />
      <rect x="26" y="52" width="8" style="clip-path:url(#clipPath1); fill:none;" height="817" />
      <line x1="30" x2="30" y1="10" style="clip-path:url(#clipPath1); fill:none;" y2="25" />
      <line x1="30" x2="21" y1="25" style="clip-path:url(#clipPath1); fill:none;" y2="36" />
      <line x1="30" x2="39" y1="25" style="clip-path:url(#clipPath1); fill:none;" y2="36" />
      <line x1="21" x2="39" y1="16" style="clip-path:url(#clipPath1); fill:none;" y2="16" />
    </g>
    <g transform="translate(342,35)" style="font-size:11; fill:rgb(122,207,245); text-rendering:geometricPrecision; font-family:sans-serif; stroke:rgb(122,207,245);">
      <rect x="0" y="0" width="59" style="clip-path:url(#clipPath1); stroke:none;" height="35" />
    </g>
    <g transform="translate(342,35)" style="font-size:11; stroke-linecap:butt; text-rendering:geometricPrecision; font-family:sans-serif; stroke-linejoin:round; stroke-miterlimit:0;">
      <rect x="0" y="0" width="59" style="clip-path:url(#clipPath1); fill:none;" height="35" />
      <line x1="29" x2="29" y1="35" style="clip-path:url(#clipPath1); fill:none; stroke-linejoin:bevel; stroke-dasharray:8,3;" y2="870" />
    </g>
    <g transform="translate(368,124)" style="font-size:11; fill:rgb(122,207,245); text-rendering:geometricPrecision; font-family:sans-serif; stroke:rgb(122,207,245);">
      <rect x="0" y="0" width="8" style="clip-path:url(#clipPath2); stroke:none;" height="751" />
    </g>
    <g transform="translate(368,124)" style="font-size:11; stroke-linecap:butt; text-rendering:geometricPrecision; font-family:sans-serif; stroke-linejoin:round; stroke-miterlimit:0;">
      <rect x="0" y="0" width="8" style="clip-path:url(#clipPath2); fill:none;" height="751" />
    </g>
    <g transform="translate(582,35)" style="font-size:11; fill:rgb(122,207,245); text-rendering:geometricPrecision; font-family:sans-serif; stroke:rgb(122,207,245);">
      <rect x="0" y="0" width="59" style="clip-path:url(#clipPath1); stroke:none;" height="35" />
    </g>
    <g transform="translate(582,35)" style="font-size:11; stroke-linecap:butt; text-rendering:geometricPrecision; font-family:sans-serif; stroke-linejoin:round; stroke-miterlimit:0;">
      <rect x="0" y="0" width="59" style="clip-path:url(#clipPath1); fill:none;" height="35" />
      <line x1="29" x2="29" y1="35" style="clip-path:url(#clipPath1); fill:none; stroke-linejoin:bevel; stroke-dasharray:8,3;" y2="870" />
    </g>
    <g transform="translate(12,205)" style="font-size:11; stroke-linecap:butt; text-rendering:geometricPrecision; font-family:sans-serif; stroke-linejoin:round; font-weight:bold; stroke-miterlimit:0;">
      <rect x="0" y="0" width="860" style="clip-path:url(#clipPath3); fill:none;" height="680" />
    </g>
    <g transform="translate(12,205)" style="font-size:11; fill:white; text-rendering:geometricPrecision; font-family:sans-serif; stroke:white; font-weight:bold;">
      <path d="M22 0 L22 10 L16 19 L0 19 L0 0 Z" style="clip-path:url(#clipPath3); stroke:none;" />
    </g>
    <g transform="translate(12,205)" style="font-size:11; stroke-linecap:butt; text-rendering:geometricPrecision; font-family:sans-serif; stroke-linejoin:round; font-weight:bold; stroke-miterlimit:0;">
      <path d="M22 0 L22 10 L16 19 L0 19 L0 0 Z" style="fill:none; clip-path:url(#clipPath3);" />
    </g>
    <g transform="translate(12,205)" style="text-rendering:geometricPrecision; font-size:11; font-weight:bold; font-family:sans-serif;">
      <text x="5" y="14" style="clip-path:url(#clipPath4); stroke:none;" xml:space="preserve">alt</text>
    </g>
    <g transform="translate(12,225)" style="font-size:11; fill:white; text-rendering:geometricPrecision; font-family:sans-serif; stroke:white;">
      <rect x="28" y="5" width="70" style="clip-path:url(#clipPath5); stroke:none;" height="17" />
    </g>
    <g transform="translate(12,225)" style="font-size:11; stroke-linecap:butt; text-rendering:geometricPrecision; font-family:sans-serif; stroke-linejoin:bevel; stroke-dasharray:5,2; stroke-miterlimit:0;">
      <line x1="0" x2="859" y1="149" style="clip-path:url(#clipPath5); fill:none;" y2="149" />
    </g>
    <g style="text-rendering:geometricPrecision; font-size:11; font-family:sans-serif;" transform="translate(40,230)">
      <text x="10" y="14" style="clip-path:url(#clipPath6); stroke:none;" xml:space="preserve">[群組存在]</text>
    </g>
    <g transform="translate(608,255)" style="font-size:11; fill:rgb(122,207,245); text-rendering:geometricPrecision; font-family:sans-serif; stroke:rgb(122,207,245);">
      <rect x="0" y="0" width="8" style="clip-path:url(#clipPath8); stroke:none;" height="84" />
    </g>
    <g transform="translate(608,255)" style="font-size:11; stroke-linecap:butt; text-rendering:geometricPrecision; font-family:sans-serif; stroke-linejoin:round; stroke-miterlimit:0;">
      <rect x="0" y="0" width="8" style="clip-path:url(#clipPath8); fill:none;" height="84" />
    </g>
    <g transform="translate(612,285)" style="font-size:11; fill:rgb(122,207,245); text-rendering:geometricPrecision; font-family:sans-serif; stroke:rgb(122,207,245);">
      <rect x="0" y="0" width="8" style="clip-path:url(#clipPath9); stroke:none;" height="12" />
    </g>
    <g transform="translate(612,285)" style="font-size:11; stroke-linecap:butt; text-rendering:geometricPrecision; font-family:sans-serif; stroke-linejoin:round; stroke-miterlimit:0;">
      <rect x="0" y="0" width="8" style="clip-path:url(#clipPath9); fill:none;" height="12" />
    </g>
    <g transform="translate(12,375)" style="font-size:11; fill:white; text-rendering:geometricPrecision; font-family:sans-serif; stroke:white;">
      <rect x="28" y="5" width="81" style="clip-path:url(#clipPath10); stroke:none;" height="17" />
    </g>
    <g style="text-rendering:geometricPrecision; font-size:11; font-family:sans-serif;" transform="translate(40,380)">
      <text x="10" y="14" style="clip-path:url(#clipPath11); stroke:none;" xml:space="preserve">[群組不存在]</text>
    </g>
    <g transform="translate(52,485)" style="font-size:11; stroke-linecap:butt; text-rendering:geometricPrecision; font-family:sans-serif; stroke-linejoin:round; font-weight:bold; stroke-miterlimit:0;">
      <rect x="0" y="0" width="770" style="clip-path:url(#clipPath12); fill:none;" height="300" />
    </g>
    <g transform="translate(52,485)" style="font-size:11; fill:white; text-rendering:geometricPrecision; font-family:sans-serif; stroke:white; font-weight:bold;">
      <path d="M22 0 L22 10 L16 19 L0 19 L0 0 Z" style="clip-path:url(#clipPath12); stroke:none;" />
    </g>
    <g transform="translate(52,485)" style="font-size:11; stroke-linecap:butt; text-rendering:geometricPrecision; font-family:sans-serif; stroke-linejoin:round; font-weight:bold; stroke-miterlimit:0;">
      <path d="M22 0 L22 10 L16 19 L0 19 L0 0 Z" style="fill:none; clip-path:url(#clipPath12);" />
    </g>
    <g transform="translate(52,485)" style="text-rendering:geometricPrecision; font-size:11; font-weight:bold; font-family:sans-serif;">
      <text x="5" y="14" style="clip-path:url(#clipPath4); stroke:none;" xml:space="preserve">alt</text>
    </g>
    <g transform="translate(52,505)" style="font-size:11; fill:white; text-rendering:geometricPrecision; font-family:sans-serif; stroke:white;">
      <rect x="28" y="5" width="92" style="clip-path:url(#clipPath13); stroke:none;" height="17" />
    </g>
    <g transform="translate(52,505)" style="font-size:11; stroke-linecap:butt; text-rendering:geometricPrecision; font-family:sans-serif; stroke-linejoin:bevel; stroke-dasharray:5,2; stroke-miterlimit:0;">
      <line x1="0" x2="769" y1="129" style="clip-path:url(#clipPath13); fill:none;" y2="129" />
    </g>
    <g style="text-rendering:geometricPrecision; font-size:11; font-family:sans-serif;" transform="translate(80,510)">
      <text x="10" y="14" style="clip-path:url(#clipPath14); stroke:none;" xml:space="preserve">[選擇新增成員]</text>
    </g>
    <g transform="translate(608,575)" style="font-size:11; fill:rgb(122,207,245); text-rendering:geometricPrecision; font-family:sans-serif; stroke:rgb(122,207,245);">
      <rect x="0" y="0" width="8" style="clip-path:url(#clipPath16); stroke:none;" height="288" />
    </g>
    <g transform="translate(608,575)" style="font-size:11; stroke-linecap:butt; text-rendering:geometricPrecision; font-family:sans-serif; stroke-linejoin:round; stroke-miterlimit:0;">
      <rect x="0" y="0" width="8" style="clip-path:url(#clipPath16); fill:none;" height="288" />
    </g>
    <g transform="translate(612,605)" style="font-size:11; fill:rgb(122,207,245); text-rendering:geometricPrecision; font-family:sans-serif; stroke:rgb(122,207,245);">
      <rect x="0" y="0" width="8" style="clip-path:url(#clipPath9); stroke:none;" height="12" />
    </g>
    <g transform="translate(612,605)" style="font-size:11; stroke-linecap:butt; text-rendering:geometricPrecision; font-family:sans-serif; stroke-linejoin:round; stroke-miterlimit:0;">
      <rect x="0" y="0" width="8" style="clip-path:url(#clipPath9); fill:none;" height="12" />
    </g>
    <g transform="translate(52,635)" style="font-size:11; fill:white; text-rendering:geometricPrecision; font-family:sans-serif; stroke:white;">
      <rect x="28" y="5" width="81" style="clip-path:url(#clipPath17); stroke:none;" height="17" />
    </g>
    <g style="text-rendering:geometricPrecision; font-size:11; font-family:sans-serif;" transform="translate(80,640)">
      <text x="10" y="14" style="clip-path:url(#clipPath11); stroke:none;" xml:space="preserve">[不新增成員]</text>
    </g>
    <g transform="translate(612,725)" style="font-size:11; fill:rgb(122,207,245); text-rendering:geometricPrecision; font-family:sans-serif; stroke:rgb(122,207,245);">
      <rect x="0" y="0" width="8" style="clip-path:url(#clipPath9); stroke:none;" height="12" />
    </g>
    <g transform="translate(612,725)" style="font-size:11; stroke-linecap:butt; text-rendering:geometricPrecision; font-family:sans-serif; stroke-linejoin:round; stroke-miterlimit:0;">
      <rect x="0" y="0" width="8" style="clip-path:url(#clipPath9); fill:none;" height="12" />
    </g>
    <g style="text-rendering:geometricPrecision; font-size:11; font-family:sans-serif;" transform="translate(582,35)">
      <text x="13" y="14" style="clip-path:url(#clipPath18); stroke:none;" xml:space="preserve">資料庫</text>
    </g>
    <g style="text-rendering:geometricPrecision; font-size:11; font-family:sans-serif;" transform="translate(342,35)">
      <text x="19" y="14" style="clip-path:url(#clipPath18); stroke:none;" xml:space="preserve">系統</text>
    </g>
    <g style="text-rendering:geometricPrecision; font-size:11; font-family:sans-serif;" transform="translate(156,70)">
      <text x="10" y="14" style="clip-path:url(#clipPath19); stroke:none;" xml:space="preserve">使用者</text>
    </g>
    <g transform="translate(136,85)" style="font-size:11; stroke-linecap:butt; text-rendering:geometricPrecision; font-family:sans-serif; stroke-linejoin:round;">
      <line x1="50" x2="232" y1="50" style="clip-path:url(#clipPath20); fill:none;" y2="50" />
      <polygon style="clip-path:url(#clipPath20); stroke:none;" points=" 232 50 220 44 220 56" />
      <polygon style="fill:none; clip-path:url(#clipPath20);" points=" 232 50 220 44 220 56" />
    </g>
    <g transform="translate(136,125)" style="font-size:11; stroke-linecap:butt; text-rendering:geometricPrecision; font-family:sans-serif; stroke-linejoin:round; stroke-dasharray:8,3; stroke-miterlimit:0;">
      <line x1="232" x2="50" y1="50" style="clip-path:url(#clipPath20); fill:none;" y2="50" />
      <line x1="50" x2="62" y1="50" style="clip-path:url(#clipPath20); fill:none; stroke-dasharray:none; stroke-miterlimit:10;" y2="56" />
      <line x1="50" x2="62" y1="50" style="clip-path:url(#clipPath20); fill:none; stroke-dasharray:none; stroke-miterlimit:10;" y2="44" />
    </g>
    <g transform="translate(136,195)" style="font-size:11; stroke-linecap:butt; text-rendering:geometricPrecision; font-family:sans-serif; stroke-linejoin:round;">
      <line x1="50" x2="232" y1="50" style="clip-path:url(#clipPath20); fill:none;" y2="50" />
      <polygon style="clip-path:url(#clipPath20); stroke:none;" points=" 232 50 220 44 220 56" />
      <polygon style="fill:none; clip-path:url(#clipPath20);" points=" 232 50 220 44 220 56" />
    </g>
    <g transform="translate(326,205)" style="font-size:11; stroke-linecap:butt; text-rendering:geometricPrecision; font-family:sans-serif; stroke-linejoin:round;">
      <line x1="50" x2="282" y1="50" style="clip-path:url(#clipPath21); fill:none;" y2="50" />
      <polygon style="clip-path:url(#clipPath21); stroke:none;" points=" 282 50 270 44 270 56" />
      <polygon style="fill:none; clip-path:url(#clipPath21);" points=" 282 50 270 44 270 56" />
    </g>
    <g transform="translate(566,215)" style="font-size:11; stroke-linecap:butt; text-rendering:geometricPrecision; font-family:sans-serif; stroke-linejoin:round;">
      <line x1="50" x2="76" y1="50" style="clip-path:url(#clipPath22); fill:none;" y2="50" />
      <line x1="76" x2="76" y1="50" style="clip-path:url(#clipPath22); fill:none;" y2="70" />
      <line x1="76" x2="54" y1="70" style="clip-path:url(#clipPath22); fill:none;" y2="70" />
      <polygon style="clip-path:url(#clipPath22); stroke:none;" points=" 54 70 66 76 66 64" />
      <polygon style="fill:none; clip-path:url(#clipPath22);" points=" 54 70 66 76 66 64" />
    </g>
    <g transform="translate(326,265)" style="font-size:11; stroke-linecap:butt; text-rendering:geometricPrecision; font-family:sans-serif; stroke-linejoin:round; stroke-dasharray:8,3; stroke-miterlimit:0;">
      <line x1="282" x2="50" y1="50" style="clip-path:url(#clipPath21); fill:none;" y2="50" />
      <line x1="50" x2="62" y1="50" style="clip-path:url(#clipPath21); fill:none; stroke-dasharray:none; stroke-miterlimit:10;" y2="56" />
      <line x1="50" x2="62" y1="50" style="clip-path:url(#clipPath21); fill:none; stroke-dasharray:none; stroke-miterlimit:10;" y2="44" />
    </g>
    <g transform="translate(136,285)" style="font-size:11; stroke-linecap:butt; text-rendering:geometricPrecision; font-family:sans-serif; stroke-linejoin:round; stroke-dasharray:8,3; stroke-miterlimit:0;">
      <line x1="232" x2="50" y1="50" style="clip-path:url(#clipPath20); fill:none;" y2="50" />
      <line x1="50" x2="62" y1="50" style="clip-path:url(#clipPath20); fill:none; stroke-dasharray:none; stroke-miterlimit:10;" y2="56" />
      <line x1="50" x2="62" y1="50" style="clip-path:url(#clipPath20); fill:none; stroke-dasharray:none; stroke-miterlimit:10;" y2="44" />
    </g>
    <g transform="translate(136,355)" style="font-size:11; stroke-linecap:butt; text-rendering:geometricPrecision; font-family:sans-serif; stroke-linejoin:round;">
      <line x1="50" x2="232" y1="50" style="clip-path:url(#clipPath20); fill:none;" y2="50" />
      <polygon style="clip-path:url(#clipPath20); stroke:none;" points=" 232 50 220 44 220 56" />
      <polygon style="fill:none; clip-path:url(#clipPath20);" points=" 232 50 220 44 220 56" />
    </g>
    <g transform="translate(136,385)" style="font-size:11; stroke-linecap:butt; text-rendering:geometricPrecision; font-family:sans-serif; stroke-linejoin:round; stroke-dasharray:8,3; stroke-miterlimit:0;">
      <line x1="232" x2="50" y1="50" style="clip-path:url(#clipPath20); fill:none;" y2="50" />
      <line x1="50" x2="62" y1="50" style="clip-path:url(#clipPath20); fill:none; stroke-dasharray:none; stroke-miterlimit:10;" y2="56" />
      <line x1="50" x2="62" y1="50" style="clip-path:url(#clipPath20); fill:none; stroke-dasharray:none; stroke-miterlimit:10;" y2="44" />
    </g>
    <g transform="translate(136,415)" style="font-size:11; stroke-linecap:butt; text-rendering:geometricPrecision; font-family:sans-serif; stroke-linejoin:round;">
      <line x1="50" x2="232" y1="50" style="clip-path:url(#clipPath20); fill:none;" y2="50" />
      <polygon style="clip-path:url(#clipPath20); stroke:none;" points=" 232 50 220 44 220 56" />
      <polygon style="fill:none; clip-path:url(#clipPath20);" points=" 232 50 220 44 220 56" />
    </g>
    <g transform="translate(136,465)" style="font-size:11; stroke-linecap:butt; text-rendering:geometricPrecision; font-family:sans-serif; stroke-linejoin:round; stroke-dasharray:8,3; stroke-miterlimit:0;">
      <line x1="232" x2="50" y1="50" style="clip-path:url(#clipPath20); fill:none;" y2="50" />
      <line x1="50" x2="62" y1="50" style="clip-path:url(#clipPath20); fill:none; stroke-dasharray:none; stroke-miterlimit:10;" y2="56" />
      <line x1="50" x2="62" y1="50" style="clip-path:url(#clipPath20); fill:none; stroke-dasharray:none; stroke-miterlimit:10;" y2="44" />
    </g>
    <g transform="translate(136,495)" style="font-size:11; stroke-linecap:butt; text-rendering:geometricPrecision; font-family:sans-serif; stroke-linejoin:round;">
      <line x1="50" x2="232" y1="50" style="clip-path:url(#clipPath20); fill:none;" y2="50" />
      <polygon style="clip-path:url(#clipPath20); stroke:none;" points=" 232 50 220 44 220 56" />
      <polygon style="fill:none; clip-path:url(#clipPath20);" points=" 232 50 220 44 220 56" />
    </g>
    <g transform="translate(326,525)" style="font-size:11; stroke-linecap:butt; text-rendering:geometricPrecision; font-family:sans-serif; stroke-linejoin:round;">
      <line x1="50" x2="282" y1="50" style="clip-path:url(#clipPath21); fill:none;" y2="50" />
      <polygon style="clip-path:url(#clipPath21); stroke:none;" points=" 282 50 270 44 270 56" />
      <polygon style="fill:none; clip-path:url(#clipPath21);" points=" 282 50 270 44 270 56" />
    </g>
    <g transform="translate(566,535)" style="font-size:11; stroke-linecap:butt; text-rendering:geometricPrecision; font-family:sans-serif; stroke-linejoin:round;">
      <line x1="50" x2="76" y1="50" style="clip-path:url(#clipPath22); fill:none;" y2="50" />
      <line x1="76" x2="76" y1="50" style="clip-path:url(#clipPath22); fill:none;" y2="70" />
      <line x1="76" x2="54" y1="70" style="clip-path:url(#clipPath22); fill:none;" y2="70" />
      <polygon style="clip-path:url(#clipPath22); stroke:none;" points=" 54 70 66 76 66 64" />
      <polygon style="fill:none; clip-path:url(#clipPath22);" points=" 54 70 66 76 66 64" />
    </g>
    <g transform="translate(136,615)" style="font-size:11; stroke-linecap:butt; text-rendering:geometricPrecision; font-family:sans-serif; stroke-linejoin:round; stroke-dasharray:8,3; stroke-miterlimit:0;">
      <line x1="232" x2="50" y1="50" style="clip-path:url(#clipPath20); fill:none;" y2="50" />
      <line x1="50" x2="62" y1="50" style="clip-path:url(#clipPath20); fill:none; stroke-dasharray:none; stroke-miterlimit:10;" y2="56" />
      <line x1="50" x2="62" y1="50" style="clip-path:url(#clipPath20); fill:none; stroke-dasharray:none; stroke-miterlimit:10;" y2="44" />
    </g>
    <g transform="translate(326,635)" style="font-size:11; stroke-linecap:butt; text-rendering:geometricPrecision; font-family:sans-serif; stroke-linejoin:round;">
      <line x1="50" x2="282" y1="50" style="clip-path:url(#clipPath21); fill:none;" y2="50" />
      <polygon style="clip-path:url(#clipPath21); stroke:none;" points=" 282 50 270 44 270 56" />
      <polygon style="fill:none; clip-path:url(#clipPath21);" points=" 282 50 270 44 270 56" />
    </g>
    <g transform="translate(566,655)" style="font-size:11; stroke-linecap:butt; text-rendering:geometricPrecision; font-family:sans-serif; stroke-linejoin:round;">
      <line x1="50" x2="76" y1="50" style="clip-path:url(#clipPath22); fill:none;" y2="50" />
      <line x1="76" x2="76" y1="50" style="clip-path:url(#clipPath22); fill:none;" y2="70" />
      <line x1="76" x2="54" y1="70" style="clip-path:url(#clipPath22); fill:none;" y2="70" />
      <polygon style="clip-path:url(#clipPath22); stroke:none;" points=" 54 70 66 76 66 64" />
      <polygon style="fill:none; clip-path:url(#clipPath22);" points=" 54 70 66 76 66 64" />
    </g>
    <g transform="translate(326,765)" style="font-size:11; stroke-linecap:butt; text-rendering:geometricPrecision; font-family:sans-serif; stroke-linejoin:round; stroke-dasharray:8,3; stroke-miterlimit:0;">
      <line x1="282" x2="50" y1="50" style="clip-path:url(#clipPath21); fill:none;" y2="50" />
      <line x1="50" x2="62" y1="50" style="clip-path:url(#clipPath21); fill:none; stroke-dasharray:none; stroke-miterlimit:10;" y2="56" />
      <line x1="50" x2="62" y1="50" style="clip-path:url(#clipPath21); fill:none; stroke-dasharray:none; stroke-miterlimit:10;" y2="44" />
    </g>
    <g transform="translate(136,795)" style="font-size:11; stroke-linecap:butt; text-rendering:geometricPrecision; font-family:sans-serif; stroke-linejoin:round; stroke-dasharray:8,3; stroke-miterlimit:0;">
      <line x1="232" x2="50" y1="50" style="clip-path:url(#clipPath20); fill:none;" y2="50" />
      <line x1="50" x2="62" y1="50" style="clip-path:url(#clipPath20); fill:none; stroke-dasharray:none; stroke-miterlimit:10;" y2="56" />
      <line x1="50" x2="62" y1="50" style="clip-path:url(#clipPath20); fill:none; stroke-dasharray:none; stroke-miterlimit:10;" y2="44" />
    </g>
    <g style="text-rendering:geometricPrecision; font-size:11; font-family:sans-serif;" transform="translate(225,822)">
      <text x="10" y="14" style="clip-path:url(#clipPath23); stroke:none;" xml:space="preserve">10: 顯示新增結果</text>
    </g>
    <g style="text-rendering:geometricPrecision; font-size:11; font-family:sans-serif;" transform="translate(433,792)">
      <text x="10" y="14" style="clip-path:url(#clipPath24); stroke:none;" xml:space="preserve">9.3.2: 回傳新增結果</text>
    </g>
    <g style="text-rendering:geometricPrecision; font-size:11; font-family:sans-serif;" transform="translate(642,705)">
      <text x="10" y="14" style="clip-path:url(#clipPath25); stroke:none;" xml:space="preserve">9.3.1: 新增群組</text>
    </g>
    <g style="text-rendering:geometricPrecision; font-size:11; font-family:sans-serif;" transform="translate(422,662)">
      <text x="10" y="14" style="clip-path:url(#clipPath26); stroke:none;" xml:space="preserve">9.3: 請求資料庫新增群組</text>
    </g>
    <g style="text-rendering:geometricPrecision; font-size:11; font-family:sans-serif;" transform="translate(207,642)">
      <text x="10" y="14" style="clip-path:url(#clipPath26); stroke:none;" xml:space="preserve">9.2: 詢問是否要新增成員</text>
    </g>
    <g style="text-rendering:geometricPrecision; font-size:11; font-family:sans-serif;" transform="translate(642,585)">
      <text x="10" y="14" style="clip-path:url(#clipPath27); stroke:none;" xml:space="preserve">9.1.1: 新增群組及組內人員資料</text>
    </g>
    <g style="text-rendering:geometricPrecision; font-size:11; font-family:sans-serif;" transform="translate(383,552)">
      <text x="10" y="14" style="clip-path:url(#clipPath28); stroke:none;" xml:space="preserve">9.1: 請求資料庫新增群組及組內人員資料</text>
    </g>
    <g style="text-rendering:geometricPrecision; font-size:11; font-family:sans-serif;" transform="translate(228,522)">
      <text x="10" y="14" style="clip-path:url(#clipPath29); stroke:none;" xml:space="preserve">9: 選擇加入成員</text>
    </g>
    <g style="text-rendering:geometricPrecision; font-size:11; font-family:sans-serif;" transform="translate(211,492)">
      <text x="10" y="14" style="clip-path:url(#clipPath30); stroke:none;" xml:space="preserve">8: 詢問是否要新增成員</text>
    </g>
    <g style="text-rendering:geometricPrecision; font-size:11; font-family:sans-serif;" transform="translate(239,442)">
      <text x="10" y="14" style="clip-path:url(#clipPath31); stroke:none;" xml:space="preserve">7: 新增群組</text>
    </g>
    <g style="text-rendering:geometricPrecision; font-size:11; font-family:sans-serif;" transform="translate(217,412)">
      <text x="10" y="14" style="clip-path:url(#clipPath32); stroke:none;" xml:space="preserve">6: 顯示群組新增頁面</text>
    </g>
    <g style="text-rendering:geometricPrecision; font-size:11; font-family:sans-serif;" transform="translate(217,382)">
      <text x="10" y="14" style="clip-path:url(#clipPath32); stroke:none;" xml:space="preserve">5: 開啟群組新增頁面</text>
    </g>
    <g style="text-rendering:geometricPrecision; font-size:11; font-family:sans-serif;" transform="translate(206,312)">
      <text x="10" y="14" style="clip-path:url(#clipPath33); stroke:none;" xml:space="preserve">4: 回傳新增群組成員結果</text>
    </g>
    <g style="text-rendering:geometricPrecision; font-size:11; font-family:sans-serif;" transform="translate(411,292)">
      <text x="10" y="14" style="clip-path:url(#clipPath34); stroke:none;" xml:space="preserve">3.1.2: 回傳新增群組成員結果</text>
    </g>
    <g style="text-rendering:geometricPrecision; font-size:11; font-family:sans-serif;" transform="translate(642,265)">
      <text x="10" y="14" style="clip-path:url(#clipPath35); stroke:none;" xml:space="preserve">3.1.1: 新增群組成員資料</text>
    </g>
    <g style="text-rendering:geometricPrecision; font-size:11; font-family:sans-serif;" transform="translate(411,232)">
      <text x="10" y="14" style="clip-path:url(#clipPath36); stroke:none;" xml:space="preserve">3.1: 請求資料庫新增群組成員</text>
    </g>
    <g style="text-rendering:geometricPrecision; font-size:11; font-family:sans-serif;" transform="translate(211,222)">
      <text x="10" y="14" style="clip-path:url(#clipPath30); stroke:none;" xml:space="preserve">3: 選擇群組並加入成員</text>
    </g>
    <g style="text-rendering:geometricPrecision; font-size:11; font-family:sans-serif;" transform="translate(228,152)">
      <text x="10" y="14" style="clip-path:url(#clipPath29); stroke:none;" xml:space="preserve">2: 顯示群組頁面</text>
    </g>
    <g style="text-rendering:geometricPrecision; font-size:11; font-family:sans-serif;" transform="translate(228,112)">
      <text x="10" y="14" style="clip-path:url(#clipPath29); stroke:none;" xml:space="preserve">1: 開啟群組頁面</text>
    </g>
    
  </g>
</svg>
