<?xml version="1.0" encoding="UTF-8"?>

<!DOCTYPE svg PUBLIC '-//W3C//DTD SVG 1.0//EN' 'http://www.w3.org/TR/2001/REC-SVG-20010904/DTD/svg10.dtd'>
<svg style="fill-opacity:1; color-rendering:auto; color-interpolation:auto; stroke:black; text-rendering:auto; stroke-linecap:square; stroke-miterlimit:10; stroke-opacity:1; shape-rendering:auto; fill:black; stroke-dasharray:none; font-weight:normal; stroke-width:1; font-family:&apos;Dialog&apos;; font-style:normal; stroke-linejoin:miter; font-size:12; stroke-dashoffset:0; image-rendering:auto;" xmlns="http://www.w3.org/2000/svg" width="526" xmlns:xlink="http://www.w3.org/1999/xlink" height="406">
  <!--Generated by the Batik Graphics2D SVG Generator-->
  <defs id="genericDefs" />
  <g>
    <defs id="defs1">
      <clipPath clipPathUnits="userSpaceOnUse" id="clipPath1">
        <path d="M-3 -3 L527 -3 L527 407 L-3 407 L-3 -3 Z" />
      </clipPath>
      <clipPath clipPathUnits="userSpaceOnUse" id="clipPath2">
        <path d="M0 0 L0 390 L7 390 L7 0 Z" />
      </clipPath>
      <clipPath clipPathUnits="userSpaceOnUse" id="clipPath3">
        <path d="M-3 -3 L297 -3 L297 24 L-3 24 L-3 -3 Z" />
      </clipPath>
      <clipPath clipPathUnits="userSpaceOnUse" id="clipPath4">
        <path d="M0 0 L290 0 L290 17 L0 17 L0 0 Z" />
      </clipPath>
      <clipPath clipPathUnits="userSpaceOnUse" id="clipPath5">
        <path d="M-3 -3 L297 -3 L297 390 L-3 390 L-3 -3 Z" />
      </clipPath>
      <clipPath clipPathUnits="userSpaceOnUse" id="clipPath6">
        <path d="M-3 -3 L237 -3 L237 24 L-3 24 L-3 -3 Z" />
      </clipPath>
      <clipPath clipPathUnits="userSpaceOnUse" id="clipPath7">
        <path d="M0 0 L230 0 L230 17 L0 17 L0 0 Z" />
      </clipPath>
      <clipPath clipPathUnits="userSpaceOnUse" id="clipPath8">
        <path d="M-3 -3 L237 -3 L237 390 L-3 390 L-3 -3 Z" />
      </clipPath>
      <clipPath clipPathUnits="userSpaceOnUse" id="clipPath9">
        <path d="M-3 -3 L47 -3 L47 27 L-3 27 L-3 -3 Z" />
      </clipPath>
      <clipPath clipPathUnits="userSpaceOnUse" id="clipPath10">
        <path d="M-3 -3 L107 -3 L107 47 L-3 47 L-3 -3 Z" />
      </clipPath>
      <clipPath clipPathUnits="userSpaceOnUse" id="clipPath11">
        <path d="M0 0 L100 0 L100 40 L0 40 L0 0 Z" />
      </clipPath>
      <clipPath clipPathUnits="userSpaceOnUse" id="clipPath12">
        <path d="M-3 -3 L87 -3 L87 47 L-3 47 L-3 -3 Z" />
      </clipPath>
      <clipPath clipPathUnits="userSpaceOnUse" id="clipPath13">
        <path d="M0 0 L80 0 L80 40 L0 40 L0 0 Z" />
      </clipPath>
      <clipPath clipPathUnits="userSpaceOnUse" id="clipPath14">
        <path d="M-3 -3 L27 -3 L27 47 L-3 47 L-3 -3 Z" />
      </clipPath>
      <clipPath clipPathUnits="userSpaceOnUse" id="clipPath15">
        <path d="M-3 -3 L27 -3 L27 27 L-3 27 L-3 -3 Z" />
      </clipPath>
      <clipPath clipPathUnits="userSpaceOnUse" id="clipPath16">
        <path d="M-3 -3 L67 -3 L67 47 L-3 47 L-3 -3 Z" />
      </clipPath>
      <clipPath clipPathUnits="userSpaceOnUse" id="clipPath17">
        <path d="M0 0 L60 0 L60 40 L0 40 L0 0 Z" />
      </clipPath>
      <clipPath clipPathUnits="userSpaceOnUse" id="clipPath18">
        <path d="M0 0 L230 0 L230 383 L0 383 L0 0 Z" />
      </clipPath>
      <clipPath clipPathUnits="userSpaceOnUse" id="clipPath19">
        <path d="M0 0 L290 0 L290 383 L0 383 L0 0 Z" />
      </clipPath>
      <clipPath clipPathUnits="userSpaceOnUse" id="clipPath20">
        <path d="M0 0 L145 0 L145 104 L0 104 L0 0 Z" />
      </clipPath>
      <clipPath clipPathUnits="userSpaceOnUse" id="clipPath21">
        <path d="M0 0 L325 0 L325 104 L0 104 L0 0 Z" />
      </clipPath>
      <clipPath clipPathUnits="userSpaceOnUse" id="clipPath22">
        <path d="M0 0 L365 0 L365 155 L0 155 L0 0 Z" />
      </clipPath>
      <clipPath clipPathUnits="userSpaceOnUse" id="clipPath23">
        <path d="M0 0 L104 0 L104 145 L0 145 L0 0 Z" />
      </clipPath>
      <clipPath clipPathUnits="userSpaceOnUse" id="clipPath24">
        <path d="M0 0 L104 0 L104 133 L0 133 L0 0 Z" />
      </clipPath>
      <clipPath clipPathUnits="userSpaceOnUse" id="clipPath25">
        <path d="M0 0 L338 0 L338 104 L0 104 L0 0 Z" />
      </clipPath>
      <clipPath clipPathUnits="userSpaceOnUse" id="clipPath26">
        <path d="M0 0 L275 0 L275 155 L0 155 L0 0 Z" />
      </clipPath>
      <clipPath clipPathUnits="userSpaceOnUse" id="clipPath27">
        <path d="M0 0 L104 0 L104 154 L0 154 L0 0 Z" />
      </clipPath>
      <clipPath clipPathUnits="userSpaceOnUse" id="clipPath28">
        <path d="M0 0 L155 0 L155 104 L0 104 L0 0 Z" />
      </clipPath>
      <clipPath clipPathUnits="userSpaceOnUse" id="clipPath29">
        <path d="M0 0 L48 0 L48 17 L0 17 L0 0 Z" />
      </clipPath>
    </defs>
    <g style="fill:white; text-rendering:geometricPrecision; stroke:white;">
      <rect x="0" y="0" width="526" style="stroke:none;" height="406" />
    </g>
    <g transform="translate(2,2)" style="text-rendering:geometricPrecision; stroke-width:2; font-size:11; font-family:sans-serif;">
      <rect x="0" y="0" width="290" style="clip-path:url(#clipPath3); fill:none;" height="17" />
    </g>
    <g style="text-rendering:geometricPrecision; font-size:11; font-family:sans-serif;" transform="translate(2,2)">
      <text x="128" y="14" style="clip-path:url(#clipPath4); stroke:none;" xml:space="preserve">使用者</text>
    </g>
    <g transform="translate(2,19)" style="text-rendering:geometricPrecision; stroke-width:2; font-size:11; font-family:sans-serif;">
      <rect x="0" y="0" width="290" style="clip-path:url(#clipPath5); fill:none;" height="383" />
    </g>
    <g transform="translate(292,2)" style="text-rendering:geometricPrecision; stroke-width:2; font-size:11; font-family:sans-serif;">
      <rect x="0" y="0" width="230" style="clip-path:url(#clipPath6); fill:none;" height="17" />
    </g>
    <g style="text-rendering:geometricPrecision; font-size:11; font-family:sans-serif;" transform="translate(292,2)">
      <text x="98" y="14" style="clip-path:url(#clipPath7); stroke:none;" xml:space="preserve">伺服器</text>
    </g>
    <g transform="translate(292,19)" style="text-rendering:geometricPrecision; stroke-width:2; font-size:11; font-family:sans-serif;">
      <rect x="0" y="0" width="230" style="clip-path:url(#clipPath8); fill:none;" height="383" />
    </g>
    <g style="text-rendering:geometricPrecision; font-size:11; font-family:sans-serif;" transform="translate(12,52)">
      <circle style="clip-path:url(#clipPath9); stroke:none;" r="10" cx="20" cy="10" />
    </g>
    <g transform="translate(82,42)" style="font-size:11; fill:rgb(122,207,245); text-rendering:geometricPrecision; font-family:sans-serif; stroke:rgb(122,207,245);">
      <rect x="1" y="1" width="98" style="clip-path:url(#clipPath10); stroke:none;" rx="15" ry="15" height="38" />
    </g>
    <g transform="translate(82,42)" style="font-size:11; stroke-linecap:butt; text-rendering:geometricPrecision; font-family:sans-serif; stroke-linejoin:round; stroke-miterlimit:0;">
      <rect x="1" y="1" width="98" style="clip-path:url(#clipPath10); fill:none;" rx="15" ry="15" height="38" />
    </g>
    <g style="text-rendering:geometricPrecision; font-size:11; font-family:sans-serif;" transform="translate(82,42)">
      <text x="6" y="25" style="clip-path:url(#clipPath11); stroke:none;" xml:space="preserve">開啟朋友編輯頁面</text>
    </g>
    <g transform="translate(82,192)" style="font-size:11; fill:rgb(122,207,245); text-rendering:geometricPrecision; font-family:sans-serif; stroke:rgb(122,207,245);">
      <rect x="1" y="1" width="98" style="clip-path:url(#clipPath10); stroke:none;" rx="15" ry="15" height="38" />
    </g>
    <g transform="translate(82,192)" style="font-size:11; stroke-linecap:butt; text-rendering:geometricPrecision; font-family:sans-serif; stroke-linejoin:round; stroke-miterlimit:0;">
      <rect x="1" y="1" width="98" style="clip-path:url(#clipPath10); fill:none;" rx="15" ry="15" height="38" />
    </g>
    <g style="text-rendering:geometricPrecision; font-size:11; font-family:sans-serif;" transform="translate(82,192)">
      <text x="17" y="25" style="clip-path:url(#clipPath11); stroke:none;" xml:space="preserve">編輯朋友備註</text>
    </g>
    <g transform="translate(402,42)" style="font-size:11; fill:rgb(122,207,245); text-rendering:geometricPrecision; font-family:sans-serif; stroke:rgb(122,207,245);">
      <rect x="1" y="1" width="78" style="clip-path:url(#clipPath12); stroke:none;" rx="15" ry="15" height="38" />
    </g>
    <g transform="translate(402,42)" style="font-size:11; stroke-linecap:butt; text-rendering:geometricPrecision; font-family:sans-serif; stroke-linejoin:round; stroke-miterlimit:0;">
      <rect x="1" y="1" width="78" style="clip-path:url(#clipPath12); fill:none;" rx="15" ry="15" height="38" />
    </g>
    <g style="text-rendering:geometricPrecision; font-size:11; font-family:sans-serif;" transform="translate(402,42)">
      <text x="7" y="25" style="clip-path:url(#clipPath13); stroke:none;" xml:space="preserve">查詢朋友資訊</text>
    </g>
    <g transform="translate(82,112)" style="font-size:11; fill:rgb(122,207,245); text-rendering:geometricPrecision; font-family:sans-serif; stroke:rgb(122,207,245);">
      <rect x="1" y="1" width="98" style="clip-path:url(#clipPath10); stroke:none;" rx="15" ry="15" height="38" />
    </g>
    <g transform="translate(82,112)" style="font-size:11; stroke-linecap:butt; text-rendering:geometricPrecision; font-family:sans-serif; stroke-linejoin:round; stroke-miterlimit:0;">
      <rect x="1" y="1" width="98" style="clip-path:url(#clipPath10); fill:none;" rx="15" ry="15" height="38" />
    </g>
    <g style="text-rendering:geometricPrecision; font-size:11; font-family:sans-serif;" transform="translate(82,112)">
      <text x="17" y="25" style="clip-path:url(#clipPath11); stroke:none;" xml:space="preserve">顯示朋友資訊</text>
    </g>
    <g transform="translate(122,252)" style="font-size:11; fill:rgb(122,207,245); text-rendering:geometricPrecision; font-family:sans-serif; stroke:rgb(122,207,245);">
      <polygon style="clip-path:url(#clipPath14); stroke:none;" points=" 10 7 17 20 10 32 3 20" />
    </g>
    <g transform="translate(122,252)" style="font-size:11; stroke-linecap:butt; text-rendering:geometricPrecision; font-family:sans-serif; stroke-linejoin:round; stroke-miterlimit:0;">
      <polygon style="fill:none; clip-path:url(#clipPath14);" points=" 10 7 17 20 10 32 3 20" />
    </g>
    <g style="text-rendering:geometricPrecision; font-size:11; font-family:sans-serif;" transform="translate(122,332)">
      <circle style="clip-path:url(#clipPath15); stroke:none;" r="6.6667" cx="10" cy="10" />
      <circle style="stroke-linecap:butt; clip-path:url(#clipPath15); fill:none; stroke-linejoin:round; stroke-miterlimit:0;" r="10" cx="10" cy="10" />
    </g>
    <g transform="translate(372,252)" style="font-size:11; fill:rgb(122,207,245); text-rendering:geometricPrecision; font-family:sans-serif; stroke:rgb(122,207,245);">
      <rect x="1" y="1" width="98" style="clip-path:url(#clipPath10); stroke:none;" rx="15" ry="15" height="38" />
    </g>
    <g transform="translate(372,252)" style="font-size:11; stroke-linecap:butt; text-rendering:geometricPrecision; font-family:sans-serif; stroke-linejoin:round; stroke-miterlimit:0;">
      <rect x="1" y="1" width="98" style="clip-path:url(#clipPath10); fill:none;" rx="15" ry="15" height="38" />
    </g>
    <g style="text-rendering:geometricPrecision; font-size:11; font-family:sans-serif;" transform="translate(372,252)">
      <text x="17" y="25" style="clip-path:url(#clipPath11); stroke:none;" xml:space="preserve">修改朋友備註</text>
    </g>
    <g transform="translate(192,322)" style="font-size:11; fill:rgb(122,207,245); text-rendering:geometricPrecision; font-family:sans-serif; stroke:rgb(122,207,245);">
      <rect x="1" y="1" width="58" style="clip-path:url(#clipPath16); stroke:none;" rx="15" ry="15" height="38" />
    </g>
    <g transform="translate(192,322)" style="font-size:11; stroke-linecap:butt; text-rendering:geometricPrecision; font-family:sans-serif; stroke-linejoin:round; stroke-miterlimit:0;">
      <rect x="1" y="1" width="58" style="clip-path:url(#clipPath16); fill:none;" rx="15" ry="15" height="38" />
    </g>
    <g style="text-rendering:geometricPrecision; font-size:11; font-family:sans-serif;" transform="translate(192,322)">
      <text x="8" y="25" style="clip-path:url(#clipPath17); stroke:none;" xml:space="preserve">修改成功</text>
    </g>
    <g transform="translate(-9,12)" style="font-size:11; stroke-linecap:butt; text-rendering:geometricPrecision; font-family:sans-serif; stroke-linejoin:round;">
      <line x1="50" x2="91" y1="50" style="clip-path:url(#clipPath20); fill:none;" y2="50" />
      <line x1="91" x2="79" y1="50" style="clip-path:url(#clipPath20); fill:none;" y2="44" />
      <line x1="91" x2="79" y1="50" style="clip-path:url(#clipPath20); fill:none;" y2="56" />
    </g>
    <g transform="translate(131,12)" style="font-size:11; stroke-linecap:butt; text-rendering:geometricPrecision; font-family:sans-serif; stroke-linejoin:round;">
      <line x1="50" x2="271" y1="50" style="clip-path:url(#clipPath21); fill:none;" y2="50" />
      <line x1="271" x2="259" y1="50" style="clip-path:url(#clipPath21); fill:none;" y2="44" />
      <line x1="271" x2="259" y1="50" style="clip-path:url(#clipPath21); fill:none;" y2="56" />
    </g>
    <g transform="translate(131,31)" style="font-size:11; stroke-linecap:butt; text-rendering:geometricPrecision; font-family:sans-serif; stroke-linejoin:round;">
      <line x1="311" x2="311" y1="50" style="clip-path:url(#clipPath22); fill:none;" y2="101" />
      <line x1="311" x2="50" y1="101" style="clip-path:url(#clipPath22); fill:none;" y2="101" />
      <line x1="50" x2="62" y1="101" style="clip-path:url(#clipPath22); fill:none;" y2="107" />
      <line x1="50" x2="62" y1="101" style="clip-path:url(#clipPath22); fill:none;" y2="95" />
    </g>
    <g transform="translate(82,101)" style="font-size:11; stroke-linecap:butt; text-rendering:geometricPrecision; font-family:sans-serif; stroke-linejoin:round;">
      <line x1="50" x2="50" y1="50" style="clip-path:url(#clipPath23); fill:none;" y2="91" />
      <line x1="50" x2="56" y1="91" style="clip-path:url(#clipPath23); fill:none;" y2="79" />
      <line x1="50" x2="44" y1="91" style="clip-path:url(#clipPath23); fill:none;" y2="79" />
    </g>
    <g transform="translate(82,181)" style="font-size:11; stroke-linecap:butt; text-rendering:geometricPrecision; font-family:sans-serif; stroke-linejoin:round;">
      <line x1="50" x2="50" y1="50" style="clip-path:url(#clipPath24); fill:none;" y2="79" />
      <line x1="50" x2="56" y1="79" style="clip-path:url(#clipPath24); fill:none;" y2="67" />
      <line x1="50" x2="44" y1="79" style="clip-path:url(#clipPath24); fill:none;" y2="67" />
    </g>
    <g transform="translate(88,222)" style="font-size:11; stroke-linecap:butt; text-rendering:geometricPrecision; font-family:sans-serif; stroke-linejoin:round;">
      <line x1="50" x2="284" y1="50" style="clip-path:url(#clipPath25); fill:none;" y2="50" />
      <line x1="284" x2="272" y1="50" style="clip-path:url(#clipPath25); fill:none;" y2="44" />
      <line x1="284" x2="272" y1="50" style="clip-path:url(#clipPath25); fill:none;" y2="56" />
    </g>
    <g transform="translate(201,241)" style="font-size:11; stroke-linecap:butt; text-rendering:geometricPrecision; font-family:sans-serif; stroke-linejoin:round;">
      <line x1="221" x2="221" y1="50" style="clip-path:url(#clipPath26); fill:none;" y2="101" />
      <line x1="221" x2="50" y1="101" style="clip-path:url(#clipPath26); fill:none;" y2="101" />
      <line x1="50" x2="62" y1="101" style="clip-path:url(#clipPath26); fill:none;" y2="107" />
      <line x1="50" x2="62" y1="101" style="clip-path:url(#clipPath26); fill:none;" y2="95" />
    </g>
    <g transform="translate(82,233)" style="font-size:11; stroke-linecap:butt; text-rendering:geometricPrecision; font-family:sans-serif; stroke-linejoin:round;">
      <line x1="50" x2="50" y1="50" style="clip-path:url(#clipPath27); fill:none;" y2="100" />
      <line x1="50" x2="56" y1="100" style="clip-path:url(#clipPath27); fill:none;" y2="88" />
      <line x1="50" x2="44" y1="100" style="clip-path:url(#clipPath27); fill:none;" y2="88" />
    </g>
    <g transform="translate(91,292)" style="font-size:11; stroke-linecap:butt; text-rendering:geometricPrecision; font-family:sans-serif; stroke-linejoin:round;">
      <line x1="101" x2="50" y1="50" style="clip-path:url(#clipPath28); fill:none;" y2="50" />
      <line x1="50" x2="62" y1="50" style="clip-path:url(#clipPath28); fill:none;" y2="56" />
      <line x1="50" x2="62" y1="50" style="clip-path:url(#clipPath28); fill:none;" y2="44" />
    </g>
    <g style="text-rendering:geometricPrecision; font-size:11; font-family:sans-serif;" transform="translate(92,282)">
      <text x="10" y="14" style="clip-path:url(#clipPath29); stroke:none;" xml:space="preserve">[取消]</text>
    </g>
    <g style="text-rendering:geometricPrecision; font-size:11; font-family:sans-serif;" transform="translate(135,252)">
      <text x="10" y="14" style="clip-path:url(#clipPath29); stroke:none;" xml:space="preserve">[確定]</text>
    </g>
   
  </g>
</svg>
