<?xml version="1.0" encoding="UTF-8"?>

<!DOCTYPE svg PUBLIC '-//W3C//DTD SVG 1.0//EN' 'http://www.w3.org/TR/2001/REC-SVG-20010904/DTD/svg10.dtd'>
<svg style="fill-opacity:1; color-rendering:auto; color-interpolation:auto; stroke:black; text-rendering:auto; stroke-linecap:square; stroke-miterlimit:10; stroke-opacity:1; shape-rendering:auto; fill:black; stroke-dasharray:none; font-weight:normal; stroke-width:1; font-family:&apos;Dialog&apos;; font-style:normal; stroke-linejoin:miter; font-size:12; stroke-dashoffset:0; image-rendering:auto;" xmlns="http://www.w3.org/2000/svg" width="756" xmlns:xlink="http://www.w3.org/1999/xlink" height="709">
  <!--Generated by the Batik Graphics2D SVG Generator-->
  <defs id="genericDefs" />
  <g>
    <defs id="defs1">
      <clipPath clipPathUnits="userSpaceOnUse" id="clipPath1">
        <path d="M-3 -3 L87 -3 L87 667 L-3 667 L-3 -3 Z" />
      </clipPath>
      <clipPath clipPathUnits="userSpaceOnUse" id="clipPath2">
        <path d="M-3 -3 L67 -3 L67 667 L-3 667 L-3 -3 Z" />
      </clipPath>
      <clipPath clipPathUnits="userSpaceOnUse" id="clipPath3">
        <path d="M-3 -3 L15 -3 L15 478 L-3 478 L-3 -3 Z" />
      </clipPath>
      <clipPath clipPathUnits="userSpaceOnUse" id="clipPath4">
        <path d="M-3 -3 L737 -3 L737 567 L-3 567 L-3 -3 Z" />
      </clipPath>
      <clipPath clipPathUnits="userSpaceOnUse" id="clipPath5">
        <path d="M0 0 L23 0 L23 20 L0 20 L0 0 Z" />
      </clipPath>
      <clipPath clipPathUnits="userSpaceOnUse" id="clipPath6">
        <path d="M-3 -3 L15 -3 L15 436 L-3 436 L-3 -3 Z" />
      </clipPath>
      <clipPath clipPathUnits="userSpaceOnUse" id="clipPath7">
        <path d="M-3 -3 L15 -3 L15 27 L-3 27 L-3 -3 Z" />
      </clipPath>
      <clipPath clipPathUnits="userSpaceOnUse" id="clipPath8">
        <path d="M-3 -3 L737 -3 L737 171 L-3 171 L-3 -3 Z" />
      </clipPath>
      <clipPath clipPathUnits="userSpaceOnUse" id="clipPath9">
        <path d="M0 0 L59 0 L59 17 L0 17 L0 0 Z" />
      </clipPath>
      <clipPath clipPathUnits="userSpaceOnUse" id="clipPath10">
        <path d="M0 0 L0 4 L730 4 L730 0 Z" />
      </clipPath>
      <clipPath clipPathUnits="userSpaceOnUse" id="clipPath11">
        <path d="M-3 -3 L15 -3 L15 19 L-3 19 L-3 -3 Z" />
      </clipPath>
      <clipPath clipPathUnits="userSpaceOnUse" id="clipPath12">
        <path d="M-3 -3 L737 -3 L737 383 L-3 383 L-3 -3 Z" />
      </clipPath>
      <clipPath clipPathUnits="userSpaceOnUse" id="clipPath13">
        <path d="M-3 -3 L597 -3 L597 267 L-3 267 L-3 -3 Z" />
      </clipPath>
      <clipPath clipPathUnits="userSpaceOnUse" id="clipPath14">
        <path d="M-3 -3 L597 -3 L597 113 L-3 113 L-3 -3 Z" />
      </clipPath>
      <clipPath clipPathUnits="userSpaceOnUse" id="clipPath15">
        <path d="M0 0 L70 0 L70 17 L0 17 L0 0 Z" />
      </clipPath>
      <clipPath clipPathUnits="userSpaceOnUse" id="clipPath16">
        <path d="M0 0 L0 4 L590 4 L590 0 Z" />
      </clipPath>
      <clipPath clipPathUnits="userSpaceOnUse" id="clipPath17">
        <path d="M-3 -3 L597 -3 L597 141 L-3 141 L-3 -3 Z" />
      </clipPath>
      <clipPath clipPathUnits="userSpaceOnUse" id="clipPath18">
        <path d="M0 0 L60 0 L60 17 L0 17 L0 0 Z" />
      </clipPath>
      <clipPath clipPathUnits="userSpaceOnUse" id="clipPath19">
        <path d="M0 0 L53 0 L53 17 L0 17 L0 0 Z" />
      </clipPath>
      <clipPath clipPathUnits="userSpaceOnUse" id="clipPath20">
        <path d="M0 0 L266 0 L266 104 L0 104 L0 0 Z" />
      </clipPath>
      <clipPath clipPathUnits="userSpaceOnUse" id="clipPath21">
        <path d="M0 0 L256 0 L256 104 L0 104 L0 0 Z" />
      </clipPath>
      <clipPath clipPathUnits="userSpaceOnUse" id="clipPath22">
        <path d="M0 0 L130 0 L130 124 L0 124 L0 0 Z" />
      </clipPath>
      <clipPath clipPathUnits="userSpaceOnUse" id="clipPath23">
        <path d="M0 0 L107 0 L107 17 L0 17 L0 0 Z" />
      </clipPath>
      <clipPath clipPathUnits="userSpaceOnUse" id="clipPath24">
        <path d="M0 0 L95 0 L95 17 L0 17 L0 0 Z" />
      </clipPath>
      <clipPath clipPathUnits="userSpaceOnUse" id="clipPath25">
        <path d="M0 0 L98 0 L98 17 L0 17 L0 0 Z" />
      </clipPath>
      <clipPath clipPathUnits="userSpaceOnUse" id="clipPath26">
        <path d="M0 0 L117 0 L117 17 L0 17 L0 0 Z" />
      </clipPath>
      <clipPath clipPathUnits="userSpaceOnUse" id="clipPath27">
        <path d="M0 0 L129 0 L129 17 L0 17 L0 0 Z" />
      </clipPath>
      <clipPath clipPathUnits="userSpaceOnUse" id="clipPath28">
        <path d="M0 0 L87 0 L87 17 L0 17 L0 0 Z" />
      </clipPath>
      <clipPath clipPathUnits="userSpaceOnUse" id="clipPath29">
        <path d="M0 0 L76 0 L76 17 L0 17 L0 0 Z" />
      </clipPath>
    </defs>
    <g style="fill:white; text-rendering:geometricPrecision; stroke:white;">
      <rect x="0" y="0" width="756" style="stroke:none;" height="709" />
      <rect x="18" y="38" transform="translate(-18,-38)" width="755" style="fill:none; stroke:black;" height="708" />
      <text x="25" y="57" transform="translate(-18,-38)" style="fill:black; stroke:none; font-weight:bold;" xml:space="preserve">sd</text>
      <text x="46" y="57" transform="translate(-18,-38)" style="fill:black; stroke:none;" xml:space="preserve">登入循序圖</text>
      <line transform="translate(-18,-38)" x1="18" x2="106" y1="64" style="fill:none; stroke:black;" y2="64" />
      <line transform="translate(-18,-38)" x1="112" x2="112" y1="38" style="fill:none; stroke:black;" y2="53" />
      <line transform="translate(-18,-38)" x1="112" x2="106" y1="53" style="fill:none; stroke:black;" y2="64" />
    </g>
    <g transform="translate(172,35)" style="font-size:11; fill:rgb(122,207,245); text-rendering:geometricPrecision; font-family:sans-serif; stroke:rgb(122,207,245);">
      <circle style="clip-path:url(#clipPath1); stroke:none;" r="5" cx="40" cy="5" />
      <rect x="36" y="52" width="8" style="clip-path:url(#clipPath1); stroke:none;" height="607" />
    </g>
    <g transform="translate(172,35)" style="font-size:11; stroke-linecap:butt; text-rendering:geometricPrecision; font-family:sans-serif; stroke-linejoin:round; stroke-miterlimit:0;">
      <circle style="fill:none; clip-path:url(#clipPath1);" r="5" cx="40" cy="5" />
      <rect x="36" y="52" width="8" style="clip-path:url(#clipPath1); fill:none;" height="607" />
      <line x1="40" x2="40" y1="10" style="clip-path:url(#clipPath1); fill:none;" y2="25" />
      <line x1="40" x2="31" y1="25" style="clip-path:url(#clipPath1); fill:none;" y2="36" />
      <line x1="40" x2="49" y1="25" style="clip-path:url(#clipPath1); fill:none;" y2="36" />
      <line x1="31" x2="49" y1="16" style="clip-path:url(#clipPath1); fill:none;" y2="16" />
    </g>
    <g transform="translate(352,35)" style="font-size:11; fill:rgb(122,207,245); text-rendering:geometricPrecision; font-family:sans-serif; stroke:rgb(122,207,245);">
      <rect x="0" y="0" width="59" style="clip-path:url(#clipPath2); stroke:none;" height="35" />
    </g>
    <g transform="translate(352,35)" style="font-size:11; stroke-linecap:butt; text-rendering:geometricPrecision; font-family:sans-serif; stroke-linejoin:round; stroke-miterlimit:0;">
      <rect x="0" y="0" width="59" style="clip-path:url(#clipPath2); fill:none;" height="35" />
      <line x1="29" x2="29" y1="35" style="clip-path:url(#clipPath2); fill:none; stroke-linejoin:bevel; stroke-dasharray:8,3;" y2="660" />
    </g>
    <g transform="translate(378,139)" style="font-size:11; fill:rgb(122,207,245); text-rendering:geometricPrecision; font-family:sans-serif; stroke:rgb(122,207,245);">
      <rect x="0" y="0" width="8" style="clip-path:url(#clipPath3); stroke:none;" height="471" />
    </g>
    <g transform="translate(378,139)" style="font-size:11; stroke-linecap:butt; text-rendering:geometricPrecision; font-family:sans-serif; stroke-linejoin:round; stroke-miterlimit:0;">
      <rect x="0" y="0" width="8" style="clip-path:url(#clipPath3); fill:none;" height="471" />
    </g>
    <g transform="translate(512,35)" style="font-size:11; fill:rgb(122,207,245); text-rendering:geometricPrecision; font-family:sans-serif; stroke:rgb(122,207,245);">
      <rect x="0" y="0" width="59" style="clip-path:url(#clipPath2); stroke:none;" height="35" />
    </g>
    <g transform="translate(512,35)" style="font-size:11; stroke-linecap:butt; text-rendering:geometricPrecision; font-family:sans-serif; stroke-linejoin:round; stroke-miterlimit:0;">
      <rect x="0" y="0" width="59" style="clip-path:url(#clipPath2); fill:none;" height="35" />
      <line x1="29" x2="29" y1="35" style="clip-path:url(#clipPath2); fill:none; stroke-linejoin:bevel; stroke-dasharray:8,3;" y2="660" />
    </g>
    <g transform="translate(12,115)" style="font-size:11; stroke-linecap:butt; text-rendering:geometricPrecision; font-family:sans-serif; stroke-linejoin:round; font-weight:bold; stroke-miterlimit:0;">
      <rect x="0" y="0" width="730" style="clip-path:url(#clipPath4); fill:none;" height="560" />
    </g>
    <g transform="translate(12,115)" style="font-size:11; fill:white; text-rendering:geometricPrecision; font-family:sans-serif; stroke:white; font-weight:bold;">
      <path d="M22 0 L22 10 L16 19 L0 19 L0 0 Z" style="clip-path:url(#clipPath4); stroke:none;" />
    </g>
    <g transform="translate(12,115)" style="font-size:11; stroke-linecap:butt; text-rendering:geometricPrecision; font-family:sans-serif; stroke-linejoin:round; font-weight:bold; stroke-miterlimit:0;">
      <path d="M22 0 L22 10 L16 19 L0 19 L0 0 Z" style="fill:none; clip-path:url(#clipPath4);" />
    </g>
    <g transform="translate(12,115)" style="text-rendering:geometricPrecision; font-size:11; font-weight:bold; font-family:sans-serif;">
      <text x="5" y="14" style="clip-path:url(#clipPath5); stroke:none;" xml:space="preserve">alt</text>
    </g>
    <g transform="translate(538,170)" style="font-size:11; fill:rgb(122,207,245); text-rendering:geometricPrecision; font-family:sans-serif; stroke:rgb(122,207,245);">
      <rect x="0" y="0" width="8" style="clip-path:url(#clipPath6); stroke:none;" height="429" />
    </g>
    <g transform="translate(538,170)" style="font-size:11; stroke-linecap:butt; text-rendering:geometricPrecision; font-family:sans-serif; stroke-linejoin:round; stroke-miterlimit:0;">
      <rect x="0" y="0" width="8" style="clip-path:url(#clipPath6); fill:none;" height="429" />
    </g>
    <g transform="translate(542,395)" style="font-size:11; fill:rgb(122,207,245); text-rendering:geometricPrecision; font-family:sans-serif; stroke:rgb(122,207,245);">
      <rect x="0" y="0" width="8" style="clip-path:url(#clipPath7); stroke:none;" height="20" />
    </g>
    <g transform="translate(542,395)" style="font-size:11; stroke-linecap:butt; text-rendering:geometricPrecision; font-family:sans-serif; stroke-linejoin:round; stroke-miterlimit:0;">
      <rect x="0" y="0" width="8" style="clip-path:url(#clipPath7); fill:none;" height="20" />
    </g>
    <g transform="translate(12,135)" style="font-size:11; fill:white; text-rendering:geometricPrecision; font-family:sans-serif; stroke:white;">
      <rect x="28" y="5" width="59" style="clip-path:url(#clipPath8); stroke:none;" height="17" />
    </g>
    <g transform="translate(12,135)" style="font-size:11; stroke-linecap:butt; text-rendering:geometricPrecision; font-family:sans-serif; stroke-linejoin:bevel; stroke-dasharray:5,2; stroke-miterlimit:0;">
      <line x1="0" x2="729" y1="163" style="clip-path:url(#clipPath8); fill:none;" y2="163" />
    </g>
    <g style="text-rendering:geometricPrecision; font-size:11; font-family:sans-serif;" transform="translate(40,140)">
      <text x="10" y="14" style="clip-path:url(#clipPath9); stroke:none;" xml:space="preserve">[已登入]</text>
    </g>
    <g transform="translate(542,215)" style="font-size:11; fill:rgb(122,207,245); text-rendering:geometricPrecision; font-family:sans-serif; stroke:rgb(122,207,245);">
      <rect x="0" y="0" width="8" style="clip-path:url(#clipPath11); stroke:none;" height="12" />
    </g>
    <g transform="translate(542,215)" style="font-size:11; stroke-linecap:butt; text-rendering:geometricPrecision; font-family:sans-serif; stroke-linejoin:round; stroke-miterlimit:0;">
      <rect x="0" y="0" width="8" style="clip-path:url(#clipPath11); fill:none;" height="12" />
    </g>
    <g transform="translate(12,299)" style="font-size:11; fill:white; text-rendering:geometricPrecision; font-family:sans-serif; stroke:white;">
      <rect x="28" y="5" width="59" style="clip-path:url(#clipPath12); stroke:none;" height="17" />
    </g>
    <g style="text-rendering:geometricPrecision; font-size:11; font-family:sans-serif;" transform="translate(40,304)">
      <text x="10" y="14" style="clip-path:url(#clipPath9); stroke:none;" xml:space="preserve">[未登入]</text>
    </g>
    <g transform="translate(102,355)" style="font-size:11; stroke-linecap:butt; text-rendering:geometricPrecision; font-family:sans-serif; stroke-linejoin:round; font-weight:bold; stroke-miterlimit:0;">
      <rect x="0" y="0" width="590" style="clip-path:url(#clipPath13); fill:none;" height="260" />
    </g>
    <g transform="translate(102,355)" style="font-size:11; fill:white; text-rendering:geometricPrecision; font-family:sans-serif; stroke:white; font-weight:bold;">
      <path d="M22 0 L22 10 L16 19 L0 19 L0 0 Z" style="clip-path:url(#clipPath13); stroke:none;" />
    </g>
    <g transform="translate(102,355)" style="font-size:11; stroke-linecap:butt; text-rendering:geometricPrecision; font-family:sans-serif; stroke-linejoin:round; font-weight:bold; stroke-miterlimit:0;">
      <path d="M22 0 L22 10 L16 19 L0 19 L0 0 Z" style="fill:none; clip-path:url(#clipPath13);" />
    </g>
    <g transform="translate(102,355)" style="text-rendering:geometricPrecision; font-size:11; font-weight:bold; font-family:sans-serif;">
      <text x="5" y="14" style="clip-path:url(#clipPath5); stroke:none;" xml:space="preserve">alt</text>
    </g>
    <g transform="translate(102,375)" style="font-size:11; fill:white; text-rendering:geometricPrecision; font-family:sans-serif; stroke:white;">
      <rect x="28" y="5" width="70" style="clip-path:url(#clipPath14); stroke:none;" height="17" />
    </g>
    <g transform="translate(102,375)" style="font-size:11; stroke-linecap:butt; text-rendering:geometricPrecision; font-family:sans-serif; stroke-linejoin:bevel; stroke-dasharray:5,2; stroke-miterlimit:0;">
      <line x1="0" x2="589" y1="105" style="clip-path:url(#clipPath14); fill:none;" y2="105" />
    </g>
    <g style="text-rendering:geometricPrecision; font-size:11; font-family:sans-serif;" transform="translate(130,380)">
      <text x="10" y="14" style="clip-path:url(#clipPath15); stroke:none;" xml:space="preserve">[密碼正確]</text>
    </g>
    <g transform="translate(102,480)" style="font-size:11; fill:white; text-rendering:geometricPrecision; font-family:sans-serif; stroke:white;">
      <rect x="28" y="5" width="70" style="clip-path:url(#clipPath17); stroke:none;" height="17" />
    </g>
    <g style="text-rendering:geometricPrecision; font-size:11; font-family:sans-serif;" transform="translate(130,485)">
      <text x="10" y="14" style="clip-path:url(#clipPath15); stroke:none;" xml:space="preserve">[密碼錯誤]</text>
    </g>
    <g transform="translate(542,545)" style="font-size:11; fill:rgb(122,207,245); text-rendering:geometricPrecision; font-family:sans-serif; stroke:rgb(122,207,245);">
      <rect x="0" y="0" width="8" style="clip-path:url(#clipPath11); stroke:none;" height="12" />
    </g>
    <g transform="translate(542,545)" style="font-size:11; stroke-linecap:butt; text-rendering:geometricPrecision; font-family:sans-serif; stroke-linejoin:round; stroke-miterlimit:0;">
      <rect x="0" y="0" width="8" style="clip-path:url(#clipPath11); fill:none;" height="12" />
    </g>
    <g style="text-rendering:geometricPrecision; font-size:11; font-family:sans-serif;" transform="translate(512,35)">
      <text x="13" y="14" style="clip-path:url(#clipPath18); stroke:none;" xml:space="preserve">資料庫</text>
    </g>
    <g style="text-rendering:geometricPrecision; font-size:11; font-family:sans-serif;" transform="translate(352,35)">
      <text x="19" y="14" style="clip-path:url(#clipPath18); stroke:none;" xml:space="preserve">系統</text>
    </g>
    <g style="text-rendering:geometricPrecision; font-size:11; font-family:sans-serif;" transform="translate(186,70)">
      <text x="10" y="14" style="clip-path:url(#clipPath19); stroke:none;" xml:space="preserve">使用者</text>
    </g>
    <g transform="translate(166,275)" style="font-size:11; stroke-linecap:butt; text-rendering:geometricPrecision; font-family:sans-serif; stroke-linejoin:round;">
      <line x1="50" x2="212" y1="50" style="clip-path:url(#clipPath20); fill:none;" y2="50" />
      <polygon style="clip-path:url(#clipPath20); stroke:none;" points=" 212 50 200 44 200 56" />
      <polygon style="fill:none; clip-path:url(#clipPath20);" points=" 212 50 200 44 200 56" />
    </g>
    <g transform="translate(336,295)" style="font-size:11; stroke-linecap:butt; text-rendering:geometricPrecision; font-family:sans-serif; stroke-linejoin:round;">
      <line x1="50" x2="202" y1="50" style="clip-path:url(#clipPath21); fill:none;" y2="50" />
      <polygon style="clip-path:url(#clipPath21); stroke:none;" points=" 202 50 190 44 190 56" />
      <polygon style="fill:none; clip-path:url(#clipPath21);" points=" 202 50 190 44 190 56" />
    </g>
    <g transform="translate(496,325)" style="font-size:11; stroke-linecap:butt; text-rendering:geometricPrecision; font-family:sans-serif; stroke-linejoin:round;">
      <line x1="50" x2="76" y1="50" style="clip-path:url(#clipPath22); fill:none;" y2="50" />
      <line x1="76" x2="76" y1="50" style="clip-path:url(#clipPath22); fill:none;" y2="70" />
      <line x1="76" x2="54" y1="70" style="clip-path:url(#clipPath22); fill:none;" y2="70" />
      <polygon style="clip-path:url(#clipPath22); stroke:none;" points=" 54 70 66 76 66 64" />
      <polygon style="fill:none; clip-path:url(#clipPath22);" points=" 54 70 66 76 66 64" />
    </g>
    <g transform="translate(336,365)" style="font-size:11; stroke-linecap:butt; text-rendering:geometricPrecision; font-family:sans-serif; stroke-linejoin:round; stroke-dasharray:8,3; stroke-miterlimit:0;">
      <line x1="202" x2="50" y1="50" style="clip-path:url(#clipPath21); fill:none;" y2="50" />
      <line x1="50" x2="62" y1="50" style="clip-path:url(#clipPath21); fill:none; stroke-dasharray:none; stroke-miterlimit:10;" y2="56" />
      <line x1="50" x2="62" y1="50" style="clip-path:url(#clipPath21); fill:none; stroke-dasharray:none; stroke-miterlimit:10;" y2="44" />
    </g>
    <g transform="translate(166,385)" style="font-size:11; stroke-linecap:butt; text-rendering:geometricPrecision; font-family:sans-serif; stroke-linejoin:round; stroke-dasharray:8,3; stroke-miterlimit:0;">
      <line x1="212" x2="50" y1="50" style="clip-path:url(#clipPath20); fill:none;" y2="50" />
      <line x1="50" x2="62" y1="50" style="clip-path:url(#clipPath20); fill:none; stroke-dasharray:none; stroke-miterlimit:10;" y2="56" />
      <line x1="50" x2="62" y1="50" style="clip-path:url(#clipPath20); fill:none; stroke-dasharray:none; stroke-miterlimit:10;" y2="44" />
    </g>
    <g transform="translate(166,415)" style="font-size:11; stroke-linecap:butt; text-rendering:geometricPrecision; font-family:sans-serif; stroke-linejoin:round;">
      <line x1="50" x2="212" y1="50" style="clip-path:url(#clipPath20); fill:none;" y2="50" />
      <polygon style="clip-path:url(#clipPath20); stroke:none;" points=" 212 50 200 44 200 56" />
      <polygon style="fill:none; clip-path:url(#clipPath20);" points=" 212 50 200 44 200 56" />
    </g>
    <g transform="translate(166,95)" style="font-size:11; stroke-linecap:butt; text-rendering:geometricPrecision; font-family:sans-serif; stroke-linejoin:round;">
      <line x1="50" x2="212" y1="50" style="clip-path:url(#clipPath20); fill:none;" y2="50" />
      <polygon style="clip-path:url(#clipPath20); stroke:none;" points=" 212 50 200 44 200 56" />
      <polygon style="fill:none; clip-path:url(#clipPath20);" points=" 212 50 200 44 200 56" />
    </g>
    <g transform="translate(336,135)" style="font-size:11; stroke-linecap:butt; text-rendering:geometricPrecision; font-family:sans-serif; stroke-linejoin:round;">
      <line x1="50" x2="202" y1="50" style="clip-path:url(#clipPath21); fill:none;" y2="50" />
      <polygon style="clip-path:url(#clipPath21); stroke:none;" points=" 202 50 190 44 190 56" />
      <polygon style="fill:none; clip-path:url(#clipPath21);" points=" 202 50 190 44 190 56" />
    </g>
    <g transform="translate(496,145)" style="font-size:11; stroke-linecap:butt; text-rendering:geometricPrecision; font-family:sans-serif; stroke-linejoin:round;">
      <line x1="50" x2="76" y1="50" style="clip-path:url(#clipPath22); fill:none;" y2="50" />
      <line x1="76" x2="76" y1="50" style="clip-path:url(#clipPath22); fill:none;" y2="70" />
      <line x1="76" x2="54" y1="70" style="clip-path:url(#clipPath22); fill:none;" y2="70" />
      <polygon style="clip-path:url(#clipPath22); stroke:none;" points=" 54 70 66 76 66 64" />
      <polygon style="fill:none; clip-path:url(#clipPath22);" points=" 54 70 66 76 66 64" />
    </g>
    <g transform="translate(336,195)" style="font-size:11; stroke-linecap:butt; text-rendering:geometricPrecision; font-family:sans-serif; stroke-linejoin:round; stroke-dasharray:8,3; stroke-miterlimit:0;">
      <line x1="202" x2="50" y1="50" style="clip-path:url(#clipPath21); fill:none;" y2="50" />
      <line x1="50" x2="62" y1="50" style="clip-path:url(#clipPath21); fill:none; stroke-dasharray:none; stroke-miterlimit:10;" y2="56" />
      <line x1="50" x2="62" y1="50" style="clip-path:url(#clipPath21); fill:none; stroke-dasharray:none; stroke-miterlimit:10;" y2="44" />
    </g>
    <g transform="translate(166,215)" style="font-size:11; stroke-linecap:butt; text-rendering:geometricPrecision; font-family:sans-serif; stroke-linejoin:round; stroke-dasharray:8,3; stroke-miterlimit:0;">
      <line x1="212" x2="50" y1="50" style="clip-path:url(#clipPath20); fill:none;" y2="50" />
      <line x1="50" x2="62" y1="50" style="clip-path:url(#clipPath20); fill:none; stroke-dasharray:none; stroke-miterlimit:10;" y2="56" />
      <line x1="50" x2="62" y1="50" style="clip-path:url(#clipPath20); fill:none; stroke-dasharray:none; stroke-miterlimit:10;" y2="44" />
    </g>
    <g transform="translate(166,545)" style="font-size:11; stroke-linecap:butt; text-rendering:geometricPrecision; font-family:sans-serif; stroke-linejoin:round; stroke-dasharray:8,3; stroke-miterlimit:0;">
      <line x1="212" x2="50" y1="50" style="clip-path:url(#clipPath20); fill:none;" y2="50" />
      <line x1="50" x2="62" y1="50" style="clip-path:url(#clipPath20); fill:none; stroke-dasharray:none; stroke-miterlimit:10;" y2="56" />
      <line x1="50" x2="62" y1="50" style="clip-path:url(#clipPath20); fill:none; stroke-dasharray:none; stroke-miterlimit:10;" y2="44" />
    </g>
    <g transform="translate(336,525)" style="font-size:11; stroke-linecap:butt; text-rendering:geometricPrecision; font-family:sans-serif; stroke-linejoin:round; stroke-dasharray:8,3; stroke-miterlimit:0;">
      <line x1="202" x2="50" y1="50" style="clip-path:url(#clipPath21); fill:none;" y2="50" />
      <line x1="50" x2="62" y1="50" style="clip-path:url(#clipPath21); fill:none; stroke-dasharray:none; stroke-miterlimit:10;" y2="56" />
      <line x1="50" x2="62" y1="50" style="clip-path:url(#clipPath21); fill:none; stroke-dasharray:none; stroke-miterlimit:10;" y2="44" />
    </g>
    <g transform="translate(336,455)" style="font-size:11; stroke-linecap:butt; text-rendering:geometricPrecision; font-family:sans-serif; stroke-linejoin:round;">
      <line x1="50" x2="202" y1="50" style="clip-path:url(#clipPath21); fill:none;" y2="50" />
      <polygon style="clip-path:url(#clipPath21); stroke:none;" points=" 202 50 190 44 190 56" />
      <polygon style="fill:none; clip-path:url(#clipPath21);" points=" 202 50 190 44 190 56" />
    </g>
    <g transform="translate(496,475)" style="font-size:11; stroke-linecap:butt; text-rendering:geometricPrecision; font-family:sans-serif; stroke-linejoin:round;">
      <line x1="50" x2="76" y1="50" style="clip-path:url(#clipPath22); fill:none;" y2="50" />
      <line x1="76" x2="76" y1="50" style="clip-path:url(#clipPath22); fill:none;" y2="70" />
      <line x1="76" x2="54" y1="70" style="clip-path:url(#clipPath22); fill:none;" y2="70" />
      <polygon style="clip-path:url(#clipPath22); stroke:none;" points=" 54 70 66 76 66 64" />
      <polygon style="fill:none; clip-path:url(#clipPath22);" points=" 54 70 66 76 66 64" />
    </g>
    <g style="text-rendering:geometricPrecision; font-size:11; font-family:sans-serif;" transform="translate(408,482)">
      <text x="10" y="14" style="clip-path:url(#clipPath23); stroke:none;" xml:space="preserve">5.1: 請求核對密碼</text>
    </g>
    <g style="text-rendering:geometricPrecision; font-size:11; font-family:sans-serif;" transform="translate(572,525)">
      <text x="10" y="14" style="clip-path:url(#clipPath24); stroke:none;" xml:space="preserve">5.1.1: 密碼核對</text>
    </g>
    <g style="text-rendering:geometricPrecision; font-size:11; font-family:sans-serif;" transform="translate(414,552)">
      <text x="10" y="14" style="clip-path:url(#clipPath24); stroke:none;" xml:space="preserve">5.1.2: 核對失敗</text>
    </g>
    <g style="text-rendering:geometricPrecision; font-size:11; font-family:sans-serif;" transform="translate(248,572)">
      <text x="10" y="14" style="clip-path:url(#clipPath25); stroke:none;" xml:space="preserve">6: 顯示密碼錯誤</text>
    </g>
    <g style="text-rendering:geometricPrecision; font-size:11; font-family:sans-serif;" transform="translate(248,242)">
      <text x="10" y="14" style="clip-path:url(#clipPath25); stroke:none;" xml:space="preserve">2: 顯示個人資料</text>
    </g>
    <g style="text-rendering:geometricPrecision; font-size:11; font-family:sans-serif;" transform="translate(403,222)">
      <text x="10" y="14" style="clip-path:url(#clipPath26); stroke:none;" xml:space="preserve">1.1.2: 回傳查詢結果</text>
    </g>
    <g style="text-rendering:geometricPrecision; font-size:11; font-family:sans-serif;" transform="translate(572,195)">
      <text x="10" y="14" style="clip-path:url(#clipPath24); stroke:none;" xml:space="preserve">1.1.1: 資料查詢</text>
    </g>
    <g style="text-rendering:geometricPrecision; font-size:11; font-family:sans-serif;" transform="translate(397,162)">
      <text x="10" y="14" style="clip-path:url(#clipPath27); stroke:none;" xml:space="preserve">1.1: 請求顯示個人資料</text>
    </g>
    <g style="text-rendering:geometricPrecision; font-size:11; font-family:sans-serif;" transform="translate(253,122)">
      <text x="10" y="14" style="clip-path:url(#clipPath28); stroke:none;" xml:space="preserve">1: 已登入系統</text>
    </g>
    <g style="text-rendering:geometricPrecision; font-size:11; font-family:sans-serif;" transform="translate(259,442)">
      <text x="10" y="14" style="clip-path:url(#clipPath29); stroke:none;" xml:space="preserve">5: 進入系統</text>
    </g>
    <g style="text-rendering:geometricPrecision; font-size:11; font-family:sans-serif;" transform="translate(259,412)">
      <text x="10" y="14" style="clip-path:url(#clipPath29); stroke:none;" xml:space="preserve">4: 密碼正確</text>
    </g>
    <g style="text-rendering:geometricPrecision; font-size:11; font-family:sans-serif;" transform="translate(414,392)">
      <text x="10" y="14" style="clip-path:url(#clipPath24); stroke:none;" xml:space="preserve">3.1.2: 核對正確</text>
    </g>
    <g style="text-rendering:geometricPrecision; font-size:11; font-family:sans-serif;" transform="translate(572,375)">
      <text x="10" y="14" style="clip-path:url(#clipPath24); stroke:none;" xml:space="preserve">3.1.1: 密碼核對</text>
    </g>
    <g style="text-rendering:geometricPrecision; font-size:11; font-family:sans-serif;" transform="translate(408,322)">
      <text x="10" y="14" style="clip-path:url(#clipPath23); stroke:none;" xml:space="preserve">3.1: 請求核對密碼</text>
    </g>
    <g style="text-rendering:geometricPrecision; font-size:11; font-family:sans-serif;" transform="translate(259,302)">
      <text x="10" y="14" style="clip-path:url(#clipPath29); stroke:none;" xml:space="preserve">3: 輸入密碼</text>
    </g>
    
  </g>
</svg>
