<?xml version="1.0" encoding="UTF-8"?>

<!DOCTYPE svg PUBLIC '-//W3C//DTD SVG 1.0//EN' 'http://www.w3.org/TR/2001/REC-SVG-20010904/DTD/svg10.dtd'>
<svg style="fill-opacity:1; color-rendering:auto; color-interpolation:auto; stroke:black; text-rendering:auto; stroke-linecap:square; stroke-miterlimit:10; stroke-opacity:1; shape-rendering:auto; fill:black; stroke-dasharray:none; font-weight:normal; stroke-width:1; font-family:&apos;Dialog&apos;; font-style:normal; stroke-linejoin:miter; font-size:12; stroke-dashoffset:0; image-rendering:auto;" xmlns="http://www.w3.org/2000/svg" width="876" xmlns:xlink="http://www.w3.org/1999/xlink" height="456">
  <!--Generated by the Batik Graphics2D SVG Generator-->
  <defs id="genericDefs" />
  <g>
    <defs id="defs1">
      <clipPath clipPathUnits="userSpaceOnUse" id="clipPath1">
        <path d="M-3 -3 L877 -3 L877 457 L-3 457 L-3 -3 Z" />
      </clipPath>
      <clipPath clipPathUnits="userSpaceOnUse" id="clipPath2">
        <path d="M0 0 L0 442 L7 442 L7 0 Z" />
      </clipPath>
      <clipPath clipPathUnits="userSpaceOnUse" id="clipPath3">
        <path d="M-3 -3 L497 -3 L497 22 L-3 22 L-3 -3 Z" />
      </clipPath>
      <clipPath clipPathUnits="userSpaceOnUse" id="clipPath4">
        <path d="M0 0 L490 0 L490 15 L0 15 L0 0 Z" />
      </clipPath>
      <clipPath clipPathUnits="userSpaceOnUse" id="clipPath5">
        <path d="M-3 -3 L497 -3 L497 439 L-3 439 L-3 -3 Z" />
      </clipPath>
      <clipPath clipPathUnits="userSpaceOnUse" id="clipPath6">
        <path d="M-3 -3 L387 -3 L387 22 L-3 22 L-3 -3 Z" />
      </clipPath>
      <clipPath clipPathUnits="userSpaceOnUse" id="clipPath7">
        <path d="M0 0 L380 0 L380 15 L0 15 L0 0 Z" />
      </clipPath>
      <clipPath clipPathUnits="userSpaceOnUse" id="clipPath8">
        <path d="M-3 -3 L387 -3 L387 439 L-3 439 L-3 -3 Z" />
      </clipPath>
      <clipPath clipPathUnits="userSpaceOnUse" id="clipPath9">
        <path d="M-3 -3 L47 -3 L47 27 L-3 27 L-3 -3 Z" />
      </clipPath>
      <clipPath clipPathUnits="userSpaceOnUse" id="clipPath10">
        <path d="M-3 -3 L67 -3 L67 47 L-3 47 L-3 -3 Z" />
      </clipPath>
      <clipPath clipPathUnits="userSpaceOnUse" id="clipPath11">
        <path d="M0 0 L60 0 L60 40 L0 40 L0 0 Z" />
      </clipPath>
      <clipPath clipPathUnits="userSpaceOnUse" id="clipPath12">
        <path d="M-3 -3 L28 -3 L28 47 L-3 47 L-3 -3 Z" />
      </clipPath>
      <clipPath clipPathUnits="userSpaceOnUse" id="clipPath13">
        <path d="M-3 -3 L107 -3 L107 47 L-3 47 L-3 -3 Z" />
      </clipPath>
      <clipPath clipPathUnits="userSpaceOnUse" id="clipPath14">
        <path d="M0 0 L100 0 L100 40 L0 40 L0 0 Z" />
      </clipPath>
      <clipPath clipPathUnits="userSpaceOnUse" id="clipPath15">
        <path d="M-3 -3 L27 -3 L27 27 L-3 27 L-3 -3 Z" />
      </clipPath>
      <clipPath clipPathUnits="userSpaceOnUse" id="clipPath16">
        <path d="M-3 -3 L27 -3 L27 47 L-3 47 L-3 -3 Z" />
      </clipPath>
      <clipPath clipPathUnits="userSpaceOnUse" id="clipPath17">
        <path d="M-3 -3 L87 -3 L87 47 L-3 47 L-3 -3 Z" />
      </clipPath>
      <clipPath clipPathUnits="userSpaceOnUse" id="clipPath18">
        <path d="M0 0 L80 0 L80 40 L0 40 L0 0 Z" />
      </clipPath>
      <clipPath clipPathUnits="userSpaceOnUse" id="clipPath19">
        <path d="M0 0 L380 0 L380 432 L0 432 L0 0 Z" />
      </clipPath>
      <clipPath clipPathUnits="userSpaceOnUse" id="clipPath20">
        <path d="M0 0 L490 0 L490 432 L0 432 L0 0 Z" />
      </clipPath>
      <clipPath clipPathUnits="userSpaceOnUse" id="clipPath21">
        <path d="M0 0 L229 0 L229 146 L0 146 L0 0 Z" />
      </clipPath>
      <clipPath clipPathUnits="userSpaceOnUse" id="clipPath22">
        <path d="M0 0 L146 0 L146 229 L0 229 L0 0 Z" />
      </clipPath>
      <clipPath clipPathUnits="userSpaceOnUse" id="clipPath23">
        <path d="M0 0 L146 0 L146 259 L0 259 L0 0 Z" />
      </clipPath>
      <clipPath clipPathUnits="userSpaceOnUse" id="clipPath24">
        <path d="M0 0 L208 0 L208 146 L0 146 L0 0 Z" />
      </clipPath>
      <clipPath clipPathUnits="userSpaceOnUse" id="clipPath25">
        <path d="M0 0 L146 0 L146 199 L0 199 L0 0 Z" />
      </clipPath>
      <clipPath clipPathUnits="userSpaceOnUse" id="clipPath26">
        <path d="M0 0 L211 0 L211 146 L0 146 L0 0 Z" />
      </clipPath>
      <clipPath clipPathUnits="userSpaceOnUse" id="clipPath27">
        <path d="M0 0 L193 0 L193 147 L0 147 L0 0 Z" />
      </clipPath>
      <clipPath clipPathUnits="userSpaceOnUse" id="clipPath28">
        <path d="M0 0 L201 0 L201 147 L0 147 L0 0 Z" />
      </clipPath>
      <clipPath clipPathUnits="userSpaceOnUse" id="clipPath29">
        <path d="M0 0 L404 0 L404 146 L0 146 L0 0 Z" />
      </clipPath>
      <clipPath clipPathUnits="userSpaceOnUse" id="clipPath30">
        <path d="M0 0 L262 0 L262 146 L0 146 L0 0 Z" />
      </clipPath>
      <clipPath clipPathUnits="userSpaceOnUse" id="clipPath31">
        <path d="M0 0 L341 0 L341 218 L0 218 L0 0 Z" />
      </clipPath>
      <clipPath clipPathUnits="userSpaceOnUse" id="clipPath32">
        <path d="M0 0 L751 0 L751 198 L0 198 L0 0 Z" />
      </clipPath>
      <clipPath clipPathUnits="userSpaceOnUse" id="clipPath33">
        <path d="M0 0 L70 0 L70 17 L0 17 L0 0 Z" />
      </clipPath>
      <clipPath clipPathUnits="userSpaceOnUse" id="clipPath34">
        <path d="M0 0 L59 0 L59 17 L0 17 L0 0 Z" />
      </clipPath>
    </defs>
    <g style="fill:white; text-rendering:geometricPrecision; stroke:white;">
      <rect x="0" y="0" width="876" style="stroke:none;" height="456" />
    </g>
    <g transform="translate(2,2)" style="text-rendering:geometricPrecision; stroke-width:2; font-size:11; font-family:sans-serif;">
      <rect x="0" y="0" width="490" style="clip-path:url(#clipPath3); fill:none;" height="15" />
    </g>
    <g style="text-rendering:geometricPrecision; font-size:11; font-family:sans-serif;" transform="translate(2,2)">
      <text x="228" y="14" style="clip-path:url(#clipPath4); stroke:none;" xml:space="preserve">使用者</text>
    </g>
    <g transform="translate(2,19)" style="text-rendering:geometricPrecision; stroke-width:2; font-size:11; font-family:sans-serif;">
      <rect x="0" y="0" width="490" style="clip-path:url(#clipPath5); fill:none;" height="432" />
    </g>
    <g transform="translate(492,2)" style="text-rendering:geometricPrecision; stroke-width:2; font-size:11; font-family:sans-serif;">
      <rect x="0" y="0" width="380" style="clip-path:url(#clipPath6); fill:none;" height="15" />
    </g>
    <g style="text-rendering:geometricPrecision; font-size:11; font-family:sans-serif;" transform="translate(492,2)">
      <text x="173" y="14" style="clip-path:url(#clipPath7); stroke:none;" xml:space="preserve">伺服器</text>
    </g>
    <g transform="translate(492,19)" style="text-rendering:geometricPrecision; stroke-width:2; font-size:11; font-family:sans-serif;">
      <rect x="0" y="0" width="380" style="clip-path:url(#clipPath8); fill:none;" height="432" />
    </g>
    <g style="text-rendering:geometricPrecision; font-size:11; font-family:sans-serif;" transform="translate(12,52)">
      <circle style="clip-path:url(#clipPath9); stroke:none;" r="10" cx="20" cy="10" />
    </g>
    <g transform="translate(122,42)" style="font-size:11; fill:rgb(122,207,245); text-rendering:geometricPrecision; font-family:sans-serif; stroke:rgb(122,207,245);">
      <rect x="1" y="1" width="58" style="clip-path:url(#clipPath10); stroke:none;" rx="15" ry="15" height="38" />
    </g>
    <g transform="translate(122,42)" style="font-size:11; stroke-linecap:butt; text-rendering:geometricPrecision; font-family:sans-serif; stroke-linejoin:round; stroke-miterlimit:0;">
      <rect x="1" y="1" width="58" style="clip-path:url(#clipPath10); fill:none;" rx="15" ry="15" height="38" />
    </g>
    <g style="text-rendering:geometricPrecision; font-size:11; font-family:sans-serif;" transform="translate(122,42)">
      <text x="8" y="25" style="clip-path:url(#clipPath11); stroke:none;" xml:space="preserve">開啟系統</text>
    </g>
    <g transform="translate(142,152)" style="font-size:11; fill:rgb(122,207,245); text-rendering:geometricPrecision; font-family:sans-serif; stroke:rgb(122,207,245);">
      <polygon style="clip-path:url(#clipPath12); stroke:none;" points=" 10 7 18 20 10 32 3 20" />
    </g>
    <g transform="translate(142,152)" style="font-size:11; stroke-linecap:butt; text-rendering:geometricPrecision; font-family:sans-serif; stroke-linejoin:round; stroke-miterlimit:0;">
      <polygon style="fill:none; clip-path:url(#clipPath12);" points=" 10 7 18 20 10 32 3 20" />
    </g>
    <g transform="translate(102,362)" style="font-size:11; fill:rgb(122,207,245); text-rendering:geometricPrecision; font-family:sans-serif; stroke:rgb(122,207,245);">
      <rect x="1" y="1" width="98" style="clip-path:url(#clipPath13); stroke:none;" rx="15" ry="15" height="38" />
    </g>
    <g transform="translate(102,362)" style="font-size:11; stroke-linecap:butt; text-rendering:geometricPrecision; font-family:sans-serif; stroke-linejoin:round; stroke-miterlimit:0;">
      <rect x="1" y="1" width="98" style="clip-path:url(#clipPath13); fill:none;" rx="15" ry="15" height="38" />
    </g>
    <g style="text-rendering:geometricPrecision; font-size:11; font-family:sans-serif;" transform="translate(102,362)">
      <text x="6" y="25" style="clip-path:url(#clipPath14); stroke:none;" xml:space="preserve">開啟個人資訊頁面</text>
    </g>
    <g style="text-rendering:geometricPrecision; font-size:11; font-family:sans-serif;" transform="translate(22,372)">
      <circle style="clip-path:url(#clipPath15); stroke:none;" r="6.6667" cx="10" cy="10" />
      <circle style="stroke-linecap:butt; clip-path:url(#clipPath15); fill:none; stroke-linejoin:round; stroke-miterlimit:0;" r="10" cx="10" cy="10" />
    </g>
    <g transform="translate(142,282)" style="font-size:11; fill:rgb(122,207,245); text-rendering:geometricPrecision; font-family:sans-serif; stroke:rgb(122,207,245);">
      <polygon style="clip-path:url(#clipPath16); stroke:none;" points=" 10 7 17 20 10 32 3 20" />
    </g>
    <g transform="translate(142,282)" style="font-size:11; stroke-linecap:butt; text-rendering:geometricPrecision; font-family:sans-serif; stroke-linejoin:round; stroke-miterlimit:0;">
      <polygon style="fill:none; clip-path:url(#clipPath16);" points=" 10 7 17 20 10 32 3 20" />
    </g>
    <g transform="translate(222,152)" style="font-size:11; fill:rgb(122,207,245); text-rendering:geometricPrecision; font-family:sans-serif; stroke:rgb(122,207,245);">
      <rect x="1" y="1" width="78" style="clip-path:url(#clipPath17); stroke:none;" rx="15" ry="15" height="38" />
    </g>
    <g transform="translate(222,152)" style="font-size:11; stroke-linecap:butt; text-rendering:geometricPrecision; font-family:sans-serif; stroke-linejoin:round; stroke-miterlimit:0;">
      <rect x="1" y="1" width="78" style="clip-path:url(#clipPath17); fill:none;" rx="15" ry="15" height="38" />
    </g>
    <g style="text-rendering:geometricPrecision; font-size:11; font-family:sans-serif;" transform="translate(222,152)">
      <text x="7" y="25" style="clip-path:url(#clipPath18); stroke:none;" xml:space="preserve">開啟登入頁面</text>
    </g>
    <g transform="translate(342,152)" style="font-size:11; fill:rgb(122,207,245); text-rendering:geometricPrecision; font-family:sans-serif; stroke:rgb(122,207,245);">
      <polygon style="clip-path:url(#clipPath12); stroke:none;" points=" 10 7 18 20 10 32 3 20" />
    </g>
    <g transform="translate(342,152)" style="font-size:11; stroke-linecap:butt; text-rendering:geometricPrecision; font-family:sans-serif; stroke-linejoin:round; stroke-miterlimit:0;">
      <polygon style="fill:none; clip-path:url(#clipPath12);" points=" 10 7 18 20 10 32 3 20" />
    </g>
    <g transform="translate(412,152)" style="font-size:11; fill:rgb(122,207,245); text-rendering:geometricPrecision; font-family:sans-serif; stroke:rgb(122,207,245);">
      <rect x="1" y="1" width="58" style="clip-path:url(#clipPath10); stroke:none;" rx="15" ry="15" height="38" />
    </g>
    <g transform="translate(412,152)" style="font-size:11; stroke-linecap:butt; text-rendering:geometricPrecision; font-family:sans-serif; stroke-linejoin:round; stroke-miterlimit:0;">
      <rect x="1" y="1" width="58" style="clip-path:url(#clipPath10); fill:none;" rx="15" ry="15" height="38" />
    </g>
    <g style="text-rendering:geometricPrecision; font-size:11; font-family:sans-serif;" transform="translate(412,152)">
      <text x="8" y="25" style="clip-path:url(#clipPath11); stroke:none;" xml:space="preserve">輸入密碼</text>
    </g>
    <g transform="translate(722,142)" style="font-size:11; fill:rgb(122,207,245); text-rendering:geometricPrecision; font-family:sans-serif; stroke:rgb(122,207,245);">
      <rect x="1" y="1" width="78" style="clip-path:url(#clipPath17); stroke:none;" rx="15" ry="15" height="38" />
    </g>
    <g transform="translate(722,142)" style="font-size:11; stroke-linecap:butt; text-rendering:geometricPrecision; font-family:sans-serif; stroke-linejoin:round; stroke-miterlimit:0;">
      <rect x="1" y="1" width="78" style="clip-path:url(#clipPath17); fill:none;" rx="15" ry="15" height="38" />
    </g>
    <g style="text-rendering:geometricPrecision; font-size:11; font-family:sans-serif;" transform="translate(722,142)">
      <text x="7" y="25" style="clip-path:url(#clipPath18); stroke:none;" xml:space="preserve">驗證帳號密碼</text>
    </g>
    <g transform="translate(752,222)" style="font-size:11; fill:rgb(122,207,245); text-rendering:geometricPrecision; font-family:sans-serif; stroke:rgb(122,207,245);">
      <polygon style="clip-path:url(#clipPath12); stroke:none;" points=" 10 7 18 20 10 32 3 20" />
    </g>
    <g transform="translate(752,222)" style="font-size:11; stroke-linecap:butt; text-rendering:geometricPrecision; font-family:sans-serif; stroke-linejoin:round; stroke-miterlimit:0;">
      <polygon style="fill:none; clip-path:url(#clipPath12);" points=" 10 7 18 20 10 32 3 20" />
    </g>
    <g transform="translate(542,222)" style="font-size:11; fill:rgb(122,207,245); text-rendering:geometricPrecision; font-family:sans-serif; stroke:rgb(122,207,245);">
      <rect x="1" y="1" width="98" style="clip-path:url(#clipPath13); stroke:none;" rx="15" ry="15" height="38" />
    </g>
    <g transform="translate(542,222)" style="font-size:11; stroke-linecap:butt; text-rendering:geometricPrecision; font-family:sans-serif; stroke-linejoin:round; stroke-miterlimit:0;">
      <rect x="1" y="1" width="98" style="clip-path:url(#clipPath13); fill:none;" rx="15" ry="15" height="38" />
    </g>
    <g style="text-rendering:geometricPrecision; font-size:11; font-family:sans-serif;" transform="translate(542,222)">
      <text x="6" y="25" style="clip-path:url(#clipPath14); stroke:none;" xml:space="preserve">傳送驗證失敗訊息</text>
    </g>
    <g transform="translate(-33,-11)" style="font-size:11; stroke-linecap:butt; text-rendering:geometricPrecision; font-family:sans-serif; stroke-linejoin:round;">
      <line x1="72" x2="155" y1="71" style="clip-path:url(#clipPath21); fill:none;" y2="71" />
      <line x1="155" x2="143" y1="71" style="clip-path:url(#clipPath21); fill:none;" y2="65" />
      <line x1="155" x2="143" y1="71" style="clip-path:url(#clipPath21); fill:none;" y2="77" />
    </g>
    <g transform="translate(79,7)" style="font-size:11; stroke-linecap:butt; text-rendering:geometricPrecision; font-family:sans-serif; stroke-linejoin:round;">
      <line x1="71" x2="71" y1="72" style="clip-path:url(#clipPath22); fill:none;" y2="155" />
      <line x1="71" x2="77" y1="155" style="clip-path:url(#clipPath22); fill:none;" y2="143" />
      <line x1="71" x2="65" y1="155" style="clip-path:url(#clipPath22); fill:none;" y2="143" />
    </g>
    <g transform="translate(79,107)" style="font-size:11; stroke-linecap:butt; text-rendering:geometricPrecision; font-family:sans-serif; stroke-linejoin:round;">
      <line x1="71" x2="71" y1="72" style="clip-path:url(#clipPath23); fill:none;" y2="185" />
      <line x1="71" x2="77" y1="185" style="clip-path:url(#clipPath23); fill:none;" y2="173" />
      <line x1="71" x2="65" y1="185" style="clip-path:url(#clipPath23); fill:none;" y2="173" />
    </g>
    <g transform="translate(-30,310)" style="font-size:11; stroke-linecap:butt; text-rendering:geometricPrecision; font-family:sans-serif; stroke-linejoin:round;">
      <line x1="133" x2="72" y1="72" style="clip-path:url(#clipPath24); fill:none;" y2="72" />
      <line x1="72" x2="84" y1="72" style="clip-path:url(#clipPath24); fill:none;" y2="78" />
      <line x1="72" x2="84" y1="72" style="clip-path:url(#clipPath24); fill:none;" y2="66" />
    </g>
    <g transform="translate(79,237)" style="font-size:11; stroke-linecap:butt; text-rendering:geometricPrecision; font-family:sans-serif; stroke-linejoin:round;">
      <line x1="71" x2="71" y1="72" style="clip-path:url(#clipPath25); fill:none;" y2="125" />
      <line x1="71" x2="77" y1="125" style="clip-path:url(#clipPath25); fill:none;" y2="113" />
      <line x1="71" x2="65" y1="125" style="clip-path:url(#clipPath25); fill:none;" y2="113" />
    </g>
    <g transform="translate(86,99)" style="font-size:11; stroke-linecap:butt; text-rendering:geometricPrecision; font-family:sans-serif; stroke-linejoin:round;">
      <line x1="71" x2="136" y1="71" style="clip-path:url(#clipPath26); fill:none;" y2="71" />
      <line x1="136" x2="124" y1="71" style="clip-path:url(#clipPath26); fill:none;" y2="65" />
      <line x1="136" x2="124" y1="71" style="clip-path:url(#clipPath26); fill:none;" y2="77" />
    </g>
    <g transform="translate(229,101)" style="font-size:11; stroke-linecap:butt; text-rendering:geometricPrecision; font-family:sans-serif; stroke-linejoin:round;">
      <line x1="71" x2="117" y1="71" style="clip-path:url(#clipPath27); fill:none;" y2="71" />
      <line x1="117" x2="105" y1="71" style="clip-path:url(#clipPath27); fill:none;" y2="65" />
      <line x1="117" x2="105" y1="71" style="clip-path:url(#clipPath27); fill:none;" y2="77" />
    </g>
    <g transform="translate(288,101)" style="font-size:11; stroke-linecap:butt; text-rendering:geometricPrecision; font-family:sans-serif; stroke-linejoin:round;">
      <line x1="71" x2="126" y1="71" style="clip-path:url(#clipPath28); fill:none;" y2="71" />
      <line x1="126" x2="114" y1="71" style="clip-path:url(#clipPath28); fill:none;" y2="65" />
      <line x1="126" x2="114" y1="71" style="clip-path:url(#clipPath28); fill:none;" y2="77" />
    </g>
    <g transform="translate(397,99)" style="font-size:11; stroke-linecap:butt; text-rendering:geometricPrecision; font-family:sans-serif; stroke-linejoin:round;">
      <line x1="72" x2="329" y1="71" style="clip-path:url(#clipPath29); fill:none;" y2="71" />
      <line x1="329" x2="317" y1="71" style="clip-path:url(#clipPath29); fill:none;" y2="65" />
      <line x1="329" x2="317" y1="71" style="clip-path:url(#clipPath29); fill:none;" y2="77" />
    </g>
    <g transform="translate(689,107)" style="font-size:11; stroke-linecap:butt; text-rendering:geometricPrecision; font-family:sans-serif; stroke-linejoin:round;">
      <line x1="71" x2="71" y1="72" style="clip-path:url(#clipPath25); fill:none;" y2="124" />
      <line x1="71" x2="77" y1="124" style="clip-path:url(#clipPath25); fill:none;" y2="112" />
      <line x1="71" x2="65" y1="124" style="clip-path:url(#clipPath25); fill:none;" y2="112" />
    </g>
    <g transform="translate(569,169)" style="font-size:11; stroke-linecap:butt; text-rendering:geometricPrecision; font-family:sans-serif; stroke-linejoin:round;">
      <line x1="187" x2="71" y1="71" style="clip-path:url(#clipPath30); fill:none;" y2="71" />
      <line x1="71" x2="83" y1="71" style="clip-path:url(#clipPath30); fill:none;" y2="77" />
      <line x1="71" x2="83" y1="71" style="clip-path:url(#clipPath30); fill:none;" y2="65" />
    </g>
    <g transform="translate(281,109)" style="font-size:11; stroke-linecap:butt; text-rendering:geometricPrecision; font-family:sans-serif; stroke-linejoin:round;">
      <line x1="266" x2="71" y1="143" style="clip-path:url(#clipPath31); fill:none;" y2="143" />
      <line x1="71" x2="71" y1="143" style="clip-path:url(#clipPath31); fill:none;" y2="71" />
      <line x1="71" x2="65" y1="71" style="clip-path:url(#clipPath31); fill:none;" y2="83" />
      <line x1="71" x2="77" y1="71" style="clip-path:url(#clipPath31); fill:none;" y2="83" />
    </g>
    <g transform="translate(86,177)" style="font-size:11; stroke-linecap:butt; text-rendering:geometricPrecision; font-family:sans-serif; stroke-linejoin:round;">
      <line x1="676" x2="676" y1="72" style="clip-path:url(#clipPath32); fill:none;" y2="123" />
      <line x1="676" x2="71" y1="123" style="clip-path:url(#clipPath32); fill:none;" y2="123" />
      <line x1="71" x2="83" y1="123" style="clip-path:url(#clipPath32); fill:none;" y2="129" />
      <line x1="71" x2="83" y1="123" style="clip-path:url(#clipPath32); fill:none;" y2="117" />
    </g>
    <g style="text-rendering:geometricPrecision; font-size:11; font-family:sans-serif;" transform="translate(762,252)">
      <text x="10" y="14" style="clip-path:url(#clipPath33); stroke:none;" xml:space="preserve">[驗證成功]</text>
    </g>
    <g style="text-rendering:geometricPrecision; font-size:11; font-family:sans-serif;" transform="translate(652,222)">
      <text x="10" y="14" style="clip-path:url(#clipPath33); stroke:none;" xml:space="preserve">[驗證失敗]</text>
    </g>
    <g style="text-rendering:geometricPrecision; font-size:11; font-family:sans-serif;" transform="translate(152,152)">
      <text x="10" y="14" style="clip-path:url(#clipPath34); stroke:none;" xml:space="preserve">[未登入]</text>
    </g>
    <g style="text-rendering:geometricPrecision; font-size:11; font-family:sans-serif;" transform="translate(91,183)">
      <text x="10" y="14" style="clip-path:url(#clipPath34); stroke:none;" xml:space="preserve">[已登入]</text>
    </g>
   
  </g>
</svg>
