<?xml version="1.0" encoding="UTF-8"?>

<!DOCTYPE svg PUBLIC '-//W3C//DTD SVG 1.0//EN' 'http://www.w3.org/TR/2001/REC-SVG-20010904/DTD/svg10.dtd'>
<svg style="fill-opacity:1; color-rendering:auto; color-interpolation:auto; stroke:black; text-rendering:auto; stroke-linecap:square; stroke-miterlimit:10; stroke-opacity:1; shape-rendering:auto; fill:black; stroke-dasharray:none; font-weight:normal; stroke-width:1; font-family:&apos;Dialog&apos;; font-style:normal; stroke-linejoin:miter; font-size:12; stroke-dashoffset:0; image-rendering:auto;" xmlns="http://www.w3.org/2000/svg" width="976" xmlns:xlink="http://www.w3.org/1999/xlink" height="846">
  <!--Generated by the Batik Graphics2D SVG Generator-->
  <defs id="genericDefs" />
  <g>
    <defs id="defs1">
      <clipPath clipPathUnits="userSpaceOnUse" id="clipPath1">
        <path d="M-3 -3 L977 -3 L977 847 L-3 847 L-3 -3 Z" />
      </clipPath>
      <clipPath clipPathUnits="userSpaceOnUse" id="clipPath2">
        <path d="M0 0 L0 830 L7 830 L7 0 Z" />
      </clipPath>
      <clipPath clipPathUnits="userSpaceOnUse" id="clipPath3">
        <path d="M-3 -3 L507 -3 L507 24 L-3 24 L-3 -3 Z" />
      </clipPath>
      <clipPath clipPathUnits="userSpaceOnUse" id="clipPath4">
        <path d="M0 0 L500 0 L500 17 L0 17 L0 0 Z" />
      </clipPath>
      <clipPath clipPathUnits="userSpaceOnUse" id="clipPath5">
        <path d="M-3 -3 L507 -3 L507 829 L-3 829 L-3 -3 Z" />
      </clipPath>
      <clipPath clipPathUnits="userSpaceOnUse" id="clipPath6">
        <path d="M-3 -3 L477 -3 L477 24 L-3 24 L-3 -3 Z" />
      </clipPath>
      <clipPath clipPathUnits="userSpaceOnUse" id="clipPath7">
        <path d="M0 0 L470 0 L470 17 L0 17 L0 0 Z" />
      </clipPath>
      <clipPath clipPathUnits="userSpaceOnUse" id="clipPath8">
        <path d="M-3 -3 L477 -3 L477 829 L-3 829 L-3 -3 Z" />
      </clipPath>
      <clipPath clipPathUnits="userSpaceOnUse" id="clipPath9">
        <path d="M-3 -3 L97 -3 L97 23 L-3 23 L-3 -3 Z" />
      </clipPath>
      <clipPath clipPathUnits="userSpaceOnUse" id="clipPath10">
        <path d="M-3 -3 L22 -3 L22 77 L-3 77 L-3 -3 Z" />
      </clipPath>
      <clipPath clipPathUnits="userSpaceOnUse" id="clipPath11">
        <path d="M-3 -3 L47 -3 L47 27 L-3 27 L-3 -3 Z" />
      </clipPath>
      <clipPath clipPathUnits="userSpaceOnUse" id="clipPath12">
        <path d="M-3 -3 L87 -3 L87 47 L-3 47 L-3 -3 Z" />
      </clipPath>
      <clipPath clipPathUnits="userSpaceOnUse" id="clipPath13">
        <path d="M0 0 L80 0 L80 40 L0 40 L0 0 Z" />
      </clipPath>
      <clipPath clipPathUnits="userSpaceOnUse" id="clipPath14">
        <path d="M-3 -3 L147 -3 L147 47 L-3 47 L-3 -3 Z" />
      </clipPath>
      <clipPath clipPathUnits="userSpaceOnUse" id="clipPath15">
        <path d="M0 0 L140 0 L140 40 L0 40 L0 0 Z" />
      </clipPath>
      <clipPath clipPathUnits="userSpaceOnUse" id="clipPath16">
        <path d="M-3 -3 L107 -3 L107 47 L-3 47 L-3 -3 Z" />
      </clipPath>
      <clipPath clipPathUnits="userSpaceOnUse" id="clipPath17">
        <path d="M0 0 L100 0 L100 40 L0 40 L0 0 Z" />
      </clipPath>
      <clipPath clipPathUnits="userSpaceOnUse" id="clipPath18">
        <path d="M-3 -3 L27 -3 L27 47 L-3 47 L-3 -3 Z" />
      </clipPath>
      <clipPath clipPathUnits="userSpaceOnUse" id="clipPath19">
        <path d="M-3 -3 L28 -3 L28 47 L-3 47 L-3 -3 Z" />
      </clipPath>
      <clipPath clipPathUnits="userSpaceOnUse" id="clipPath20">
        <path d="M-3 -3 L227 -3 L227 47 L-3 47 L-3 -3 Z" />
      </clipPath>
      <clipPath clipPathUnits="userSpaceOnUse" id="clipPath21">
        <path d="M0 0 L220 0 L220 40 L0 40 L0 0 Z" />
      </clipPath>
      <clipPath clipPathUnits="userSpaceOnUse" id="clipPath22">
        <path d="M-3 -3 L217 -3 L217 47 L-3 47 L-3 -3 Z" />
      </clipPath>
      <clipPath clipPathUnits="userSpaceOnUse" id="clipPath23">
        <path d="M0 0 L210 0 L210 40 L0 40 L0 0 Z" />
      </clipPath>
      <clipPath clipPathUnits="userSpaceOnUse" id="clipPath24">
        <path d="M-3 -3 L167 -3 L167 47 L-3 47 L-3 -3 Z" />
      </clipPath>
      <clipPath clipPathUnits="userSpaceOnUse" id="clipPath25">
        <path d="M0 0 L160 0 L160 40 L0 40 L0 0 Z" />
      </clipPath>
      <clipPath clipPathUnits="userSpaceOnUse" id="clipPath26">
        <path d="M-3 -3 L27 -3 L27 27 L-3 27 L-3 -3 Z" />
      </clipPath>
      <clipPath clipPathUnits="userSpaceOnUse" id="clipPath27">
        <path d="M-3 -3 L117 -3 L117 47 L-3 47 L-3 -3 Z" />
      </clipPath>
      <clipPath clipPathUnits="userSpaceOnUse" id="clipPath28">
        <path d="M0 0 L110 0 L110 40 L0 40 L0 0 Z" />
      </clipPath>
      <clipPath clipPathUnits="userSpaceOnUse" id="clipPath29">
        <path d="M-3 -3 L137 -3 L137 47 L-3 47 L-3 -3 Z" />
      </clipPath>
      <clipPath clipPathUnits="userSpaceOnUse" id="clipPath30">
        <path d="M0 0 L130 0 L130 40 L0 40 L0 0 Z" />
      </clipPath>
      <clipPath clipPathUnits="userSpaceOnUse" id="clipPath31">
        <path d="M0 0 L470 0 L470 821 L0 821 L0 0 Z" />
      </clipPath>
      <clipPath clipPathUnits="userSpaceOnUse" id="clipPath32">
        <path d="M0 0 L500 0 L500 821 L0 821 L0 0 Z" />
      </clipPath>
      <clipPath clipPathUnits="userSpaceOnUse" id="clipPath33">
        <path d="M0 0 L284 0 L284 170 L0 170 L0 0 Z" />
      </clipPath>
      <clipPath clipPathUnits="userSpaceOnUse" id="clipPath34">
        <path d="M0 0 L260 0 L260 170 L0 170 L0 0 Z" />
      </clipPath>
      <clipPath clipPathUnits="userSpaceOnUse" id="clipPath35">
        <path d="M0 0 L285 0 L285 170 L0 170 L0 0 Z" />
      </clipPath>
      <clipPath clipPathUnits="userSpaceOnUse" id="clipPath36">
        <path d="M0 0 L170 0 L170 225 L0 225 L0 0 Z" />
      </clipPath>
      <clipPath clipPathUnits="userSpaceOnUse" id="clipPath37">
        <path d="M0 0 L170 0 L170 235 L0 235 L0 0 Z" />
      </clipPath>
      <clipPath clipPathUnits="userSpaceOnUse" id="clipPath38">
        <path d="M0 0 L395 0 L395 232 L0 232 L0 0 Z" />
      </clipPath>
      <clipPath clipPathUnits="userSpaceOnUse" id="clipPath39">
        <path d="M0 0 L355 0 L355 170 L0 170 L0 0 Z" />
      </clipPath>
      <clipPath clipPathUnits="userSpaceOnUse" id="clipPath40">
        <path d="M0 0 L172 0 L172 214 L0 214 L0 0 Z" />
      </clipPath>
      <clipPath clipPathUnits="userSpaceOnUse" id="clipPath41">
        <path d="M0 0 L267 0 L267 170 L0 170 L0 0 Z" />
      </clipPath>
      <clipPath clipPathUnits="userSpaceOnUse" id="clipPath42">
        <path d="M0 0 L170 0 L170 239 L0 239 L0 0 Z" />
      </clipPath>
      <clipPath clipPathUnits="userSpaceOnUse" id="clipPath43">
        <path d="M0 0 L170 0 L170 245 L0 245 L0 0 Z" />
      </clipPath>
      <clipPath clipPathUnits="userSpaceOnUse" id="clipPath44">
        <path d="M0 0 L170 0 L170 244 L0 244 L0 0 Z" />
      </clipPath>
      <clipPath clipPathUnits="userSpaceOnUse" id="clipPath45">
        <path d="M0 0 L170 0 L170 254 L0 254 L0 0 Z" />
      </clipPath>
      <clipPath clipPathUnits="userSpaceOnUse" id="clipPath46">
        <path d="M0 0 L170 0 L170 224 L0 224 L0 0 Z" />
      </clipPath>
      <clipPath clipPathUnits="userSpaceOnUse" id="clipPath47">
        <path d="M0 0 L170 0 L170 204 L0 204 L0 0 Z" />
      </clipPath>
      <clipPath clipPathUnits="userSpaceOnUse" id="clipPath48">
        <path d="M0 0 L172 0 L172 224 L0 224 L0 0 Z" />
      </clipPath>
      <clipPath clipPathUnits="userSpaceOnUse" id="clipPath49">
        <path d="M0 0 L374 0 L374 172 L0 172 L0 0 Z" />
      </clipPath>
      <clipPath clipPathUnits="userSpaceOnUse" id="clipPath50">
        <path d="M0 0 L474 0 L474 204 L0 204 L0 0 Z" />
      </clipPath>
      <clipPath clipPathUnits="userSpaceOnUse" id="clipPath51">
        <path d="M0 0 L765 0 L765 212 L0 212 L0 0 Z" />
      </clipPath>
      <clipPath clipPathUnits="userSpaceOnUse" id="clipPath52">
        <path d="M0 0 L170 0 L170 195 L0 195 L0 0 Z" />
      </clipPath>
      <clipPath clipPathUnits="userSpaceOnUse" id="clipPath53">
        <path d="M0 0 L257 0 L257 170 L0 170 L0 0 Z" />
      </clipPath>
      <clipPath clipPathUnits="userSpaceOnUse" id="clipPath54">
        <path d="M0 0 L199 0 L199 332 L0 332 L0 0 Z" />
      </clipPath>
      <clipPath clipPathUnits="userSpaceOnUse" id="clipPath55">
        <path d="M0 0 L37 0 L37 17 L0 17 L0 0 Z" />
      </clipPath>
      <clipPath clipPathUnits="userSpaceOnUse" id="clipPath56">
        <path d="M0 0 L59 0 L59 17 L0 17 L0 0 Z" />
      </clipPath>
      <clipPath clipPathUnits="userSpaceOnUse" id="clipPath57">
        <path d="M0 0 L70 0 L70 17 L0 17 L0 0 Z" />
      </clipPath>
    </defs>
    <g style="fill:white; text-rendering:geometricPrecision; stroke:white;">
      <rect x="0" y="0" width="976" style="stroke:none;" height="846" />
    </g>
    <g transform="translate(2,2)" style="text-rendering:geometricPrecision; stroke-width:2; font-size:11; font-family:sans-serif;">
      <rect x="0" y="0" width="500" style="clip-path:url(#clipPath3); fill:none;" height="17" />
    </g>
    <g style="text-rendering:geometricPrecision; font-size:11; font-family:sans-serif;" transform="translate(2,2)">
      <text x="233" y="14" style="clip-path:url(#clipPath4); stroke:none;" xml:space="preserve">使用者</text>
    </g>
    <g transform="translate(2,20)" style="text-rendering:geometricPrecision; stroke-width:2; font-size:11; font-family:sans-serif;">
      <rect x="0" y="0" width="500" style="clip-path:url(#clipPath5); fill:none;" height="822" />
    </g>
    <g transform="translate(502,2)" style="text-rendering:geometricPrecision; stroke-width:2; font-size:11; font-family:sans-serif;">
      <rect x="0" y="0" width="470" style="clip-path:url(#clipPath6); fill:none;" height="17" />
    </g>
    <g style="text-rendering:geometricPrecision; font-size:11; font-family:sans-serif;" transform="translate(502,2)">
      <text x="218" y="14" style="clip-path:url(#clipPath7); stroke:none;" xml:space="preserve">伺服器</text>
    </g>
    <g transform="translate(502,20)" style="text-rendering:geometricPrecision; stroke-width:2; font-size:11; font-family:sans-serif;">
      <rect x="0" y="0" width="470" style="clip-path:url(#clipPath8); fill:none;" height="822" />
    </g>
    <g style="text-rendering:geometricPrecision; font-size:11; font-family:sans-serif;" transform="translate(342,702)">
      <rect x="0" y="0" width="90" style="clip-path:url(#clipPath9); stroke:none;" height="16" />
      <rect x="0" y="0" width="90" style="stroke-linecap:butt; clip-path:url(#clipPath9); fill:none; stroke-linejoin:round; stroke-miterlimit:0;" height="16" />
    </g>
    <g style="text-rendering:geometricPrecision; font-size:11; font-family:sans-serif;" transform="translate(182,752)">
      <rect x="0" y="0" width="15" style="clip-path:url(#clipPath10); stroke:none;" height="70" />
      <rect x="0" y="0" width="15" style="stroke-linecap:butt; clip-path:url(#clipPath10); fill:none; stroke-linejoin:round; stroke-miterlimit:0;" height="70" />
    </g>
    <g style="text-rendering:geometricPrecision; font-size:11; font-family:sans-serif;" transform="translate(80,52)">
      <circle style="clip-path:url(#clipPath11); stroke:none;" r="10" cx="20" cy="10" />
    </g>
    <g transform="translate(222,42)" style="font-size:11; fill:rgb(122,207,245); text-rendering:geometricPrecision; font-family:sans-serif; stroke:rgb(122,207,245);">
      <rect x="1" y="1" width="78" style="clip-path:url(#clipPath12); stroke:none;" rx="15" ry="15" height="38" />
    </g>
    <g transform="translate(222,42)" style="font-size:11; stroke-linecap:butt; text-rendering:geometricPrecision; font-family:sans-serif; stroke-linejoin:round; stroke-miterlimit:0;">
      <rect x="1" y="1" width="78" style="clip-path:url(#clipPath12); fill:none;" rx="15" ry="15" height="38" />
    </g>
    <g style="text-rendering:geometricPrecision; font-size:11; font-family:sans-serif;" transform="translate(222,42)">
      <text x="7" y="25" style="clip-path:url(#clipPath13); stroke:none;" xml:space="preserve">打開搜尋頁面</text>
    </g>
    <g transform="translate(388,42)" style="font-size:11; fill:rgb(122,207,245); text-rendering:geometricPrecision; font-family:sans-serif; stroke:rgb(122,207,245);">
      <rect x="1" y="1" width="78" style="clip-path:url(#clipPath12); stroke:none;" rx="15" ry="15" height="38" />
    </g>
    <g transform="translate(388,42)" style="font-size:11; stroke-linecap:butt; text-rendering:geometricPrecision; font-family:sans-serif; stroke-linejoin:round; stroke-miterlimit:0;">
      <rect x="1" y="1" width="78" style="clip-path:url(#clipPath12); fill:none;" rx="15" ry="15" height="38" />
    </g>
    <g style="text-rendering:geometricPrecision; font-size:11; font-family:sans-serif;" transform="translate(388,42)">
      <text x="7" y="25" style="clip-path:url(#clipPath13); stroke:none;" xml:space="preserve">搜尋附近藍牙</text>
    </g>
    <g transform="translate(582,42)" style="font-size:11; fill:rgb(122,207,245); text-rendering:geometricPrecision; font-family:sans-serif; stroke:rgb(122,207,245);">
      <rect x="1" y="1" width="138" style="clip-path:url(#clipPath14); stroke:none;" rx="15" ry="15" height="38" />
    </g>
    <g transform="translate(582,42)" style="font-size:11; stroke-linecap:butt; text-rendering:geometricPrecision; font-family:sans-serif; stroke-linejoin:round; stroke-miterlimit:0;">
      <rect x="1" y="1" width="138" style="clip-path:url(#clipPath14); fill:none;" rx="15" ry="15" height="38" />
    </g>
    <g style="text-rendering:geometricPrecision; font-size:11; font-family:sans-serif;" transform="translate(582,42)">
      <text x="20" y="25" style="clip-path:url(#clipPath15); stroke:none;" xml:space="preserve">以藍牙查詢個人資訊</text>
    </g>
    <g transform="translate(602,212)" style="font-size:11; fill:rgb(122,207,245); text-rendering:geometricPrecision; font-family:sans-serif; stroke:rgb(122,207,245);">
      <rect x="1" y="1" width="98" style="clip-path:url(#clipPath16); stroke:none;" rx="15" ry="15" height="38" />
    </g>
    <g transform="translate(602,212)" style="font-size:11; stroke-linecap:butt; text-rendering:geometricPrecision; font-family:sans-serif; stroke-linejoin:round; stroke-miterlimit:0;">
      <rect x="1" y="1" width="98" style="clip-path:url(#clipPath16); fill:none;" rx="15" ry="15" height="38" />
    </g>
    <g style="text-rendering:geometricPrecision; font-size:11; font-family:sans-serif;" transform="translate(602,212)">
      <text x="17" y="25" style="clip-path:url(#clipPath17); stroke:none;" xml:space="preserve">查詢配對列表</text>
    </g>
    <g transform="translate(642,122)" style="font-size:11; fill:rgb(122,207,245); text-rendering:geometricPrecision; font-family:sans-serif; stroke:rgb(122,207,245);">
      <polygon style="clip-path:url(#clipPath18); stroke:none;" points=" 10 7 17 20 10 32 3 20" />
    </g>
    <g transform="translate(642,122)" style="font-size:11; stroke-linecap:butt; text-rendering:geometricPrecision; font-family:sans-serif; stroke-linejoin:round; stroke-miterlimit:0;">
      <polygon style="fill:none; clip-path:url(#clipPath18);" points=" 10 7 17 20 10 32 3 20" />
    </g>
    <g transform="translate(338,212)" style="font-size:11; fill:rgb(122,207,245); text-rendering:geometricPrecision; font-family:sans-serif; stroke:rgb(122,207,245);">
      <rect x="1" y="1" width="78" style="clip-path:url(#clipPath12); stroke:none;" rx="15" ry="15" height="38" />
    </g>
    <g transform="translate(338,212)" style="font-size:11; stroke-linecap:butt; text-rendering:geometricPrecision; font-family:sans-serif; stroke-linejoin:round; stroke-miterlimit:0;">
      <rect x="1" y="1" width="78" style="clip-path:url(#clipPath12); fill:none;" rx="15" ry="15" height="38" />
    </g>
    <g style="text-rendering:geometricPrecision; font-size:11; font-family:sans-serif;" transform="translate(338,212)">
      <text x="7" y="25" style="clip-path:url(#clipPath13); stroke:none;" xml:space="preserve">回傳查詢結果</text>
    </g>
    <g transform="translate(360,280)" style="font-size:11; fill:rgb(122,207,245); text-rendering:geometricPrecision; font-family:sans-serif; stroke:rgb(122,207,245);">
      <polygon style="clip-path:url(#clipPath19); stroke:none;" points=" 10 7 18 20 10 32 3 20" />
    </g>
    <g transform="translate(360,280)" style="font-size:11; stroke-linecap:butt; text-rendering:geometricPrecision; font-family:sans-serif; stroke-linejoin:round; stroke-miterlimit:0;">
      <polygon style="fill:none; clip-path:url(#clipPath19);" points=" 10 7 18 20 10 32 3 20" />
    </g>
    <g transform="translate(50,280)" style="font-size:11; fill:rgb(122,207,245); text-rendering:geometricPrecision; font-family:sans-serif; stroke:rgb(122,207,245);">
      <rect x="1" y="1" width="218" style="clip-path:url(#clipPath20); stroke:none;" rx="15" ry="15" height="38" />
    </g>
    <g transform="translate(50,280)" style="font-size:11; stroke-linecap:butt; text-rendering:geometricPrecision; font-family:sans-serif; stroke-linejoin:round; stroke-miterlimit:0;">
      <rect x="1" y="1" width="218" style="clip-path:url(#clipPath20); fill:none;" rx="15" ry="15" height="38" />
    </g>
    <g style="text-rendering:geometricPrecision; font-size:11; font-family:sans-serif;" transform="translate(50,280)">
      <text x="22" y="25" style="clip-path:url(#clipPath21); stroke:none;" xml:space="preserve">將查詢到的個人資訊放入已配對列表</text>
    </g>
    <g transform="translate(282,372)" style="font-size:11; fill:rgb(122,207,245); text-rendering:geometricPrecision; font-family:sans-serif; stroke:rgb(122,207,245);">
      <rect x="1" y="1" width="208" style="clip-path:url(#clipPath22); stroke:none;" rx="15" ry="15" height="38" />
    </g>
    <g transform="translate(282,372)" style="font-size:11; stroke-linecap:butt; text-rendering:geometricPrecision; font-family:sans-serif; stroke-linejoin:round; stroke-miterlimit:0;">
      <rect x="1" y="1" width="208" style="clip-path:url(#clipPath22); fill:none;" rx="15" ry="15" height="38" />
    </g>
    <g style="text-rendering:geometricPrecision; font-size:11; font-family:sans-serif;" transform="translate(282,372)">
      <text x="17" y="25" style="clip-path:url(#clipPath23); stroke:none;" xml:space="preserve">將查詢到的個人資訊放入未配對列表</text>
    </g>
    <g transform="translate(72,392)" style="font-size:11; fill:rgb(122,207,245); text-rendering:geometricPrecision; font-family:sans-serif; stroke:rgb(122,207,245);">
      <rect x="1" y="1" width="158" style="clip-path:url(#clipPath24); stroke:none;" rx="15" ry="15" height="38" />
    </g>
    <g transform="translate(72,392)" style="font-size:11; stroke-linecap:butt; text-rendering:geometricPrecision; font-family:sans-serif; stroke-linejoin:round; stroke-miterlimit:0;">
      <rect x="1" y="1" width="158" style="clip-path:url(#clipPath24); fill:none;" rx="15" ry="15" height="38" />
    </g>
    <g style="text-rendering:geometricPrecision; font-size:11; font-family:sans-serif;" transform="translate(72,392)">
      <text x="41" y="25" style="clip-path:url(#clipPath25); stroke:none;" xml:space="preserve">點擊已配對列表</text>
    </g>
    <g transform="translate(82,502)" style="font-size:11; fill:rgb(122,207,245); text-rendering:geometricPrecision; font-family:sans-serif; stroke:rgb(122,207,245);">
      <rect x="1" y="1" width="138" style="clip-path:url(#clipPath14); stroke:none;" rx="15" ry="15" height="38" />
    </g>
    <g transform="translate(82,502)" style="font-size:11; stroke-linecap:butt; text-rendering:geometricPrecision; font-family:sans-serif; stroke-linejoin:round; stroke-miterlimit:0;">
      <rect x="1" y="1" width="138" style="clip-path:url(#clipPath14); fill:none;" rx="15" ry="15" height="38" />
    </g>
    <g style="text-rendering:geometricPrecision; font-size:11; font-family:sans-serif;" transform="translate(82,502)">
      <text x="26" y="25" style="clip-path:url(#clipPath15); stroke:none;" xml:space="preserve">開啟朋友詳細頁面</text>
    </g>
    <g style="text-rendering:geometricPrecision; font-size:11; font-family:sans-serif;" transform="translate(142,622)">
      <circle style="clip-path:url(#clipPath26); stroke:none;" r="6.6667" cx="10" cy="10" />
      <circle style="stroke-linecap:butt; clip-path:url(#clipPath26); fill:none; stroke-linejoin:round; stroke-miterlimit:0;" r="10" cx="10" cy="10" />
    </g>
    <g transform="translate(322,462)" style="font-size:11; fill:rgb(122,207,245); text-rendering:geometricPrecision; font-family:sans-serif; stroke:rgb(122,207,245);">
      <rect x="1" y="1" width="108" style="clip-path:url(#clipPath27); stroke:none;" rx="15" ry="15" height="38" />
    </g>
    <g transform="translate(322,462)" style="font-size:11; stroke-linecap:butt; text-rendering:geometricPrecision; font-family:sans-serif; stroke-linejoin:round; stroke-miterlimit:0;">
      <rect x="1" y="1" width="108" style="clip-path:url(#clipPath27); fill:none;" rx="15" ry="15" height="38" />
    </g>
    <g style="text-rendering:geometricPrecision; font-size:11; font-family:sans-serif;" transform="translate(322,462)">
      <text x="16" y="25" style="clip-path:url(#clipPath28); stroke:none;" xml:space="preserve">點擊未配對列表</text>
    </g>
    <g transform="translate(332,532)" style="font-size:11; fill:rgb(122,207,245); text-rendering:geometricPrecision; font-family:sans-serif; stroke:rgb(122,207,245);">
      <rect x="1" y="1" width="78" style="clip-path:url(#clipPath12); stroke:none;" rx="15" ry="15" height="38" />
    </g>
    <g transform="translate(332,532)" style="font-size:11; stroke-linecap:butt; text-rendering:geometricPrecision; font-family:sans-serif; stroke-linejoin:round; stroke-miterlimit:0;">
      <rect x="1" y="1" width="78" style="clip-path:url(#clipPath12); fill:none;" rx="15" ry="15" height="38" />
    </g>
    <g style="text-rendering:geometricPrecision; font-size:11; font-family:sans-serif;" transform="translate(332,532)">
      <text x="7" y="25" style="clip-path:url(#clipPath13); stroke:none;" xml:space="preserve">詢問是否配對</text>
    </g>
    <g transform="translate(360,610)" style="font-size:11; fill:rgb(122,207,245); text-rendering:geometricPrecision; font-family:sans-serif; stroke:rgb(122,207,245);">
      <polygon style="clip-path:url(#clipPath19); stroke:none;" points=" 10 7 18 20 10 32 3 20" />
    </g>
    <g transform="translate(360,610)" style="font-size:11; stroke-linecap:butt; text-rendering:geometricPrecision; font-family:sans-serif; stroke-linejoin:round; stroke-miterlimit:0;">
      <polygon style="fill:none; clip-path:url(#clipPath19);" points=" 10 7 18 20 10 32 3 20" />
    </g>
    <g transform="translate(712,732)" style="font-size:11; fill:rgb(122,207,245); text-rendering:geometricPrecision; font-family:sans-serif; stroke:rgb(122,207,245);">
      <rect x="1" y="1" width="128" style="clip-path:url(#clipPath29); stroke:none;" rx="15" ry="15" height="38" />
    </g>
    <g transform="translate(712,732)" style="font-size:11; stroke-linecap:butt; text-rendering:geometricPrecision; font-family:sans-serif; stroke-linejoin:round; stroke-miterlimit:0;">
      <rect x="1" y="1" width="128" style="clip-path:url(#clipPath29); fill:none;" rx="15" ry="15" height="38" />
    </g>
    <g style="text-rendering:geometricPrecision; font-size:11; font-family:sans-serif;" transform="translate(712,732)">
      <text x="32" y="25" style="clip-path:url(#clipPath30); stroke:none;" xml:space="preserve">新增配對資訊</text>
    </g>
    <g transform="translate(282,742)" style="font-size:11; fill:rgb(122,207,245); text-rendering:geometricPrecision; font-family:sans-serif; stroke:rgb(122,207,245);">
      <rect x="1" y="1" width="108" style="clip-path:url(#clipPath27); stroke:none;" rx="15" ry="15" height="38" />
    </g>
    <g transform="translate(282,742)" style="font-size:11; stroke-linecap:butt; text-rendering:geometricPrecision; font-family:sans-serif; stroke-linejoin:round; stroke-miterlimit:0;">
      <rect x="1" y="1" width="108" style="clip-path:url(#clipPath27); fill:none;" rx="15" ry="15" height="38" />
    </g>
    <g style="text-rendering:geometricPrecision; font-size:11; font-family:sans-serif;" transform="translate(282,742)">
      <text x="11" y="25" style="clip-path:url(#clipPath28); stroke:none;" xml:space="preserve">開啟朋友編輯頁面</text>
    </g>
    <g transform="translate(27,-22)" style="font-size:11; stroke-linecap:butt; text-rendering:geometricPrecision; font-family:sans-serif; stroke-linejoin:round;">
      <line x1="83" x2="196" y1="84" style="clip-path:url(#clipPath33); fill:none;" y2="84" />
      <line x1="196" x2="184" y1="84" style="clip-path:url(#clipPath33); fill:none;" y2="78" />
      <line x1="196" x2="184" y1="84" style="clip-path:url(#clipPath33); fill:none;" y2="90" />
    </g>
    <g transform="translate(217,-22)" style="font-size:11; stroke-linecap:butt; text-rendering:geometricPrecision; font-family:sans-serif; stroke-linejoin:round;">
      <line x1="83" x2="173" y1="84" style="clip-path:url(#clipPath34); fill:none;" y2="84" />
      <line x1="173" x2="161" y1="84" style="clip-path:url(#clipPath34); fill:none;" y2="78" />
      <line x1="173" x2="161" y1="84" style="clip-path:url(#clipPath34); fill:none;" y2="90" />
    </g>
    <g transform="translate(385,-22)" style="font-size:11; stroke-linecap:butt; text-rendering:geometricPrecision; font-family:sans-serif; stroke-linejoin:round;">
      <line x1="83" x2="198" y1="84" style="clip-path:url(#clipPath35); fill:none;" y2="84" />
      <line x1="198" x2="186" y1="84" style="clip-path:url(#clipPath35); fill:none;" y2="78" />
      <line x1="198" x2="186" y1="84" style="clip-path:url(#clipPath35); fill:none;" y2="90" />
    </g>
    <g transform="translate(568,-3)" style="font-size:11; stroke-linecap:butt; text-rendering:geometricPrecision; font-family:sans-serif; stroke-linejoin:round;">
      <line x1="84" x2="84" y1="83" style="clip-path:url(#clipPath36); fill:none;" y2="138" />
      <line x1="84" x2="90" y1="138" style="clip-path:url(#clipPath36); fill:none;" y2="126" />
      <line x1="84" x2="78" y1="138" style="clip-path:url(#clipPath36); fill:none;" y2="126" />
    </g>
    <g transform="translate(568,65)" style="font-size:11; stroke-linecap:butt; text-rendering:geometricPrecision; font-family:sans-serif; stroke-linejoin:round;">
      <line x1="84" x2="84" y1="83" style="clip-path:url(#clipPath37); fill:none;" y2="148" />
      <line x1="84" x2="90" y1="148" style="clip-path:url(#clipPath37); fill:none;" y2="136" />
      <line x1="84" x2="78" y1="148" style="clip-path:url(#clipPath37); fill:none;" y2="136" />
    </g>
    <g transform="translate(338,-3)" style="font-size:11; stroke-linecap:butt; text-rendering:geometricPrecision; font-family:sans-serif; stroke-linejoin:round;">
      <line x1="309" x2="84" y1="145" style="clip-path:url(#clipPath38); fill:none;" y2="145" />
      <line x1="84" x2="84" y1="145" style="clip-path:url(#clipPath38); fill:none;" y2="83" />
      <line x1="84" x2="78" y1="83" style="clip-path:url(#clipPath38); fill:none;" y2="95" />
      <line x1="84" x2="90" y1="83" style="clip-path:url(#clipPath38); fill:none;" y2="95" />
    </g>
    <g transform="translate(335,148)" style="font-size:11; stroke-linecap:butt; text-rendering:geometricPrecision; font-family:sans-serif; stroke-linejoin:round;">
      <line x1="268" x2="83" y1="84" style="clip-path:url(#clipPath39); fill:none;" y2="84" />
      <line x1="83" x2="95" y1="84" style="clip-path:url(#clipPath39); fill:none;" y2="90" />
      <line x1="83" x2="95" y1="84" style="clip-path:url(#clipPath39); fill:none;" y2="78" />
    </g>
    <g transform="translate(287,167)" style="font-size:11; stroke-linecap:butt; text-rendering:geometricPrecision; font-family:sans-serif; stroke-linejoin:round;">
      <line x1="85" x2="83" y1="83" style="clip-path:url(#clipPath40); fill:none;" y2="126" />
      <line x1="83" x2="89" y1="126" style="clip-path:url(#clipPath40); fill:none;" y2="114" />
      <line x1="83" x2="77" y1="126" style="clip-path:url(#clipPath40); fill:none;" y2="114" />
    </g>
    <g transform="translate(185,217)" style="font-size:11; stroke-linecap:butt; text-rendering:geometricPrecision; font-family:sans-serif; stroke-linejoin:round;">
      <line x1="180" x2="83" y1="83" style="clip-path:url(#clipPath41); fill:none;" y2="83" />
      <line x1="83" x2="95" y1="83" style="clip-path:url(#clipPath41); fill:none;" y2="89" />
      <line x1="83" x2="95" y1="83" style="clip-path:url(#clipPath41); fill:none;" y2="77" />
    </g>
    <g transform="translate(287,222)" style="font-size:11; stroke-linecap:butt; text-rendering:geometricPrecision; font-family:sans-serif; stroke-linejoin:round;">
      <line x1="83" x2="83" y1="83" style="clip-path:url(#clipPath42); fill:none;" y2="151" />
      <line x1="83" x2="89" y1="151" style="clip-path:url(#clipPath42); fill:none;" y2="139" />
      <line x1="83" x2="77" y1="151" style="clip-path:url(#clipPath42); fill:none;" y2="139" />
    </g>
    <g transform="translate(68,235)" style="font-size:11; stroke-linecap:butt; text-rendering:geometricPrecision; font-family:sans-serif; stroke-linejoin:round;">
      <line x1="83" x2="83" y1="83" style="clip-path:url(#clipPath43); fill:none;" y2="158" />
      <line x1="83" x2="89" y1="158" style="clip-path:url(#clipPath43); fill:none;" y2="146" />
      <line x1="83" x2="77" y1="158" style="clip-path:url(#clipPath43); fill:none;" y2="146" />
    </g>
    <g transform="translate(68,347)" style="font-size:11; stroke-linecap:butt; text-rendering:geometricPrecision; font-family:sans-serif; stroke-linejoin:round;">
      <line x1="83" x2="83" y1="83" style="clip-path:url(#clipPath44); fill:none;" y2="156" />
      <line x1="83" x2="89" y1="156" style="clip-path:url(#clipPath44); fill:none;" y2="144" />
      <line x1="83" x2="77" y1="156" style="clip-path:url(#clipPath44); fill:none;" y2="144" />
    </g>
    <g transform="translate(68,457)" style="font-size:11; stroke-linecap:butt; text-rendering:geometricPrecision; font-family:sans-serif; stroke-linejoin:round;">
      <line x1="83" x2="83" y1="83" style="clip-path:url(#clipPath45); fill:none;" y2="166" />
      <line x1="83" x2="89" y1="166" style="clip-path:url(#clipPath45); fill:none;" y2="154" />
      <line x1="83" x2="77" y1="166" style="clip-path:url(#clipPath45); fill:none;" y2="154" />
    </g>
    <g transform="translate(288,327)" style="font-size:11; stroke-linecap:butt; text-rendering:geometricPrecision; font-family:sans-serif; stroke-linejoin:round;">
      <line x1="84" x2="84" y1="83" style="clip-path:url(#clipPath46); fill:none;" y2="136" />
      <line x1="84" x2="90" y1="136" style="clip-path:url(#clipPath46); fill:none;" y2="124" />
      <line x1="84" x2="78" y1="136" style="clip-path:url(#clipPath46); fill:none;" y2="124" />
    </g>
    <g transform="translate(288,417)" style="font-size:11; stroke-linecap:butt; text-rendering:geometricPrecision; font-family:sans-serif; stroke-linejoin:round;">
      <line x1="84" x2="84" y1="83" style="clip-path:url(#clipPath47); fill:none;" y2="116" />
      <line x1="84" x2="90" y1="116" style="clip-path:url(#clipPath47); fill:none;" y2="104" />
      <line x1="84" x2="78" y1="116" style="clip-path:url(#clipPath47); fill:none;" y2="104" />
    </g>
    <g transform="translate(287,487)" style="font-size:11; stroke-linecap:butt; text-rendering:geometricPrecision; font-family:sans-serif; stroke-linejoin:round;">
      <line x1="85" x2="83" y1="83" style="clip-path:url(#clipPath48); fill:none;" y2="136" />
      <line x1="83" x2="89" y1="136" style="clip-path:url(#clipPath48); fill:none;" y2="124" />
      <line x1="83" x2="77" y1="136" style="clip-path:url(#clipPath48); fill:none;" y2="124" />
    </g>
    <g transform="translate(78,547)" style="font-size:11; stroke-linecap:butt; text-rendering:geometricPrecision; font-family:sans-serif; stroke-linejoin:round;">
      <line x1="287" x2="83" y1="83" style="clip-path:url(#clipPath49); fill:none;" y2="85" />
      <line x1="83" x2="95" y1="85" style="clip-path:url(#clipPath49); fill:none;" y2="91" />
      <line x1="83" x2="95" y1="85" style="clip-path:url(#clipPath49); fill:none;" y2="79" />
    </g>
    <g transform="translate(287,552)" style="font-size:11; stroke-linecap:butt; text-rendering:geometricPrecision; font-family:sans-serif; stroke-linejoin:round;">
      <line x1="83" x2="83" y1="83" style="clip-path:url(#clipPath37); fill:none;" y2="148" />
      <line x1="83" x2="89" y1="148" style="clip-path:url(#clipPath37); fill:none;" y2="136" />
      <line x1="83" x2="77" y1="148" style="clip-path:url(#clipPath37); fill:none;" y2="136" />
    </g>
    <g transform="translate(328,635)" style="font-size:11; stroke-linecap:butt; text-rendering:geometricPrecision; font-family:sans-serif; stroke-linejoin:round;">
      <line x1="84" x2="84" y1="83" style="clip-path:url(#clipPath50); fill:none;" y2="116" />
      <line x1="84" x2="387" y1="116" style="clip-path:url(#clipPath50); fill:none;" y2="116" />
      <line x1="387" x2="375" y1="116" style="clip-path:url(#clipPath50); fill:none;" y2="110" />
      <line x1="387" x2="375" y1="116" style="clip-path:url(#clipPath50); fill:none;" y2="122" />
    </g>
    <g transform="translate(113,687)" style="font-size:11; stroke-linecap:butt; text-rendering:geometricPrecision; font-family:sans-serif; stroke-linejoin:round;">
      <line x1="678" x2="678" y1="83" style="clip-path:url(#clipPath51); fill:none;" y2="125" />
      <line x1="678" x2="83" y1="125" style="clip-path:url(#clipPath51); fill:none;" y2="125" />
      <line x1="83" x2="95" y1="125" style="clip-path:url(#clipPath51); fill:none;" y2="131" />
      <line x1="83" x2="95" y1="125" style="clip-path:url(#clipPath51); fill:none;" y2="119" />
    </g>
    <g transform="translate(278,635)" style="font-size:11; stroke-linecap:butt; text-rendering:geometricPrecision; font-family:sans-serif; stroke-linejoin:round;">
      <line x1="84" x2="84" y1="83" style="clip-path:url(#clipPath52); fill:none;" y2="108" />
      <line x1="84" x2="90" y1="108" style="clip-path:url(#clipPath52); fill:none;" y2="96" />
      <line x1="84" x2="78" y1="108" style="clip-path:url(#clipPath52); fill:none;" y2="96" />
    </g>
    <g transform="translate(113,678)" style="font-size:11; stroke-linecap:butt; text-rendering:geometricPrecision; font-family:sans-serif; stroke-linejoin:round;">
      <line x1="170" x2="83" y1="84" style="clip-path:url(#clipPath53); fill:none;" y2="84" />
      <line x1="83" x2="95" y1="84" style="clip-path:url(#clipPath53); fill:none;" y2="90" />
      <line x1="83" x2="95" y1="84" style="clip-path:url(#clipPath53); fill:none;" y2="78" />
    </g>
    <g transform="translate(68,557)" style="font-size:11; stroke-linecap:butt; text-rendering:geometricPrecision; font-family:sans-serif; stroke-linejoin:round;">
      <line x1="112" x2="83" y1="245" style="clip-path:url(#clipPath54); fill:none;" y2="245" />
      <line x1="83" x2="83" y1="245" style="clip-path:url(#clipPath54); fill:none;" y2="83" />
      <line x1="83" x2="77" y1="83" style="clip-path:url(#clipPath54); fill:none;" y2="95" />
      <line x1="83" x2="89" y1="83" style="clip-path:url(#clipPath54); fill:none;" y2="95" />
    </g>
    <g style="text-rendering:geometricPrecision; font-size:11; font-family:sans-serif;" transform="translate(372,642)">
      <text x="10" y="14" style="clip-path:url(#clipPath55); stroke:none;" xml:space="preserve">[是]</text>
    </g>
    <g style="text-rendering:geometricPrecision; font-size:11; font-family:sans-serif;" transform="translate(303,612)">
      <text x="10" y="14" style="clip-path:url(#clipPath55); stroke:none;" xml:space="preserve">[否]</text>
    </g>
    <g style="text-rendering:geometricPrecision; font-size:11; font-family:sans-serif;" transform="translate(368,303)">
      <text x="10" y="14" style="clip-path:url(#clipPath56); stroke:none;" xml:space="preserve">[未配對]</text>
    </g>
    <g style="text-rendering:geometricPrecision; font-size:11; font-family:sans-serif;" transform="translate(297,280)">
      <text x="10" y="14" style="clip-path:url(#clipPath56); stroke:none;" xml:space="preserve">[已配對]</text>
    </g>
    <g style="text-rendering:geometricPrecision; font-size:11; font-family:sans-serif;" transform="translate(565,123)">
      <text x="10" y="14" style="clip-path:url(#clipPath57); stroke:none;" xml:space="preserve">[查詢失敗]</text>
    </g>
    <g style="text-rendering:geometricPrecision; font-size:11; font-family:sans-serif;" transform="translate(655,147)">
      <text x="10" y="14" style="clip-path:url(#clipPath57); stroke:none;" xml:space="preserve">[查詢成功]</text>
    </g>
    
  </g>
</svg>
