<?xml version="1.0" encoding="UTF-8"?>

<!DOCTYPE svg PUBLIC '-//W3C//DTD SVG 1.0//EN' 'http://www.w3.org/TR/2001/REC-SVG-20010904/DTD/svg10.dtd'>
<svg style="fill-opacity:1; color-rendering:auto; color-interpolation:auto; stroke:black; text-rendering:auto; stroke-linecap:square; stroke-miterlimit:10; stroke-opacity:1; shape-rendering:auto; fill:black; stroke-dasharray:none; font-weight:normal; stroke-width:1; font-family:&apos;Dialog&apos;; font-style:normal; stroke-linejoin:miter; font-size:12; stroke-dashoffset:0; image-rendering:auto;" xmlns="http://www.w3.org/2000/svg" width="1126" xmlns:xlink="http://www.w3.org/1999/xlink" height="838">
  <!--Generated by the Batik Graphics2D SVG Generator-->
  <defs id="genericDefs" />
  <g>
    <defs id="defs1">
      <clipPath clipPathUnits="userSpaceOnUse" id="clipPath1">
        <path d="M-3 -3 L87 -3 L87 796 L-3 796 L-3 -3 Z" />
      </clipPath>
      <clipPath clipPathUnits="userSpaceOnUse" id="clipPath2">
        <path d="M-3 -3 L67 -3 L67 796 L-3 796 L-3 -3 Z" />
      </clipPath>
      <clipPath clipPathUnits="userSpaceOnUse" id="clipPath3">
        <path d="M-3 -3 L15 -3 L15 621 L-3 621 L-3 -3 Z" />
      </clipPath>
      <clipPath clipPathUnits="userSpaceOnUse" id="clipPath4">
        <path d="M-3 -3 L1107 -3 L1107 616 L-3 616 L-3 -3 Z" />
      </clipPath>
      <clipPath clipPathUnits="userSpaceOnUse" id="clipPath5">
        <path d="M0 0 L23 0 L23 20 L0 20 L0 0 Z" />
      </clipPath>
      <clipPath clipPathUnits="userSpaceOnUse" id="clipPath6">
        <path d="M-3 -3 L15 -3 L15 408 L-3 408 L-3 -3 Z" />
      </clipPath>
      <clipPath clipPathUnits="userSpaceOnUse" id="clipPath7">
        <path d="M-3 -3 L1107 -3 L1107 211 L-3 211 L-3 -3 Z" />
      </clipPath>
      <clipPath clipPathUnits="userSpaceOnUse" id="clipPath8">
        <path d="M0 0 L125 0 L125 17 L0 17 L0 0 Z" />
      </clipPath>
      <clipPath clipPathUnits="userSpaceOnUse" id="clipPath9">
        <path d="M0 0 L0 4 L1100 4 L1100 0 Z" />
      </clipPath>
      <clipPath clipPathUnits="userSpaceOnUse" id="clipPath10">
        <path d="M-3 -3 L15 -3 L15 27 L-3 27 L-3 -3 Z" />
      </clipPath>
      <clipPath clipPathUnits="userSpaceOnUse" id="clipPath11">
        <path d="M-3 -3 L1107 -3 L1107 393 L-3 393 L-3 -3 Z" />
      </clipPath>
      <clipPath clipPathUnits="userSpaceOnUse" id="clipPath12">
        <path d="M0 0 L114 0 L114 17 L0 17 L0 0 Z" />
      </clipPath>
      <clipPath clipPathUnits="userSpaceOnUse" id="clipPath13">
        <path d="M-3 -3 L1016 -3 L1016 287 L-3 287 L-3 -3 Z" />
      </clipPath>
      <clipPath clipPathUnits="userSpaceOnUse" id="clipPath14">
        <path d="M-3 -3 L15 -3 L15 35 L-3 35 L-3 -3 Z" />
      </clipPath>
      <clipPath clipPathUnits="userSpaceOnUse" id="clipPath15">
        <path d="M-3 -3 L1016 -3 L1016 147 L-3 147 L-3 -3 Z" />
      </clipPath>
      <clipPath clipPathUnits="userSpaceOnUse" id="clipPath16">
        <path d="M0 0 L92 0 L92 17 L0 17 L0 0 Z" />
      </clipPath>
      <clipPath clipPathUnits="userSpaceOnUse" id="clipPath17">
        <path d="M0 0 L0 4 L1009 4 L1009 0 Z" />
      </clipPath>
      <clipPath clipPathUnits="userSpaceOnUse" id="clipPath18">
        <path d="M-3 -3 L1016 -3 L1016 127 L-3 127 L-3 -3 Z" />
      </clipPath>
      <clipPath clipPathUnits="userSpaceOnUse" id="clipPath19">
        <path d="M0 0 L60 0 L60 17 L0 17 L0 0 Z" />
      </clipPath>
      <clipPath clipPathUnits="userSpaceOnUse" id="clipPath20">
        <path d="M0 0 L53 0 L53 17 L0 17 L0 0 Z" />
      </clipPath>
      <clipPath clipPathUnits="userSpaceOnUse" id="clipPath21">
        <path d="M0 0 L449 0 L449 137 L0 137 L0 0 Z" />
      </clipPath>
      <clipPath clipPathUnits="userSpaceOnUse" id="clipPath22">
        <path d="M0 0 L489 0 L489 137 L0 137 L0 0 Z" />
      </clipPath>
      <clipPath clipPathUnits="userSpaceOnUse" id="clipPath23">
        <path d="M0 0 L164 0 L164 157 L0 157 L0 0 Z" />
      </clipPath>
      <clipPath clipPathUnits="userSpaceOnUse" id="clipPath24">
        <path d="M0 0 L76 0 L76 17 L0 17 L0 0 Z" />
      </clipPath>
      <clipPath clipPathUnits="userSpaceOnUse" id="clipPath25">
        <path d="M0 0 L99 0 L99 17 L0 17 L0 0 Z" />
      </clipPath>
      <clipPath clipPathUnits="userSpaceOnUse" id="clipPath26">
        <path d="M0 0 L120 0 L120 17 L0 17 L0 0 Z" />
      </clipPath>
      <clipPath clipPathUnits="userSpaceOnUse" id="clipPath27">
        <path d="M0 0 L172 0 L172 17 L0 17 L0 0 Z" />
      </clipPath>
      <clipPath clipPathUnits="userSpaceOnUse" id="clipPath28">
        <path d="M0 0 L139 0 L139 17 L0 17 L0 0 Z" />
      </clipPath>
      <clipPath clipPathUnits="userSpaceOnUse" id="clipPath29">
        <path d="M0 0 L151 0 L151 17 L0 17 L0 0 Z" />
      </clipPath>
      <clipPath clipPathUnits="userSpaceOnUse" id="clipPath30">
        <path d="M0 0 L117 0 L117 17 L0 17 L0 0 Z" />
      </clipPath>
      <clipPath clipPathUnits="userSpaceOnUse" id="clipPath31">
        <path d="M0 0 L163 0 L163 17 L0 17 L0 0 Z" />
      </clipPath>
    </defs>
    <g style="fill:white; text-rendering:geometricPrecision; stroke:white;">
      <rect x="0" y="0" width="1126" style="stroke:none;" height="838" />
      <rect x="18" y="38" transform="translate(-18,-38)" width="1125" style="fill:none; stroke:black;" height="837" />
      <text x="25" y="57" transform="translate(-18,-38)" style="fill:black; stroke:none; font-weight:bold;" xml:space="preserve">sd</text>
      <text x="46" y="57" transform="translate(-18,-38)" style="fill:black; stroke:none;" xml:space="preserve">藍牙配對循序圖</text>
      <line transform="translate(-18,-38)" x1="18" x2="130" y1="64" style="fill:none; stroke:black;" y2="64" />
      <line transform="translate(-18,-38)" x1="136" x2="136" y1="38" style="fill:none; stroke:black;" y2="53" />
      <line transform="translate(-18,-38)" x1="136" x2="130" y1="53" style="fill:none; stroke:black;" y2="64" />
    </g>
    <g transform="translate(192,35)" style="font-size:11; fill:rgb(122,207,245); text-rendering:geometricPrecision; font-family:sans-serif; stroke:rgb(122,207,245);">
      <circle style="clip-path:url(#clipPath1); stroke:none;" r="5" cx="40" cy="5" />
      <rect x="36" y="52" width="8" style="clip-path:url(#clipPath1); stroke:none;" height="736" />
    </g>
    <g transform="translate(192,35)" style="font-size:11; stroke-linecap:butt; text-rendering:geometricPrecision; font-family:sans-serif; stroke-linejoin:round; stroke-miterlimit:0;">
      <circle style="fill:none; clip-path:url(#clipPath1);" r="5" cx="40" cy="5" />
      <rect x="36" y="52" width="8" style="clip-path:url(#clipPath1); fill:none;" height="736" />
      <line x1="40" x2="40" y1="10" style="clip-path:url(#clipPath1); fill:none;" y2="25" />
      <line x1="40" x2="31" y1="25" style="clip-path:url(#clipPath1); fill:none;" y2="36" />
      <line x1="40" x2="49" y1="25" style="clip-path:url(#clipPath1); fill:none;" y2="36" />
      <line x1="31" x2="49" y1="16" style="clip-path:url(#clipPath1); fill:none;" y2="16" />
    </g>
    <g transform="translate(521,35)" style="font-size:11; fill:rgb(122,207,245); text-rendering:geometricPrecision; font-family:sans-serif; stroke:rgb(122,207,245);">
      <rect x="0" y="0" width="59" style="clip-path:url(#clipPath2); stroke:none;" height="35" />
    </g>
    <g transform="translate(521,35)" style="font-size:11; stroke-linecap:butt; text-rendering:geometricPrecision; font-family:sans-serif; stroke-linejoin:round; stroke-miterlimit:0;">
      <rect x="0" y="0" width="59" style="clip-path:url(#clipPath2); fill:none;" height="35" />
      <line x1="29" x2="29" y1="35" style="clip-path:url(#clipPath2); fill:none; stroke-linejoin:bevel; stroke-dasharray:8,3;" y2="789" />
    </g>
    <g transform="translate(548,116)" style="font-size:11; fill:rgb(122,207,245); text-rendering:geometricPrecision; font-family:sans-serif; stroke:rgb(122,207,245);">
      <rect x="0" y="0" width="8" style="clip-path:url(#clipPath3); stroke:none;" height="614" />
    </g>
    <g transform="translate(548,116)" style="font-size:11; stroke-linecap:butt; text-rendering:geometricPrecision; font-family:sans-serif; stroke-linejoin:round; stroke-miterlimit:0;">
      <rect x="0" y="0" width="8" style="clip-path:url(#clipPath3); fill:none;" height="614" />
    </g>
    <g transform="translate(881,35)" style="font-size:11; fill:rgb(122,207,245); text-rendering:geometricPrecision; font-family:sans-serif; stroke:rgb(122,207,245);">
      <rect x="0" y="0" width="59" style="clip-path:url(#clipPath2); stroke:none;" height="35" />
    </g>
    <g transform="translate(881,35)" style="font-size:11; stroke-linecap:butt; text-rendering:geometricPrecision; font-family:sans-serif; stroke-linejoin:round; stroke-miterlimit:0;">
      <rect x="0" y="0" width="59" style="clip-path:url(#clipPath2); fill:none;" height="35" />
      <line x1="29" x2="29" y1="35" style="clip-path:url(#clipPath2); fill:none; stroke-linejoin:bevel; stroke-dasharray:8,3;" y2="789" />
    </g>
    <g transform="translate(12,195)" style="font-size:11; stroke-linecap:butt; text-rendering:geometricPrecision; font-family:sans-serif; stroke-linejoin:round; font-weight:bold; stroke-miterlimit:0;">
      <rect x="0" y="0" width="1100" style="clip-path:url(#clipPath4); fill:none;" height="609" />
    </g>
    <g transform="translate(12,195)" style="font-size:11; fill:white; text-rendering:geometricPrecision; font-family:sans-serif; stroke:white; font-weight:bold;">
      <path d="M22 0 L22 10 L16 19 L0 19 L0 0 Z" style="clip-path:url(#clipPath4); stroke:none;" />
    </g>
    <g transform="translate(12,195)" style="font-size:11; stroke-linecap:butt; text-rendering:geometricPrecision; font-family:sans-serif; stroke-linejoin:round; font-weight:bold; stroke-miterlimit:0;">
      <path d="M22 0 L22 10 L16 19 L0 19 L0 0 Z" style="fill:none; clip-path:url(#clipPath4);" />
    </g>
    <g transform="translate(12,195)" style="text-rendering:geometricPrecision; font-size:11; font-weight:bold; font-family:sans-serif;">
      <text x="5" y="14" style="clip-path:url(#clipPath5); stroke:none;" xml:space="preserve">alt</text>
    </g>
    <g transform="translate(908,213)" style="font-size:11; fill:rgb(122,207,245); text-rendering:geometricPrecision; font-family:sans-serif; stroke:rgb(122,207,245);">
      <rect x="0" y="0" width="8" style="clip-path:url(#clipPath6); stroke:none;" height="401" />
    </g>
    <g transform="translate(908,213)" style="font-size:11; stroke-linecap:butt; text-rendering:geometricPrecision; font-family:sans-serif; stroke-linejoin:round; stroke-miterlimit:0;">
      <rect x="0" y="0" width="8" style="clip-path:url(#clipPath6); fill:none;" height="401" />
    </g>
    <g transform="translate(12,215)" style="font-size:11; fill:white; text-rendering:geometricPrecision; font-family:sans-serif; stroke:white;">
      <rect x="28" y="5" width="125" style="clip-path:url(#clipPath7); stroke:none;" height="17" />
    </g>
    <g transform="translate(12,215)" style="font-size:11; stroke-linecap:butt; text-rendering:geometricPrecision; font-family:sans-serif; stroke-linejoin:bevel; stroke-dasharray:5,2; stroke-miterlimit:0;">
      <line x1="0" x2="1099" y1="203" style="clip-path:url(#clipPath7); fill:none;" y2="203" />
    </g>
    <g style="text-rendering:geometricPrecision; font-size:11; font-family:sans-serif;" transform="translate(40,220)">
      <text x="10" y="14" style="clip-path:url(#clipPath8); stroke:none;" xml:space="preserve">[已配對過的藍牙位址]</text>
    </g>
    <g transform="translate(912,300)" style="font-size:11; fill:rgb(122,207,245); text-rendering:geometricPrecision; font-family:sans-serif; stroke:rgb(122,207,245);">
      <rect x="0" y="0" width="8" style="clip-path:url(#clipPath10); stroke:none;" height="20" />
    </g>
    <g transform="translate(912,300)" style="font-size:11; stroke-linecap:butt; text-rendering:geometricPrecision; font-family:sans-serif; stroke-linejoin:round; stroke-miterlimit:0;">
      <rect x="0" y="0" width="8" style="clip-path:url(#clipPath10); fill:none;" height="20" />
    </g>
    <g transform="translate(12,416)" style="font-size:11; fill:white; text-rendering:geometricPrecision; font-family:sans-serif; stroke:white;">
      <rect x="28" y="5" width="114" style="clip-path:url(#clipPath11); stroke:none;" height="17" />
    </g>
    <g style="text-rendering:geometricPrecision; font-size:11; font-family:sans-serif;" transform="translate(40,421)">
      <text x="10" y="14" style="clip-path:url(#clipPath12); stroke:none;" xml:space="preserve">[未配對的藍牙位址]</text>
    </g>
    <g transform="translate(72,484)" style="font-size:11; stroke-linecap:butt; text-rendering:geometricPrecision; font-family:sans-serif; stroke-linejoin:round; font-weight:bold; stroke-miterlimit:0;">
      <rect x="0" y="0" width="1009" style="clip-path:url(#clipPath13); fill:none;" height="280" />
    </g>
    <g transform="translate(72,484)" style="font-size:11; fill:white; text-rendering:geometricPrecision; font-family:sans-serif; stroke:white; font-weight:bold;">
      <path d="M22 0 L22 10 L16 19 L0 19 L0 0 Z" style="clip-path:url(#clipPath13); stroke:none;" />
    </g>
    <g transform="translate(72,484)" style="font-size:11; stroke-linecap:butt; text-rendering:geometricPrecision; font-family:sans-serif; stroke-linejoin:round; font-weight:bold; stroke-miterlimit:0;">
      <path d="M22 0 L22 10 L16 19 L0 19 L0 0 Z" style="fill:none; clip-path:url(#clipPath13);" />
    </g>
    <g transform="translate(72,484)" style="text-rendering:geometricPrecision; font-size:11; font-weight:bold; font-family:sans-serif;">
      <text x="5" y="14" style="clip-path:url(#clipPath5); stroke:none;" xml:space="preserve">alt</text>
    </g>
    <g transform="translate(912,563)" style="font-size:11; fill:rgb(122,207,245); text-rendering:geometricPrecision; font-family:sans-serif; stroke:rgb(122,207,245);">
      <rect x="0" y="0" width="8" style="clip-path:url(#clipPath14); stroke:none;" height="28" />
    </g>
    <g transform="translate(912,563)" style="font-size:11; stroke-linecap:butt; text-rendering:geometricPrecision; font-family:sans-serif; stroke-linejoin:round; stroke-miterlimit:0;">
      <rect x="0" y="0" width="8" style="clip-path:url(#clipPath14); fill:none;" height="28" />
    </g>
    <g transform="translate(72,504)" style="font-size:11; fill:white; text-rendering:geometricPrecision; font-family:sans-serif; stroke:white;">
      <rect x="28" y="5" width="92" style="clip-path:url(#clipPath15); stroke:none;" height="17" />
    </g>
    <g transform="translate(72,504)" style="font-size:11; stroke-linecap:butt; text-rendering:geometricPrecision; font-family:sans-serif; stroke-linejoin:bevel; stroke-dasharray:5,2; stroke-miterlimit:0;">
      <line x1="0" x2="1008" y1="139" style="clip-path:url(#clipPath15); fill:none;" y2="139" />
    </g>
    <g style="text-rendering:geometricPrecision; font-size:11; font-family:sans-serif;" transform="translate(100,509)">
      <text x="10" y="14" style="clip-path:url(#clipPath16); stroke:none;" xml:space="preserve">[確定加入好友]</text>
    </g>
    <g transform="translate(72,643)" style="font-size:11; fill:white; text-rendering:geometricPrecision; font-family:sans-serif; stroke:white;">
      <rect x="28" y="5" width="92" style="clip-path:url(#clipPath18); stroke:none;" height="17" />
    </g>
    <g style="text-rendering:geometricPrecision; font-size:11; font-family:sans-serif;" transform="translate(100,648)">
      <text x="10" y="14" style="clip-path:url(#clipPath16); stroke:none;" xml:space="preserve">[取消加入好友]</text>
    </g>
    <g style="text-rendering:geometricPrecision; font-size:11; font-family:sans-serif;" transform="translate(881,35)">
      <text x="13" y="14" style="clip-path:url(#clipPath19); stroke:none;" xml:space="preserve">資料庫</text>
    </g>
    <g style="text-rendering:geometricPrecision; font-size:11; font-family:sans-serif;" transform="translate(521,35)">
      <text x="19" y="14" style="clip-path:url(#clipPath19); stroke:none;" xml:space="preserve">系統</text>
    </g>
    <g style="text-rendering:geometricPrecision; font-size:11; font-family:sans-serif;" transform="translate(205,70)">
      <text x="10" y="14" style="clip-path:url(#clipPath20); stroke:none;" xml:space="preserve">使用者</text>
    </g>
    <g transform="translate(169,59)" style="font-size:11; stroke-linecap:butt; text-rendering:geometricPrecision; font-family:sans-serif; stroke-linejoin:round;">
      <line x1="67" x2="379" y1="67" style="clip-path:url(#clipPath21); fill:none;" y2="67" />
      <polygon style="clip-path:url(#clipPath21); stroke:none;" points=" 379 67 367 61 367 73" />
      <polygon style="fill:none; clip-path:url(#clipPath21);" points=" 379 67 367 61 367 73" />
    </g>
    <g transform="translate(489,197)" style="font-size:11; stroke-linecap:butt; text-rendering:geometricPrecision; font-family:sans-serif; stroke-linejoin:round;">
      <line x1="67" x2="419" y1="67" style="clip-path:url(#clipPath22); fill:none;" y2="67" />
      <polygon style="clip-path:url(#clipPath22); stroke:none;" points=" 419 67 407 61 407 73" />
      <polygon style="fill:none; clip-path:url(#clipPath22);" points=" 419 67 407 61 407 73" />
    </g>
    <g transform="translate(169,98)" style="font-size:11; stroke-linecap:butt; text-rendering:geometricPrecision; font-family:sans-serif; stroke-linejoin:round; stroke-dasharray:8,3; stroke-miterlimit:0;">
      <line x1="379" x2="67" y1="67" style="clip-path:url(#clipPath21); fill:none;" y2="67" />
      <line x1="67" x2="79" y1="67" style="clip-path:url(#clipPath21); fill:none; stroke-dasharray:none; stroke-miterlimit:10;" y2="73" />
      <line x1="67" x2="79" y1="67" style="clip-path:url(#clipPath21); fill:none; stroke-dasharray:none; stroke-miterlimit:10;" y2="61" />
    </g>
    <g transform="translate(169,158)" style="font-size:11; stroke-linecap:butt; text-rendering:geometricPrecision; font-family:sans-serif; stroke-linejoin:round;">
      <line x1="67" x2="379" y1="67" style="clip-path:url(#clipPath21); fill:none;" y2="67" />
      <polygon style="clip-path:url(#clipPath21); stroke:none;" points=" 379 67 367 61 367 73" />
      <polygon style="fill:none; clip-path:url(#clipPath21);" points=" 379 67 367 61 367 73" />
    </g>
    <g transform="translate(849,217)" style="font-size:11; stroke-linecap:butt; text-rendering:geometricPrecision; font-family:sans-serif; stroke-linejoin:round;">
      <line x1="66" x2="93" y1="67" style="clip-path:url(#clipPath23); fill:none;" y2="67" />
      <line x1="93" x2="93" y1="67" style="clip-path:url(#clipPath23); fill:none;" y2="87" />
      <line x1="93" x2="70" y1="87" style="clip-path:url(#clipPath23); fill:none;" y2="87" />
      <polygon style="clip-path:url(#clipPath23); stroke:none;" points=" 70 87 82 93 82 81" />
      <polygon style="fill:none; clip-path:url(#clipPath23);" points=" 70 87 82 93 82 81" />
    </g>
    <g transform="translate(489,278)" style="font-size:11; stroke-linecap:butt; text-rendering:geometricPrecision; font-family:sans-serif; stroke-linejoin:round; stroke-dasharray:8,3; stroke-miterlimit:0;">
      <line x1="419" x2="67" y1="67" style="clip-path:url(#clipPath22); fill:none;" y2="67" />
      <line x1="67" x2="79" y1="67" style="clip-path:url(#clipPath22); fill:none; stroke-dasharray:none; stroke-miterlimit:10;" y2="73" />
      <line x1="67" x2="79" y1="67" style="clip-path:url(#clipPath22); fill:none; stroke-dasharray:none; stroke-miterlimit:10;" y2="61" />
    </g>
    <g transform="translate(169,308)" style="font-size:11; stroke-linecap:butt; text-rendering:geometricPrecision; font-family:sans-serif; stroke-linejoin:round; stroke-dasharray:8,3; stroke-miterlimit:0;">
      <line x1="379" x2="67" y1="67" style="clip-path:url(#clipPath21); fill:none;" y2="67" />
      <line x1="67" x2="79" y1="67" style="clip-path:url(#clipPath21); fill:none; stroke-dasharray:none; stroke-miterlimit:10;" y2="73" />
      <line x1="67" x2="79" y1="67" style="clip-path:url(#clipPath21); fill:none; stroke-dasharray:none; stroke-miterlimit:10;" y2="61" />
    </g>
    <g transform="translate(489,468)" style="font-size:11; stroke-linecap:butt; text-rendering:geometricPrecision; font-family:sans-serif; stroke-linejoin:round;">
      <line x1="67" x2="419" y1="67" style="clip-path:url(#clipPath22); fill:none;" y2="67" />
      <polygon style="clip-path:url(#clipPath22); stroke:none;" points=" 419 67 407 61 407 73" />
      <polygon style="fill:none; clip-path:url(#clipPath22);" points=" 419 67 407 61 407 73" />
    </g>
    <g transform="translate(849,488)" style="font-size:11; stroke-linecap:butt; text-rendering:geometricPrecision; font-family:sans-serif; stroke-linejoin:round;">
      <line x1="66" x2="93" y1="67" style="clip-path:url(#clipPath23); fill:none;" y2="67" />
      <line x1="93" x2="93" y1="67" style="clip-path:url(#clipPath23); fill:none;" y2="87" />
      <line x1="93" x2="70" y1="87" style="clip-path:url(#clipPath23); fill:none;" y2="87" />
      <polygon style="clip-path:url(#clipPath23); stroke:none;" points=" 70 87 82 93 82 81" />
      <polygon style="fill:none; clip-path:url(#clipPath23);" points=" 70 87 82 93 82 81" />
    </g>
    <g transform="translate(489,528)" style="font-size:11; stroke-linecap:butt; text-rendering:geometricPrecision; font-family:sans-serif; stroke-linejoin:round; stroke-dasharray:8,3; stroke-miterlimit:0;">
      <line x1="419" x2="67" y1="66" style="clip-path:url(#clipPath22); fill:none;" y2="66" />
      <line x1="67" x2="79" y1="66" style="clip-path:url(#clipPath22); fill:none; stroke-dasharray:none; stroke-miterlimit:10;" y2="72" />
      <line x1="67" x2="79" y1="66" style="clip-path:url(#clipPath22); fill:none; stroke-dasharray:none; stroke-miterlimit:10;" y2="60" />
    </g>
    <g transform="translate(169,548)" style="font-size:11; stroke-linecap:butt; text-rendering:geometricPrecision; font-family:sans-serif; stroke-linejoin:round; stroke-dasharray:8,3; stroke-miterlimit:0;">
      <line x1="379" x2="67" y1="67" style="clip-path:url(#clipPath21); fill:none;" y2="67" />
      <line x1="67" x2="79" y1="67" style="clip-path:url(#clipPath21); fill:none; stroke-dasharray:none; stroke-miterlimit:10;" y2="73" />
      <line x1="67" x2="79" y1="67" style="clip-path:url(#clipPath21); fill:none; stroke-dasharray:none; stroke-miterlimit:10;" y2="61" />
    </g>
    <g transform="translate(169,618)" style="font-size:11; stroke-linecap:butt; text-rendering:geometricPrecision; font-family:sans-serif; stroke-linejoin:round;">
      <line x1="67" x2="379" y1="67" style="clip-path:url(#clipPath21); fill:none;" y2="67" />
      <polygon style="clip-path:url(#clipPath21); stroke:none;" points=" 379 67 367 61 367 73" />
      <polygon style="fill:none; clip-path:url(#clipPath21);" points=" 379 67 367 61 367 73" />
    </g>
    <g transform="translate(169,447)" style="font-size:11; stroke-linecap:butt; text-rendering:geometricPrecision; font-family:sans-serif; stroke-linejoin:round;">
      <line x1="67" x2="379" y1="67" style="clip-path:url(#clipPath21); fill:none;" y2="67" />
      <polygon style="clip-path:url(#clipPath21); stroke:none;" points=" 379 67 367 61 367 73" />
      <polygon style="fill:none; clip-path:url(#clipPath21);" points=" 379 67 367 61 367 73" />
    </g>
    <g style="text-rendering:geometricPrecision; font-size:11; font-family:sans-serif;" transform="translate(353,491)">
      <text x="10" y="14" style="clip-path:url(#clipPath24); stroke:none;" xml:space="preserve">5: 加入好友</text>
    </g>
    <g style="text-rendering:geometricPrecision; font-size:11; font-family:sans-serif;" transform="translate(343,662)">
      <text x="10" y="14" style="clip-path:url(#clipPath25); stroke:none;" xml:space="preserve">7: 取消加入好友</text>
    </g>
    <g style="text-rendering:geometricPrecision; font-size:11; font-family:sans-serif;" transform="translate(332,592)">
      <text x="10" y="14" style="clip-path:url(#clipPath26); stroke:none;" xml:space="preserve">6: 顯示好友編輯頁面</text>
    </g>
    <g style="text-rendering:geometricPrecision; font-size:11; font-family:sans-serif;" transform="translate(645,572)">
      <text x="10" y="14" style="clip-path:url(#clipPath27); stroke:none;" xml:space="preserve">5.1.2: 回傳新增結果及好友資料</text>
    </g>
    <g style="text-rendering:geometricPrecision; font-size:11; font-family:sans-serif;" transform="translate(939,551)">
      <text x="10" y="14" style="clip-path:url(#clipPath28); stroke:none;" xml:space="preserve">5.1.1: 新增好友配對資料</text>
    </g>
    <g style="text-rendering:geometricPrecision; font-size:11; font-family:sans-serif;" transform="translate(656,512)">
      <text x="10" y="14" style="clip-path:url(#clipPath29); stroke:none;" xml:space="preserve">5.1: 請求新增好友配對資料</text>
    </g>
    <g style="text-rendering:geometricPrecision; font-size:11; font-family:sans-serif;" transform="translate(343,352)">
      <text x="10" y="14" style="clip-path:url(#clipPath25); stroke:none;" xml:space="preserve">4: 顯示好友資料</text>
    </g>
    <g style="text-rendering:geometricPrecision; font-size:11; font-family:sans-serif;" transform="translate(673,322)">
      <text x="10" y="14" style="clip-path:url(#clipPath30); stroke:none;" xml:space="preserve">3.1.2: 回傳好友資料</text>
    </g>
    <g style="text-rendering:geometricPrecision; font-size:11; font-family:sans-serif;" transform="translate(951,279)">
      <text x="10" y="14" style="clip-path:url(#clipPath30); stroke:none;" xml:space="preserve">3.1.1: 好友資料查詢</text>
    </g>
    <g style="text-rendering:geometricPrecision; font-size:11; font-family:sans-serif;" transform="translate(343,202)">
      <text x="10" y="14" style="clip-path:url(#clipPath25); stroke:none;" xml:space="preserve">3: 查看好友資料</text>
    </g>
    <g style="text-rendering:geometricPrecision; font-size:11; font-family:sans-serif;" transform="translate(343,142)">
      <text x="10" y="14" style="clip-path:url(#clipPath25); stroke:none;" xml:space="preserve">2: 回傳搜尋結果</text>
    </g>
    <g style="text-rendering:geometricPrecision; font-size:11; font-family:sans-serif;" transform="translate(651,242)">
      <text x="10" y="14" style="clip-path:url(#clipPath31); stroke:none;" xml:space="preserve">3.1: 請求資料庫查詢該友資料</text>
    </g>
    <g style="text-rendering:geometricPrecision; font-size:11; font-family:sans-serif;" transform="translate(343,103)">
      <text x="10" y="14" style="clip-path:url(#clipPath25); stroke:none;" xml:space="preserve">1: 搜尋附近藍芽</text>
    </g>
    
  </g>
</svg>
