<?xml version="1.0" encoding="UTF-8"?>

<!DOCTYPE svg PUBLIC '-//W3C//DTD SVG 1.0//EN' 'http://www.w3.org/TR/2001/REC-SVG-20010904/DTD/svg10.dtd'>
<svg style="fill-opacity:1; color-rendering:auto; color-interpolation:auto; stroke:black; text-rendering:auto; stroke-linecap:square; stroke-miterlimit:10; stroke-opacity:1; shape-rendering:auto; fill:black; stroke-dasharray:none; font-weight:normal; stroke-width:1; font-family:&apos;Dialog&apos;; font-style:normal; stroke-linejoin:miter; font-size:12; stroke-dashoffset:0; image-rendering:auto;" xmlns="http://www.w3.org/2000/svg" width="676" xmlns:xlink="http://www.w3.org/1999/xlink" height="406">
  <!--Generated by the Batik Graphics2D SVG Generator-->
  <defs id="genericDefs" />
  <g>
    <defs id="defs1">
      <clipPath clipPathUnits="userSpaceOnUse" id="clipPath1">
        <path d="M-3 -3 L677 -3 L677 407 L-3 407 L-3 -3 Z" />
      </clipPath>
      <clipPath clipPathUnits="userSpaceOnUse" id="clipPath2">
        <path d="M0 0 L0 390 L7 390 L7 0 Z" />
      </clipPath>
      <clipPath clipPathUnits="userSpaceOnUse" id="clipPath3">
        <path d="M-3 -3 L357 -3 L357 24 L-3 24 L-3 -3 Z" />
      </clipPath>
      <clipPath clipPathUnits="userSpaceOnUse" id="clipPath4">
        <path d="M0 0 L350 0 L350 17 L0 17 L0 0 Z" />
      </clipPath>
      <clipPath clipPathUnits="userSpaceOnUse" id="clipPath5">
        <path d="M-3 -3 L357 -3 L357 390 L-3 390 L-3 -3 Z" />
      </clipPath>
      <clipPath clipPathUnits="userSpaceOnUse" id="clipPath6">
        <path d="M-3 -3 L327 -3 L327 24 L-3 24 L-3 -3 Z" />
      </clipPath>
      <clipPath clipPathUnits="userSpaceOnUse" id="clipPath7">
        <path d="M0 0 L320 0 L320 17 L0 17 L0 0 Z" />
      </clipPath>
      <clipPath clipPathUnits="userSpaceOnUse" id="clipPath8">
        <path d="M-3 -3 L327 -3 L327 390 L-3 390 L-3 -3 Z" />
      </clipPath>
      <clipPath clipPathUnits="userSpaceOnUse" id="clipPath9">
        <path d="M-3 -3 L47 -3 L47 27 L-3 27 L-3 -3 Z" />
      </clipPath>
      <clipPath clipPathUnits="userSpaceOnUse" id="clipPath10">
        <path d="M-3 -3 L117 -3 L117 47 L-3 47 L-3 -3 Z" />
      </clipPath>
      <clipPath clipPathUnits="userSpaceOnUse" id="clipPath11">
        <path d="M0 0 L110 0 L110 40 L0 40 L0 0 Z" />
      </clipPath>
      <clipPath clipPathUnits="userSpaceOnUse" id="clipPath12">
        <path d="M-3 -3 L97 -3 L97 47 L-3 47 L-3 -3 Z" />
      </clipPath>
      <clipPath clipPathUnits="userSpaceOnUse" id="clipPath13">
        <path d="M0 0 L90 0 L90 40 L0 40 L0 0 Z" />
      </clipPath>
      <clipPath clipPathUnits="userSpaceOnUse" id="clipPath14">
        <path d="M-3 -3 L27 -3 L27 47 L-3 47 L-3 -3 Z" />
      </clipPath>
      <clipPath clipPathUnits="userSpaceOnUse" id="clipPath15">
        <path d="M-3 -3 L137 -3 L137 47 L-3 47 L-3 -3 Z" />
      </clipPath>
      <clipPath clipPathUnits="userSpaceOnUse" id="clipPath16">
        <path d="M0 0 L130 0 L130 40 L0 40 L0 0 Z" />
      </clipPath>
      <clipPath clipPathUnits="userSpaceOnUse" id="clipPath17">
        <path d="M-3 -3 L87 -3 L87 47 L-3 47 L-3 -3 Z" />
      </clipPath>
      <clipPath clipPathUnits="userSpaceOnUse" id="clipPath18">
        <path d="M0 0 L80 0 L80 40 L0 40 L0 0 Z" />
      </clipPath>
      <clipPath clipPathUnits="userSpaceOnUse" id="clipPath19">
        <path d="M-3 -3 L127 -3 L127 47 L-3 47 L-3 -3 Z" />
      </clipPath>
      <clipPath clipPathUnits="userSpaceOnUse" id="clipPath20">
        <path d="M0 0 L120 0 L120 40 L0 40 L0 0 Z" />
      </clipPath>
      <clipPath clipPathUnits="userSpaceOnUse" id="clipPath21">
        <path d="M-3 -3 L27 -3 L27 27 L-3 27 L-3 -3 Z" />
      </clipPath>
      <clipPath clipPathUnits="userSpaceOnUse" id="clipPath22">
        <path d="M0 0 L320 0 L320 383 L0 383 L0 0 Z" />
      </clipPath>
      <clipPath clipPathUnits="userSpaceOnUse" id="clipPath23">
        <path d="M0 0 L350 0 L350 383 L0 383 L0 0 Z" />
      </clipPath>
      <clipPath clipPathUnits="userSpaceOnUse" id="clipPath24">
        <path d="M0 0 L165 0 L165 104 L0 104 L0 0 Z" />
      </clipPath>
      <clipPath clipPathUnits="userSpaceOnUse" id="clipPath25">
        <path d="M0 0 L385 0 L385 104 L0 104 L0 0 Z" />
      </clipPath>
      <clipPath clipPathUnits="userSpaceOnUse" id="clipPath26">
        <path d="M0 0 L104 0 L104 143 L0 143 L0 0 Z" />
      </clipPath>
      <clipPath clipPathUnits="userSpaceOnUse" id="clipPath27">
        <path d="M0 0 L488 0 L488 157 L0 157 L0 0 Z" />
      </clipPath>
      <clipPath clipPathUnits="userSpaceOnUse" id="clipPath28">
        <path d="M0 0 L395 0 L395 104 L0 104 L0 0 Z" />
      </clipPath>
      <clipPath clipPathUnits="userSpaceOnUse" id="clipPath29">
        <path d="M0 0 L164 0 L164 167 L0 167 L0 0 Z" />
      </clipPath>
      <clipPath clipPathUnits="userSpaceOnUse" id="clipPath30">
        <path d="M0 0 L208 0 L208 104 L0 104 L0 0 Z" />
      </clipPath>
      <clipPath clipPathUnits="userSpaceOnUse" id="clipPath31">
        <path d="M0 0 L104 0 L104 145 L0 145 L0 0 Z" />
      </clipPath>
      <clipPath clipPathUnits="userSpaceOnUse" id="clipPath32">
        <path d="M0 0 L59 0 L59 17 L0 17 L0 0 Z" />
      </clipPath>
      <clipPath clipPathUnits="userSpaceOnUse" id="clipPath33">
        <path d="M0 0 L48 0 L48 17 L0 17 L0 0 Z" />
      </clipPath>
      <clipPath clipPathUnits="userSpaceOnUse" id="clipPath34">
        <path d="M0 0 L37 0 L37 17 L0 17 L0 0 Z" />
      </clipPath>
    </defs>
    <g style="fill:white; text-rendering:geometricPrecision; stroke:white;">
      <rect x="0" y="0" width="676" style="stroke:none;" height="406" />
    </g>
    <g transform="translate(2,2)" style="text-rendering:geometricPrecision; stroke-width:2; font-size:11; font-family:sans-serif;">
      <rect x="0" y="0" width="350" style="clip-path:url(#clipPath3); fill:none;" height="17" />
    </g>
    <g style="text-rendering:geometricPrecision; font-size:11; font-family:sans-serif;" transform="translate(2,2)">
      <text x="158" y="14" style="clip-path:url(#clipPath4); stroke:none;" xml:space="preserve">使用者</text>
    </g>
    <g transform="translate(2,19)" style="text-rendering:geometricPrecision; stroke-width:2; font-size:11; font-family:sans-serif;">
      <rect x="0" y="0" width="350" style="clip-path:url(#clipPath5); fill:none;" height="383" />
    </g>
    <g transform="translate(352,2)" style="text-rendering:geometricPrecision; stroke-width:2; font-size:11; font-family:sans-serif;">
      <rect x="0" y="0" width="320" style="clip-path:url(#clipPath6); fill:none;" height="17" />
    </g>
    <g style="text-rendering:geometricPrecision; font-size:11; font-family:sans-serif;" transform="translate(352,2)">
      <text x="143" y="14" style="clip-path:url(#clipPath7); stroke:none;" xml:space="preserve">伺服器</text>
    </g>
    <g transform="translate(352,19)" style="text-rendering:geometricPrecision; stroke-width:2; font-size:11; font-family:sans-serif;">
      <rect x="0" y="0" width="320" style="clip-path:url(#clipPath8); fill:none;" height="383" />
    </g>
    <g style="text-rendering:geometricPrecision; font-size:11; font-family:sans-serif;" transform="translate(32,60)">
      <circle style="clip-path:url(#clipPath9); stroke:none;" r="10" cx="20" cy="10" />
    </g>
    <g transform="translate(122,50)" style="font-size:11; fill:rgb(122,207,245); text-rendering:geometricPrecision; font-family:sans-serif; stroke:rgb(122,207,245);">
      <rect x="1" y="1" width="108" style="clip-path:url(#clipPath10); stroke:none;" rx="15" ry="15" height="38" />
    </g>
    <g transform="translate(122,50)" style="font-size:11; stroke-linecap:butt; text-rendering:geometricPrecision; font-family:sans-serif; stroke-linejoin:round; stroke-miterlimit:0;">
      <rect x="1" y="1" width="108" style="clip-path:url(#clipPath10); fill:none;" rx="15" ry="15" height="38" />
    </g>
    <g style="text-rendering:geometricPrecision; font-size:11; font-family:sans-serif;" transform="translate(122,50)">
      <text x="11" y="25" style="clip-path:url(#clipPath11); stroke:none;" xml:space="preserve">背景搜尋附近藍牙</text>
    </g>
    <g transform="translate(512,50)" style="font-size:11; fill:rgb(122,207,245); text-rendering:geometricPrecision; font-family:sans-serif; stroke:rgb(122,207,245);">
      <rect x="1" y="1" width="88" style="clip-path:url(#clipPath12); stroke:none;" rx="15" ry="15" height="38" />
    </g>
    <g transform="translate(512,50)" style="font-size:11; stroke-linecap:butt; text-rendering:geometricPrecision; font-family:sans-serif; stroke-linejoin:round; stroke-miterlimit:0;">
      <rect x="1" y="1" width="88" style="clip-path:url(#clipPath12); fill:none;" rx="15" ry="15" height="38" />
    </g>
    <g style="text-rendering:geometricPrecision; font-size:11; font-family:sans-serif;" transform="translate(512,50)">
      <text x="12" y="25" style="clip-path:url(#clipPath13); stroke:none;" xml:space="preserve">查詢是否配對</text>
    </g>
    <g transform="translate(552,120)" style="font-size:11; fill:rgb(122,207,245); text-rendering:geometricPrecision; font-family:sans-serif; stroke:rgb(122,207,245);">
      <polygon style="clip-path:url(#clipPath14); stroke:none;" points=" 10 7 17 20 10 32 3 20" />
    </g>
    <g transform="translate(552,120)" style="font-size:11; stroke-linecap:butt; text-rendering:geometricPrecision; font-family:sans-serif; stroke-linejoin:round; stroke-miterlimit:0;">
      <polygon style="fill:none; clip-path:url(#clipPath14);" points=" 10 7 17 20 10 32 3 20" />
    </g>
    <g transform="translate(502,190)" style="font-size:11; fill:rgb(122,207,245); text-rendering:geometricPrecision; font-family:sans-serif; stroke:rgb(122,207,245);">
      <rect x="1" y="1" width="128" style="clip-path:url(#clipPath15); stroke:none;" rx="15" ry="15" height="38" />
    </g>
    <g transform="translate(502,190)" style="font-size:11; stroke-linecap:butt; text-rendering:geometricPrecision; font-family:sans-serif; stroke-linejoin:round; stroke-miterlimit:0;">
      <rect x="1" y="1" width="128" style="clip-path:url(#clipPath15); fill:none;" rx="15" ry="15" height="38" />
    </g>
    <g style="text-rendering:geometricPrecision; font-size:11; font-family:sans-serif;" transform="translate(502,190)">
      <text x="15" y="25" style="clip-path:url(#clipPath16); stroke:none;" xml:space="preserve">以藍牙查詢個人資訊</text>
    </g>
    <g transform="translate(132,190)" style="font-size:11; fill:rgb(122,207,245); text-rendering:geometricPrecision; font-family:sans-serif; stroke:rgb(122,207,245);">
      <rect x="1" y="1" width="78" style="clip-path:url(#clipPath17); stroke:none;" rx="15" ry="15" height="38" />
    </g>
    <g transform="translate(132,190)" style="font-size:11; stroke-linecap:butt; text-rendering:geometricPrecision; font-family:sans-serif; stroke-linejoin:round; stroke-miterlimit:0;">
      <rect x="1" y="1" width="78" style="clip-path:url(#clipPath17); fill:none;" rx="15" ry="15" height="38" />
    </g>
    <g style="text-rendering:geometricPrecision; font-size:11; font-family:sans-serif;" transform="translate(132,190)">
      <text x="7" y="25" style="clip-path:url(#clipPath18); stroke:none;" xml:space="preserve">推播朋友資訊</text>
    </g>
    <g transform="translate(162,262)" style="font-size:11; fill:rgb(122,207,245); text-rendering:geometricPrecision; font-family:sans-serif; stroke:rgb(122,207,245);">
      <polygon style="clip-path:url(#clipPath14); stroke:none;" points=" 10 7 17 20 10 32 3 20" />
    </g>
    <g transform="translate(162,262)" style="font-size:11; stroke-linecap:butt; text-rendering:geometricPrecision; font-family:sans-serif; stroke-linejoin:round; stroke-miterlimit:0;">
      <polygon style="fill:none; clip-path:url(#clipPath14);" points=" 10 7 17 20 10 32 3 20" />
    </g>
    <g transform="translate(112,332)" style="font-size:11; fill:rgb(122,207,245); text-rendering:geometricPrecision; font-family:sans-serif; stroke:rgb(122,207,245);">
      <rect x="1" y="1" width="118" style="clip-path:url(#clipPath19); stroke:none;" rx="15" ry="15" height="38" />
    </g>
    <g transform="translate(112,332)" style="font-size:11; stroke-linecap:butt; text-rendering:geometricPrecision; font-family:sans-serif; stroke-linejoin:round; stroke-miterlimit:0;">
      <rect x="1" y="1" width="118" style="clip-path:url(#clipPath19); fill:none;" rx="15" ry="15" height="38" />
    </g>
    <g style="text-rendering:geometricPrecision; font-size:11; font-family:sans-serif;" transform="translate(112,332)">
      <text x="5" y="25" style="clip-path:url(#clipPath20); stroke:none;" xml:space="preserve">開啟朋友詳細資訊頁面</text>
    </g>
    <g style="text-rendering:geometricPrecision; font-size:11; font-family:sans-serif;" transform="translate(42,272)">
      <circle style="clip-path:url(#clipPath21); stroke:none;" r="6.6667" cx="10" cy="10" />
      <circle style="stroke-linecap:butt; clip-path:url(#clipPath21); fill:none; stroke-linejoin:round; stroke-miterlimit:0;" r="10" cx="10" cy="10" />
    </g>
    <g transform="translate(11,20)" style="font-size:11; stroke-linecap:butt; text-rendering:geometricPrecision; font-family:sans-serif; stroke-linejoin:round;">
      <line x1="50" x2="111" y1="50" style="clip-path:url(#clipPath24); fill:none;" y2="50" />
      <line x1="111" x2="99" y1="50" style="clip-path:url(#clipPath24); fill:none;" y2="44" />
      <line x1="111" x2="99" y1="50" style="clip-path:url(#clipPath24); fill:none;" y2="56" />
    </g>
    <g transform="translate(181,22)" style="font-size:11; stroke-linecap:butt; text-rendering:geometricPrecision; font-family:sans-serif; stroke-linejoin:round;">
      <line x1="50" x2="331" y1="50" style="clip-path:url(#clipPath25); fill:none;" y2="50" />
      <line x1="331" x2="319" y1="50" style="clip-path:url(#clipPath25); fill:none;" y2="44" />
      <line x1="331" x2="319" y1="50" style="clip-path:url(#clipPath25); fill:none;" y2="56" />
    </g>
    <g transform="translate(512,39)" style="font-size:11; stroke-linecap:butt; text-rendering:geometricPrecision; font-family:sans-serif; stroke-linejoin:round;">
      <line x1="50" x2="50" y1="50" style="clip-path:url(#clipPath26); fill:none;" y2="89" />
      <line x1="50" x2="56" y1="89" style="clip-path:url(#clipPath26); fill:none;" y2="77" />
      <line x1="50" x2="44" y1="89" style="clip-path:url(#clipPath26); fill:none;" y2="77" />
    </g>
    <g transform="translate(122,39)" style="font-size:11; stroke-linecap:butt; text-rendering:geometricPrecision; font-family:sans-serif; stroke-linejoin:round;">
      <line x1="434" x2="50" y1="101" style="clip-path:url(#clipPath27); fill:none;" y2="103" />
      <line x1="50" x2="50" y1="103" style="clip-path:url(#clipPath27); fill:none;" y2="50" />
      <line x1="50" x2="44" y1="50" style="clip-path:url(#clipPath27); fill:none;" y2="62" />
      <line x1="50" x2="56" y1="50" style="clip-path:url(#clipPath27); fill:none;" y2="62" />
    </g>
    <g transform="translate(512,101)" style="font-size:11; stroke-linecap:butt; text-rendering:geometricPrecision; font-family:sans-serif; stroke-linejoin:round;">
      <line x1="50" x2="50" y1="50" style="clip-path:url(#clipPath26); fill:none;" y2="89" />
      <line x1="50" x2="56" y1="89" style="clip-path:url(#clipPath26); fill:none;" y2="77" />
      <line x1="50" x2="44" y1="89" style="clip-path:url(#clipPath26); fill:none;" y2="77" />
    </g>
    <g transform="translate(161,162)" style="font-size:11; stroke-linecap:butt; text-rendering:geometricPrecision; font-family:sans-serif; stroke-linejoin:round;">
      <line x1="341" x2="50" y1="50" style="clip-path:url(#clipPath28); fill:none;" y2="50" />
      <line x1="50" x2="62" y1="50" style="clip-path:url(#clipPath28); fill:none;" y2="56" />
      <line x1="50" x2="62" y1="50" style="clip-path:url(#clipPath28); fill:none;" y2="44" />
    </g>
    <g transform="translate(122,243)" style="font-size:11; stroke-linecap:butt; text-rendering:geometricPrecision; font-family:sans-serif; stroke-linejoin:round;">
      <line x1="50" x2="50" y1="50" style="clip-path:url(#clipPath26); fill:none;" y2="89" />
      <line x1="50" x2="56" y1="89" style="clip-path:url(#clipPath26); fill:none;" y2="77" />
      <line x1="50" x2="44" y1="89" style="clip-path:url(#clipPath26); fill:none;" y2="77" />
    </g>
    <g transform="translate(2,241)" style="font-size:11; stroke-linecap:butt; text-rendering:geometricPrecision; font-family:sans-serif; stroke-linejoin:round;">
      <line x1="110" x2="50" y1="113" style="clip-path:url(#clipPath29); fill:none;" y2="113" />
      <line x1="50" x2="50" y1="113" style="clip-path:url(#clipPath29); fill:none;" y2="50" />
      <line x1="50" x2="44" y1="50" style="clip-path:url(#clipPath29); fill:none;" y2="62" />
      <line x1="50" x2="56" y1="50" style="clip-path:url(#clipPath29); fill:none;" y2="62" />
    </g>
    <g transform="translate(11,232)" style="font-size:11; stroke-linecap:butt; text-rendering:geometricPrecision; font-family:sans-serif; stroke-linejoin:round;">
      <line x1="154" x2="50" y1="50" style="clip-path:url(#clipPath30); fill:none;" y2="50" />
      <line x1="50" x2="62" y1="50" style="clip-path:url(#clipPath30); fill:none;" y2="56" />
      <line x1="50" x2="62" y1="50" style="clip-path:url(#clipPath30); fill:none;" y2="44" />
    </g>
    <g transform="translate(122,179)" style="font-size:11; stroke-linecap:butt; text-rendering:geometricPrecision; font-family:sans-serif; stroke-linejoin:round;">
      <line x1="50" x2="50" y1="50" style="clip-path:url(#clipPath31); fill:none;" y2="91" />
      <line x1="50" x2="56" y1="91" style="clip-path:url(#clipPath31); fill:none;" y2="79" />
      <line x1="50" x2="44" y1="91" style="clip-path:url(#clipPath31); fill:none;" y2="79" />
    </g>
    <g style="text-rendering:geometricPrecision; font-size:11; font-family:sans-serif;" transform="translate(110,262)">
      <text x="10" y="14" style="clip-path:url(#clipPath32); stroke:none;" xml:space="preserve">[不點擊]</text>
    </g>
    <g style="text-rendering:geometricPrecision; font-size:11; font-family:sans-serif;" transform="translate(166,292)">
      <text x="10" y="14" style="clip-path:url(#clipPath33); stroke:none;" xml:space="preserve">[點擊]</text>
    </g>
    <g style="text-rendering:geometricPrecision; font-size:11; font-family:sans-serif;" transform="translate(552,160)">
      <text x="10" y="14" style="clip-path:url(#clipPath34); stroke:none;" xml:space="preserve">[是]</text>
    </g>
    <g style="text-rendering:geometricPrecision; font-size:11; font-family:sans-serif;" transform="translate(512,120)">
      <text x="10" y="14" style="clip-path:url(#clipPath34); stroke:none;" xml:space="preserve">[否]</text>
    </g>
    
  </g>
</svg>
