<?xml version="1.0" encoding="UTF-8"?>

<!DOCTYPE svg PUBLIC '-//W3C//DTD SVG 1.0//EN' 'http://www.w3.org/TR/2001/REC-SVG-20010904/DTD/svg10.dtd'>
<svg style="fill-opacity:1; color-rendering:auto; color-interpolation:auto; stroke:black; text-rendering:auto; stroke-linecap:square; stroke-miterlimit:10; stroke-opacity:1; shape-rendering:auto; fill:black; stroke-dasharray:none; font-weight:normal; stroke-width:1; font-family:&apos;Dialog&apos;; font-style:normal; stroke-linejoin:miter; font-size:12; stroke-dashoffset:0; image-rendering:auto;" xmlns="http://www.w3.org/2000/svg" width="586" xmlns:xlink="http://www.w3.org/1999/xlink" height="426">
  <!--Generated by the Batik Graphics2D SVG Generator-->
  <defs id="genericDefs" />
  <g>
    <defs id="defs1">
      <clipPath clipPathUnits="userSpaceOnUse" id="clipPath1">
        <path d="M-3 -3 L587 -3 L587 427 L-3 427 L-3 -3 Z" />
      </clipPath>
      <clipPath clipPathUnits="userSpaceOnUse" id="clipPath2">
        <path d="M0 0 L0 410 L7 410 L7 0 Z" />
      </clipPath>
      <clipPath clipPathUnits="userSpaceOnUse" id="clipPath3">
        <path d="M-3 -3 L327 -3 L327 410 L-3 410 L-3 -3 Z" />
      </clipPath>
      <clipPath clipPathUnits="userSpaceOnUse" id="clipPath4">
        <path d="M-3 -3 L67 -3 L67 47 L-3 47 L-3 -3 Z" />
      </clipPath>
      <clipPath clipPathUnits="userSpaceOnUse" id="clipPath5">
        <path d="M0 0 L0 40 L60 40 L60 0 Z" />
      </clipPath>
      <clipPath clipPathUnits="userSpaceOnUse" id="clipPath6">
        <path d="M-3 -3 L267 -3 L267 24 L-3 24 L-3 -3 Z" />
      </clipPath>
      <clipPath clipPathUnits="userSpaceOnUse" id="clipPath7">
        <path d="M0 0 L260 0 L260 17 L0 17 L0 0 Z" />
      </clipPath>
      <clipPath clipPathUnits="userSpaceOnUse" id="clipPath8">
        <path d="M-3 -3 L267 -3 L267 410 L-3 410 L-3 -3 Z" />
      </clipPath>
      <clipPath clipPathUnits="userSpaceOnUse" id="clipPath9">
        <path d="M-3 -3 L327 -3 L327 24 L-3 24 L-3 -3 Z" />
      </clipPath>
      <clipPath clipPathUnits="userSpaceOnUse" id="clipPath10">
        <path d="M0 0 L320 0 L320 17 L0 17 L0 0 Z" />
      </clipPath>
      <clipPath clipPathUnits="userSpaceOnUse" id="clipPath11">
        <path d="M-3 -3 L47 -3 L47 27 L-3 27 L-3 -3 Z" />
      </clipPath>
      <clipPath clipPathUnits="userSpaceOnUse" id="clipPath12">
        <path d="M-3 -3 L87 -3 L87 47 L-3 47 L-3 -3 Z" />
      </clipPath>
      <clipPath clipPathUnits="userSpaceOnUse" id="clipPath13">
        <path d="M0 0 L80 0 L80 40 L0 40 L0 0 Z" />
      </clipPath>
      <clipPath clipPathUnits="userSpaceOnUse" id="clipPath14">
        <path d="M-3 -3 L107 -3 L107 47 L-3 47 L-3 -3 Z" />
      </clipPath>
      <clipPath clipPathUnits="userSpaceOnUse" id="clipPath15">
        <path d="M0 0 L100 0 L100 40 L0 40 L0 0 Z" />
      </clipPath>
      <clipPath clipPathUnits="userSpaceOnUse" id="clipPath16">
        <path d="M-3 -3 L27 -3 L27 47 L-3 47 L-3 -3 Z" />
      </clipPath>
      <clipPath clipPathUnits="userSpaceOnUse" id="clipPath17">
        <path d="M-3 -3 L157 -3 L157 47 L-3 47 L-3 -3 Z" />
      </clipPath>
      <clipPath clipPathUnits="userSpaceOnUse" id="clipPath18">
        <path d="M-3 -3 L97 -3 L97 47 L-3 47 L-3 -3 Z" />
      </clipPath>
      <clipPath clipPathUnits="userSpaceOnUse" id="clipPath19">
        <path d="M0 0 L90 0 L90 40 L0 40 L0 0 Z" />
      </clipPath>
      <clipPath clipPathUnits="userSpaceOnUse" id="clipPath20">
        <path d="M0 0 L60 0 L60 40 L0 40 L0 0 Z" />
      </clipPath>
      <clipPath clipPathUnits="userSpaceOnUse" id="clipPath21">
        <path d="M-3 -3 L27 -3 L27 27 L-3 27 L-3 -3 Z" />
      </clipPath>
      <clipPath clipPathUnits="userSpaceOnUse" id="clipPath22">
        <path d="M0 0 L150 0 L150 40 L0 40 L0 0 Z" />
      </clipPath>
      <clipPath clipPathUnits="userSpaceOnUse" id="clipPath23">
        <path d="M0 0 L320 0 L320 403 L0 403 L0 0 Z" />
      </clipPath>
      <clipPath clipPathUnits="userSpaceOnUse" id="clipPath24">
        <path d="M0 0 L260 0 L260 403 L0 403 L0 0 Z" />
      </clipPath>
      <clipPath clipPathUnits="userSpaceOnUse" id="clipPath25">
        <path d="M0 0 L165 0 L165 104 L0 104 L0 0 Z" />
      </clipPath>
      <clipPath clipPathUnits="userSpaceOnUse" id="clipPath26">
        <path d="M0 0 L104 0 L104 125 L0 125 L0 0 Z" />
      </clipPath>
      <clipPath clipPathUnits="userSpaceOnUse" id="clipPath27">
        <path d="M0 0 L265 0 L265 104 L0 104 L0 0 Z" />
      </clipPath>
      <clipPath clipPathUnits="userSpaceOnUse" id="clipPath28">
        <path d="M0 0 L104 0 L104 153 L0 153 L0 0 Z" />
      </clipPath>
      <clipPath clipPathUnits="userSpaceOnUse" id="clipPath29">
        <path d="M0 0 L357 0 L357 165 L0 165 L0 0 Z" />
      </clipPath>
      <clipPath clipPathUnits="userSpaceOnUse" id="clipPath30">
        <path d="M0 0 L104 0 L104 144 L0 144 L0 0 Z" />
      </clipPath>
      <clipPath clipPathUnits="userSpaceOnUse" id="clipPath31">
        <path d="M0 0 L104 0 L104 143 L0 143 L0 0 Z" />
      </clipPath>
      <clipPath clipPathUnits="userSpaceOnUse" id="clipPath32">
        <path d="M0 0 L305 0 L305 104 L0 104 L0 0 Z" />
      </clipPath>
      <clipPath clipPathUnits="userSpaceOnUse" id="clipPath33">
        <path d="M0 0 L155 0 L155 104 L0 104 L0 0 Z" />
      </clipPath>
      <clipPath clipPathUnits="userSpaceOnUse" id="clipPath34">
        <path d="M0 0 L70 0 L70 17 L0 17 L0 0 Z" />
      </clipPath>
    </defs>
    <g style="fill:white; text-rendering:geometricPrecision; stroke:white;">
      <rect x="0" y="0" width="586" style="stroke:none;" height="426" />
    </g>
    <g transform="translate(262,19)" style="text-rendering:geometricPrecision; stroke-width:2; font-size:11; font-family:sans-serif;">
      <rect x="0" y="0" width="320" style="clip-path:url(#clipPath3); fill:none;" height="403" />
    </g>
    <g transform="translate(2,2)" style="text-rendering:geometricPrecision; stroke-width:2; font-size:11; font-family:sans-serif;">
      <rect x="0" y="0" width="260" style="clip-path:url(#clipPath6); fill:none;" height="17" />
    </g>
    <g style="text-rendering:geometricPrecision; font-size:11; font-family:sans-serif;" transform="translate(2,2)">
      <text x="113" y="14" style="clip-path:url(#clipPath7); stroke:none;" xml:space="preserve">使用者</text>
    </g>
    <g transform="translate(2,19)" style="text-rendering:geometricPrecision; stroke-width:2; font-size:11; font-family:sans-serif;">
      <rect x="0" y="0" width="260" style="clip-path:url(#clipPath8); fill:none;" height="403" />
    </g>
    <g transform="translate(262,2)" style="text-rendering:geometricPrecision; stroke-width:2; font-size:11; font-family:sans-serif;">
      <rect x="0" y="0" width="320" style="clip-path:url(#clipPath9); fill:none;" height="17" />
    </g>
    <g style="text-rendering:geometricPrecision; font-size:11; font-family:sans-serif;" transform="translate(262,2)">
      <text x="143" y="14" style="clip-path:url(#clipPath10); stroke:none;" xml:space="preserve">伺服器</text>
    </g>
    <g style="text-rendering:geometricPrecision; font-size:11; font-family:sans-serif;" transform="translate(32,72)">
      <circle style="clip-path:url(#clipPath11); stroke:none;" r="10" cx="20" cy="10" />
    </g>
    <g transform="translate(122,62)" style="font-size:11; fill:rgb(122,207,245); text-rendering:geometricPrecision; font-family:sans-serif; stroke:rgb(122,207,245);">
      <rect x="1" y="1" width="78" style="clip-path:url(#clipPath12); stroke:none;" rx="15" ry="15" height="38" />
    </g>
    <g transform="translate(122,62)" style="font-size:11; stroke-linecap:butt; text-rendering:geometricPrecision; font-family:sans-serif; stroke-linejoin:round; stroke-miterlimit:0;">
      <rect x="1" y="1" width="78" style="clip-path:url(#clipPath12); fill:none;" rx="15" ry="15" height="38" />
    </g>
    <g style="text-rendering:geometricPrecision; font-size:11; font-family:sans-serif;" transform="translate(122,62)">
      <text x="7" y="25" style="clip-path:url(#clipPath13); stroke:none;" xml:space="preserve">開啟註冊頁面</text>
    </g>
    <g transform="translate(122,122)" style="font-size:11; fill:rgb(122,207,245); text-rendering:geometricPrecision; font-family:sans-serif; stroke:rgb(122,207,245);">
      <rect x="1" y="1" width="98" style="clip-path:url(#clipPath14); stroke:none;" rx="15" ry="15" height="38" />
    </g>
    <g transform="translate(122,122)" style="font-size:11; stroke-linecap:butt; text-rendering:geometricPrecision; font-family:sans-serif; stroke-linejoin:round; stroke-miterlimit:0;">
      <rect x="1" y="1" width="98" style="clip-path:url(#clipPath14); fill:none;" rx="15" ry="15" height="38" />
    </g>
    <g style="text-rendering:geometricPrecision; font-size:11; font-family:sans-serif;" transform="translate(122,122)">
      <text x="6" y="25" style="clip-path:url(#clipPath15); stroke:none;" xml:space="preserve">輸入註冊所需資訊</text>
    </g>
    <g transform="translate(382,122)" style="font-size:11; fill:rgb(122,207,245); text-rendering:geometricPrecision; font-family:sans-serif; stroke:rgb(122,207,245);">
      <rect x="1" y="1" width="78" style="clip-path:url(#clipPath12); stroke:none;" rx="15" ry="15" height="38" />
    </g>
    <g transform="translate(382,122)" style="font-size:11; stroke-linecap:butt; text-rendering:geometricPrecision; font-family:sans-serif; stroke-linejoin:round; stroke-miterlimit:0;">
      <rect x="1" y="1" width="78" style="clip-path:url(#clipPath12); fill:none;" rx="15" ry="15" height="38" />
    </g>
    <g style="text-rendering:geometricPrecision; font-size:11; font-family:sans-serif;" transform="translate(382,122)">
      <text x="7" y="25" style="clip-path:url(#clipPath13); stroke:none;" xml:space="preserve">驗證註冊資訊</text>
    </g>
    <g transform="translate(412,202)" style="font-size:11; fill:rgb(122,207,245); text-rendering:geometricPrecision; font-family:sans-serif; stroke:rgb(122,207,245);">
      <polygon style="clip-path:url(#clipPath16); stroke:none;" points=" 10 7 17 20 10 32 3 20" />
    </g>
    <g transform="translate(412,202)" style="font-size:11; stroke-linecap:butt; text-rendering:geometricPrecision; font-family:sans-serif; stroke-linejoin:round; stroke-miterlimit:0;">
      <polygon style="fill:none; clip-path:url(#clipPath16);" points=" 10 7 17 20 10 32 3 20" />
    </g>
    <g transform="translate(352,42)" style="font-size:11; fill:rgb(122,207,245); text-rendering:geometricPrecision; font-family:sans-serif; stroke:rgb(122,207,245);">
      <polygon style="clip-path:url(#clipPath17); stroke:none;" points=" 0 0 134 0 149 15 134 15 134 0 149 15 149 39 0 39" />
    </g>
    <g transform="translate(352,42)" style="font-size:11; stroke-linecap:butt; text-rendering:geometricPrecision; font-family:sans-serif; stroke-linejoin:round; stroke-miterlimit:0;">
      <polygon style="fill:none; clip-path:url(#clipPath17);" points=" 0 0 134 0 149 15 134 15 134 0 149 15 149 39 0 39" />
    </g>
    <g transform="translate(382,272)" style="font-size:11; fill:rgb(122,207,245); text-rendering:geometricPrecision; font-family:sans-serif; stroke:rgb(122,207,245);">
      <rect x="1" y="1" width="88" style="clip-path:url(#clipPath18); stroke:none;" rx="15" ry="15" height="38" />
    </g>
    <g transform="translate(382,272)" style="font-size:11; stroke-linecap:butt; text-rendering:geometricPrecision; font-family:sans-serif; stroke-linejoin:round; stroke-miterlimit:0;">
      <rect x="1" y="1" width="88" style="clip-path:url(#clipPath18); fill:none;" rx="15" ry="15" height="38" />
    </g>
    <g style="text-rendering:geometricPrecision; font-size:11; font-family:sans-serif;" transform="translate(382,272)">
      <text x="17" y="25" style="clip-path:url(#clipPath19); stroke:none;" xml:space="preserve">新增使用者</text>
    </g>
    <g transform="translate(122,272)" style="font-size:11; fill:rgb(122,207,245); text-rendering:geometricPrecision; font-family:sans-serif; stroke:rgb(122,207,245);">
      <rect x="1" y="1" width="58" style="clip-path:url(#clipPath4); stroke:none;" rx="15" ry="15" height="38" />
    </g>
    <g transform="translate(122,272)" style="font-size:11; stroke-linecap:butt; text-rendering:geometricPrecision; font-family:sans-serif; stroke-linejoin:round; stroke-miterlimit:0;">
      <rect x="1" y="1" width="58" style="clip-path:url(#clipPath4); fill:none;" rx="15" ry="15" height="38" />
    </g>
    <g style="text-rendering:geometricPrecision; font-size:11; font-family:sans-serif;" transform="translate(122,272)">
      <text x="8" y="25" style="clip-path:url(#clipPath20); stroke:none;" xml:space="preserve">新增成功</text>
    </g>
    <g transform="translate(102,332)" style="font-size:11; fill:rgb(122,207,245); text-rendering:geometricPrecision; font-family:sans-serif; stroke:rgb(122,207,245);">
      <rect x="1" y="1" width="98" style="clip-path:url(#clipPath14); stroke:none;" rx="15" ry="15" height="38" />
    </g>
    <g transform="translate(102,332)" style="font-size:11; stroke-linecap:butt; text-rendering:geometricPrecision; font-family:sans-serif; stroke-linejoin:round; stroke-miterlimit:0;">
      <rect x="1" y="1" width="98" style="clip-path:url(#clipPath14); fill:none;" rx="15" ry="15" height="38" />
    </g>
    <g style="text-rendering:geometricPrecision; font-size:11; font-family:sans-serif;" transform="translate(102,332)">
      <text x="6" y="25" style="clip-path:url(#clipPath15); stroke:none;" xml:space="preserve">開啟個人資訊頁面</text>
    </g>
    <g style="text-rendering:geometricPrecision; font-size:11; font-family:sans-serif;" transform="translate(32,342)">
      <circle style="clip-path:url(#clipPath21); stroke:none;" r="6.6667" cx="10" cy="10" />
      <circle style="stroke-linecap:butt; clip-path:url(#clipPath21); fill:none; stroke-linejoin:round; stroke-miterlimit:0;" r="10" cx="10" cy="10" />
    </g>
    <g style="text-rendering:geometricPrecision; font-size:11; font-family:sans-serif;" transform="translate(352,42)">
      <text x="30" y="17" style="clip-path:url(#clipPath22); stroke:none;" xml:space="preserve">1. 是否有未填項目</text>
      <text x="35" y="34" style="clip-path:url(#clipPath22); stroke:none;" xml:space="preserve">2. 格式是否正確</text>
    </g>
    <g transform="translate(11,32)" style="font-size:11; stroke-linecap:butt; text-rendering:geometricPrecision; font-family:sans-serif; stroke-linejoin:round;">
      <line x1="50" x2="111" y1="50" style="clip-path:url(#clipPath25); fill:none;" y2="50" />
      <line x1="111" x2="99" y1="50" style="clip-path:url(#clipPath25); fill:none;" y2="44" />
      <line x1="111" x2="99" y1="50" style="clip-path:url(#clipPath25); fill:none;" y2="56" />
    </g>
    <g transform="translate(112,51)" style="font-size:11; stroke-linecap:butt; text-rendering:geometricPrecision; font-family:sans-serif; stroke-linejoin:round;">
      <line x1="50" x2="50" y1="50" style="clip-path:url(#clipPath26); fill:none;" y2="71" />
      <line x1="50" x2="56" y1="71" style="clip-path:url(#clipPath26); fill:none;" y2="59" />
      <line x1="50" x2="44" y1="71" style="clip-path:url(#clipPath26); fill:none;" y2="59" />
    </g>
    <g transform="translate(171,92)" style="font-size:11; stroke-linecap:butt; text-rendering:geometricPrecision; font-family:sans-serif; stroke-linejoin:round;">
      <line x1="50" x2="211" y1="50" style="clip-path:url(#clipPath27); fill:none;" y2="50" />
      <line x1="211" x2="199" y1="50" style="clip-path:url(#clipPath27); fill:none;" y2="44" />
      <line x1="211" x2="199" y1="50" style="clip-path:url(#clipPath27); fill:none;" y2="56" />
    </g>
    <g transform="translate(372,111)" style="font-size:11; stroke-linecap:butt; text-rendering:geometricPrecision; font-family:sans-serif; stroke-linejoin:round;">
      <line x1="50" x2="50" y1="50" style="clip-path:url(#clipPath28); fill:none;" y2="99" />
      <line x1="50" x2="56" y1="99" style="clip-path:url(#clipPath28); fill:none;" y2="87" />
      <line x1="50" x2="44" y1="99" style="clip-path:url(#clipPath28); fill:none;" y2="87" />
    </g>
    <g transform="translate(112,111)" style="font-size:11; stroke-linecap:butt; text-rendering:geometricPrecision; font-family:sans-serif; stroke-linejoin:round;">
      <line x1="303" x2="50" y1="111" style="clip-path:url(#clipPath29); fill:none;" y2="111" />
      <line x1="50" x2="50" y1="111" style="clip-path:url(#clipPath29); fill:none;" y2="50" />
      <line x1="50" x2="44" y1="50" style="clip-path:url(#clipPath29); fill:none;" y2="62" />
      <line x1="50" x2="56" y1="50" style="clip-path:url(#clipPath29); fill:none;" y2="62" />
    </g>
    <g transform="translate(372,32)" style="font-size:11; stroke-linecap:butt; text-rendering:geometricPrecision; font-family:sans-serif; stroke-linejoin:round; stroke-dasharray:4;">
      <line x1="50" x2="50" y1="90" style="clip-path:url(#clipPath30); fill:none;" y2="50" />
    </g>
    <g transform="translate(372,183)" style="font-size:11; stroke-linecap:butt; text-rendering:geometricPrecision; font-family:sans-serif; stroke-linejoin:round;">
      <line x1="50" x2="50" y1="50" style="clip-path:url(#clipPath31); fill:none;" y2="89" />
      <line x1="50" x2="56" y1="89" style="clip-path:url(#clipPath31); fill:none;" y2="77" />
      <line x1="50" x2="44" y1="89" style="clip-path:url(#clipPath31); fill:none;" y2="77" />
    </g>
    <g transform="translate(131,242)" style="font-size:11; stroke-linecap:butt; text-rendering:geometricPrecision; font-family:sans-serif; stroke-linejoin:round;">
      <line x1="251" x2="50" y1="50" style="clip-path:url(#clipPath32); fill:none;" y2="50" />
      <line x1="50" x2="62" y1="50" style="clip-path:url(#clipPath32); fill:none;" y2="56" />
      <line x1="50" x2="62" y1="50" style="clip-path:url(#clipPath32); fill:none;" y2="44" />
    </g>
    <g transform="translate(102,261)" style="font-size:11; stroke-linecap:butt; text-rendering:geometricPrecision; font-family:sans-serif; stroke-linejoin:round;">
      <line x1="50" x2="50" y1="50" style="clip-path:url(#clipPath26); fill:none;" y2="71" />
      <line x1="50" x2="56" y1="71" style="clip-path:url(#clipPath26); fill:none;" y2="59" />
      <line x1="50" x2="44" y1="71" style="clip-path:url(#clipPath26); fill:none;" y2="59" />
    </g>
    <g transform="translate(1,302)" style="font-size:11; stroke-linecap:butt; text-rendering:geometricPrecision; font-family:sans-serif; stroke-linejoin:round;">
      <line x1="101" x2="50" y1="50" style="clip-path:url(#clipPath33); fill:none;" y2="50" />
      <line x1="50" x2="62" y1="50" style="clip-path:url(#clipPath33); fill:none;" y2="56" />
      <line x1="50" x2="62" y1="50" style="clip-path:url(#clipPath33); fill:none;" y2="44" />
    </g>
    <g style="text-rendering:geometricPrecision; font-size:11; font-family:sans-serif;" transform="translate(422,232)">
      <text x="10" y="14" style="clip-path:url(#clipPath34); stroke:none;" xml:space="preserve">[驗證成功]</text>
    </g>
    <g style="text-rendering:geometricPrecision; font-size:11; font-family:sans-serif;" transform="translate(357,202)">
      <text x="10" y="14" style="clip-path:url(#clipPath34); stroke:none;" xml:space="preserve">[驗證失敗]</text>
    </g>
    
  </g>
</svg>
